P3
64 64
255
155 109 61  148 101 54  138 92  47  133 85  41  142 90  43  147 89  42  161 103 51  164 113 58  170 125 64  173 134 67  175 137 67  181 145 74  166 127 65  153 112 59  143 103 52  146 103 49  155 106 50  162 108 48  182 132 58  197 158 68  208 176 78  191 158 68  167 130 53  141 101 38  140 99  40  151 111 43  165 126 49  170 133 51  171 134 51  174 135 50  192 151 58  204 164 64  194 153 61  165 120 47  140 90  38  155 104 55  173 126 76  188 145 94  187 145 92  184 140 88  182 136 85  174 130 80  165 122 73  157 112 63  157 111 62  164 118 68  168 123 71  172 128 75  169 123 72  171 122 72  169 119 70  178 127 76  187 136 80  201 148 89  196 142 83  184 130 76  168 116 64  165 115 65  166 118 67  165 118 69  162 116 69  161 116 69  160 116 69  160 116 69  
155 109 60  151 104 57  144 98  53  144 96  51  149 99  52  154 99  51  160 105 54  162 110 58  163 116 61  164 120 62  166 121 62  170 127 64  163 119 61  156 111 57  149 106 54  147 104 53  152 105 51  161 111 50  177 129 55  191 149 64  194 157 68  182 144 62  161 122 51  141 102 45  141 102 46  153 115 50  168 130 54  173 137 57  177 141 58  183 144 57  201 163 69  214 179 79  207 174 80  183 143 63  163 117 55  171 123 65  181 136 80  188 146 89  185 143 86  183 138 82  179 134 79  171 127 75  162 120 70  155 113 63  158 115 65  164 122 71  167 126 74  170 129 77  166 124 73  169 124 73  171 126 75  180 133 81  188 139 83  196 144 85  194 140 79  185 132 75  170 120 66  163 115 64  161 113 62  163 115 64  164 117 65  164 118 67  163 118 68  162 118 68  
155 109 61  154 108 62  153 107 61  159 112 65  162 114 67  166 116 68  163 113 63  163 112 63  158 109 61  156 108 58  157 109 57  162 115 59  166 118 62  164 116 60  160 113 60  151 105 55  152 106 53  159 112 50  170 122 51  173 129 53  168 126 54  163 122 55  152 111 51  140 102 49  142 103 50  152 114 54  167 128 58  173 137 62  181 146 64  191 153 65  207 175 79  221 192 89  219 192 92  205 167 75  191 148 71  190 146 76  191 151 87  188 149 87  183 141 81  179 135 75  175 130 73  169 127 72  162 122 70  156 117 66  157 118 67  162 123 72  164 124 73  165 126 75  162 122 71  166 123 72  169 126 76  174 131 79  176 131 78  178 129 72  181 130 70  180 129 72  171 123 70  162 116 66  158 111 60  161 114 60  165 117 62  165 118 64  164 118 65  163 118 66  
154 109 62  153 108 63  153 107 63  161 115 68  168 122 73  171 125 75  165 118 70  162 113 66  161 113 65  163 115 66  167 119 68  172 125 69  174 127 69  171 123 65  171 122 65  159 113 59  158 113 57  156 113 51  168 124 55  170 128 59  168 127 62  166 125 65  161 121 64  157 119 65  158 121 65  162 126 65  170 133 65  174 138 66  181 146 67  192 156 69  207 176 81  220 192 91  224 199 99  217 183 87  207 169 82  196 156 78  191 154 85  185 148 84  181 141 79  175 133 71  171 128 68  167 127 70  164 125 72  161 123 72  161 123 72  162 124 73  163 123 72  162 123 71  161 120 68  161 119 68  161 119 70  159 117 69  159 117 67  160 114 62  165 119 64  169 123 69  167 122 71  160 117 67  157 112 60  161 114 60  164 117 61  163 117 62  161 116 62  161 116 64  
159 115 69  157 113 68  157 112 67  162 117 68  168 123 73  171 127 77  168 124 75  165 120 71  166 120 70  169 123 70  173 129 72  176 133 73  177 134 74  175 129 70  177 128 68  168 121 62  172 124 64  167 122 62  173 128 63  171 129 64  174 132 69  176 135 74  178 137 77  175 136 76  174 137 74  174 136 72  175 137 70  178 142 71  181 147 70  190 155 70  201 167 73  212 179 79  218 188 89  216 184 86  211 177 87  200 165 82  194 159 87  186 150 83  180 141 78  173 132 69  169 128 66  167 128 70  166 128 74  163 125 73  159 121 70  158 119 68  158 117 66  157 116 65  154 114 62  153 112 61  149 107 60  144 102 56  142 100 52  143 99  50  149 105 54  155 110 60  156 114 65  155 113 64  154 112 60  158 114 61  161 116 62  161 116 63  160 116 64  160 116 65  
164 121 73  161 119 72  160 116 68  160 116 65  162 117 65  165 121 69  166 122 71  167 123 73  170 126 75  174 131 76  176 134 76  176 135 74  175 134 74  175 132 72  179 132 72  178 132 69  182 134 70  177 133 70  183 139 74  185 143 76  192 148 79  193 149 81  193 150 83  190 149 82  188 150 81  186 148 78  184 148 76  184 152 78  185 154 76  193 160 75  202 166 74  212 179 83  215 186 91  212 182 91  204 172 86  195 160 79  188 152 78  180 143 75  175 135 70  169 129 65  165 125 63  164 125 67  162 124 70  159 121 69  156 117 66  154 113 63  152 112 61  150 110 59  147 107 56  146 106 57  144 103 55  141 99  52  140 97  48  141 97  47  143 99  49  145 101 52  145 104 56  144 105 58  146 106 58  153 111 61  157 114 64  158 115 66  158 115 66  158 115 66  
168 126 77  165 123 74  163 121 70  161 117 66  160 115 63  160 116 65  161 118 67  165 122 71  169 127 74  173 132 76  175 135 76  175 135 74  174 134 73  174 133 72  179 135 73  183 136 72  186 137 73  185 138 73  185 139 73  187 142 73  191 143 72  192 144 72  191 145 74  189 146 74  190 150 77  190 153 80  190 156 82  192 165 90  193 168 91  201 173 90  203 170 79  206 171 78  203 170 78  200 168 80  193 159 76  187 151 72  179 141 68  174 134 66  171 130 65  168 128 64  165 124 63  161 120 63  160 119 65  156 116 63  153 113 61  149 108 57  147 107 55  145 106 53  142 103 51  142 102 51  142 100 49  145 101 50  147 101 49  148 103 51  146 101 50  142 100 51  138 98  51  136 97  51  140 101 54  146 106 58  151 110 62  153 111 64  156 113 66  159 116 68  
161 120 73  158 117 69  156 115 66  157 114 65  157 113 63  157 113 63  158 114 64  163 120 69  169 128 74  173 133 78  175 135 79  175 134 76  174 134 75  175 136 74  179 138 75  179 135 71  178 132 68  176 133 68  179 137 71  183 140 72  185 141 73  185 142 75  186 145 77  187 148 76  189 153 78  192 161 89  193 167 97  198 177 104 197 175 97  200 173 88  199 165 74  197 162 70  193 156 66  188 151 65  183 144 63  177 140 63  172 134 62  169 129 60  168 128 63  166 126 61  163 122 60  158 117 58  156 115 58  153 112 57  150 109 55  146 106 52  145 106 51  143 104 49  141 103 47  143 103 49  146 104 50  152 108 54  152 107 52  151 106 53  147 103 52  143 101 52  139 99  51  137 97  48  142 101 51  145 104 54  148 106 59  148 106 59  152 109 64  156 113 68  
152 113 69  147 108 63  144 104 59  147 106 60  151 109 62  153 110 63  155 111 63  160 117 66  165 124 71  171 130 76  173 133 77  172 132 75  172 132 73  172 133 72  175 135 72  173 131 68  171 130 67  170 130 66  172 134 68  176 138 71  181 144 79  184 149 85  187 153 87  189 157 86  192 162 87  194 168 97  195 170 100 197 173 101 196 167 87  195 161 74  189 149 59  183 143 51  179 137 48  177 136 50  178 139 59  175 140 62  173 136 64  168 130 60  171 133 66  168 130 64  166 125 61  159 117 55  157 114 54  154 112 54  151 110 53  149 109 53  149 110 53  148 109 52  147 109 51  149 109 52  151 109 53  155 112 56  155 110 54  154 110 55  152 109 57  149 107 58  148 106 57  147 105 53  150 106 52  148 105 52  148 105 55  147 105 58  151 109 65  155 114 69  
146 107 65  141 103 61  138 100 57  139 102 58  143 105 61  148 108 63  152 111 64  157 115 66  161 120 69  166 126 74  169 131 76  171 133 77  172 134 76  173 134 74  173 133 72  171 131 69  169 132 69  170 133 69  173 136 70  178 141 76  184 151 88  187 158 94  189 160 93  188 159 86  186 157 81  187 159 85  185 158 86  187 157 82  182 146 64  181 137 48  178 131 39  179 135 42  177 135 46  176 137 50  178 142 60  177 144 65  174 141 67  169 133 61  172 134 65  168 130 62  163 124 57  158 116 51  156 115 51  154 114 53  151 112 53  151 112 54  150 112 54  151 113 54  153 115 56  155 117 59  156 117 61  157 116 61  156 113 58  156 111 56  155 111 58  155 112 60  157 114 62  158 115 61  159 115 59  155 111 57  150 106 56  147 105 58  148 107 63  150 111 67  
145 107 65  141 104 62  139 103 60  139 104 60  141 105 61  145 107 63  151 112 66  156 115 67  157 117 68  159 120 70  161 124 73  167 131 76  171 134 76  174 135 75  173 133 71  172 133 69  172 135 70  174 138 71  176 139 72  179 142 76  182 148 83  184 152 85  187 154 85  186 153 81  184 150 76  184 152 78  184 155 80  187 156 79  186 153 68  188 149 60  188 149 57  189 151 59  190 156 68  189 158 71  188 158 77  184 153 73  179 147 71  174 139 66  171 134 62  171 133 62  165 126 56  159 119 51  156 115 49  156 116 53  155 118 56  155 117 57  155 116 56  155 117 56  157 119 59  158 121 63  158 120 64  156 116 61  157 114 58  160 115 58  162 117 61  163 120 65  165 122 68  164 122 68  162 119 65  156 113 60  151 109 58  150 108 61  150 109 64  150 110 65  
147 108 66  145 108 65  143 108 65  142 108 63  142 107 62  145 109 64  152 114 68  156 116 69  155 116 69  154 116 69  155 118 70  164 128 75  172 135 78  178 140 79  177 137 74  175 135 70  174 136 69  176 139 69  177 137 69  176 136 68  172 133 68  171 133 68  172 133 69  176 135 68  180 140 66  186 154 78  192 166 90  195 171 95  198 173 89  201 174 84  207 181 92  209 183 91  212 190 106 209 187 104 201 177 99  189 160 81  179 148 70  175 140 66  171 132 59  169 130 57  163 124 52  158 119 48  154 115 47  155 117 51  158 121 57  159 122 59  158 119 57  157 117 56  157 118 58  157 120 61  157 119 61  155 115 58  158 114 56  161 115 56  165 118 60  167 122 65  168 125 69  167 124 71  163 121 69  157 116 65  153 111 62  152 111 64  153 112 65  154 113 66  
147 110 68  146 110 68  145 110 67  145 111 66  146 110 65  148 112 66  151 114 68  153 114 68  153 113 69  152 112 67  153 113 66  162 123 70  173 135 76  183 145 82  183 144 79  181 142 75  179 141 72  180 143 72  179 142 71  176 138 68  169 130 65  164 123 61  166 122 64  174 129 67  187 146 73  199 169 94  210 190 114 213 197 121 217 200 114 217 197 103 223 206 116 224 208 123 229 217 139 219 205 126 204 183 104 189 161 81  181 149 69  178 142 65  172 133 57  172 133 58  166 127 54  161 122 50  156 116 46  157 118 51  161 124 57  162 124 59  162 122 57  159 119 55  158 118 55  159 120 57  158 119 57  157 116 55  158 113 52  162 115 54  167 119 60  170 124 68  170 125 70  166 122 68  161 119 67  155 114 65  153 112 64  154 113 67  155 115 69  156 116 70  
150 113 71  149 114 71  148 114 70  148 114 68  149 113 67  150 113 68  151 112 67  151 111 67  153 112 68  154 113 68  158 116 67  167 126 70  177 139 78  187 152 87  187 153 86  186 151 82  185 149 78  188 153 82  187 153 83  184 150 81  178 143 76  169 130 69  169 127 67  175 131 67  192 155 77  205 177 96  216 196 115 214 196 115 219 202 116 220 201 108 230 215 127 232 221 138 230 218 139 219 205 126 201 179 96  189 160 80  179 146 65  178 144 63  177 141 62  174 137 59  170 133 58  167 129 55  169 132 61  168 133 62  170 135 66  169 133 63  165 126 57  164 124 56  163 124 56  165 125 59  163 123 57  163 120 56  162 116 53  165 117 56  167 120 61  170 124 67  168 123 67  163 119 65  160 117 65  155 113 65  152 111 65  153 113 68  155 115 71  156 117 73  
155 120 77  154 120 77  154 120 75  153 118 72  152 115 69  149 111 66  148 107 64  148 106 63  153 111 67  160 118 70  168 128 74  174 135 76  179 141 78  183 148 83  182 147 81  183 147 79  184 148 77  189 155 84  191 159 87  189 156 85  186 152 80  181 143 74  181 141 73  185 145 73  195 160 81  205 175 93  212 188 104 212 189 104 216 197 111 217 198 112 224 205 120 228 212 129 223 204 117 212 192 106 193 167 77  186 157 73  186 155 72  190 160 77  189 156 75  182 148 68  179 145 67  177 144 67  182 150 75  181 149 76  182 150 77  176 141 68  170 132 59  168 129 57  169 130 59  170 130 60  171 129 61  171 128 61  167 122 57  167 121 59  166 120 60  167 122 64  164 119 62  161 115 61  159 115 63  156 114 64  154 114 65  154 115 69  156 117 72  156 118 74  
162 126 82  161 125 81  161 125 79  160 124 76  157 120 72  154 114 67  149 107 61  148 104 59  152 110 64  159 119 70  168 130 75  170 133 73  172 136 73  173 137 72  172 135 69  173 134 67  176 137 67  183 147 76  187 153 80  187 153 81  185 151 76  183 145 72  176 137 66  176 136 64  180 145 68  189 156 75  195 166 82  197 169 85  206 184 101 213 193 110 219 197 112 220 198 109 213 186 93  209 183 90  196 165 72  191 160 71  187 156 71  191 161 77  190 159 76  186 155 72  186 156 76  188 158 77  193 166 87  193 164 86  193 162 86  185 150 74  177 138 62  173 133 58  175 135 62  176 134 62  177 134 64  175 131 63  171 126 61  168 123 61  165 120 60  167 121 62  165 120 63  164 119 64  164 120 67  163 120 69  161 120 70  161 120 74  162 122 76  162 122 78  
166 129 83  167 130 84  168 131 83  168 131 82  165 127 76  162 121 70  156 113 64  151 108 61  150 109 61  153 114 63  160 123 67  161 125 65  163 126 65  166 128 64  169 128 62  171 128 61  174 132 63  180 142 70  184 147 71  185 149 72  184 149 71  181 146 72  168 130 62  163 122 57  160 120 55  165 127 57  166 131 59  171 139 65  182 154 78  193 168 88  198 170 86  202 173 83  203 171 76  205 174 78  196 162 68  189 154 63  187 150 65  192 157 73  196 163 79  192 161 77  192 162 78  190 158 76  194 163 82  192 160 80  193 160 82  185 148 70  181 141 64  174 133 57  176 135 60  175 132 59  178 133 61  177 132 63  173 128 63  171 125 62  166 121 59  169 123 62  170 125 66  172 127 70  170 126 72  169 126 73  166 123 73  164 123 74  163 123 75  163 123 76  
170 131 83  171 132 84  174 135 86  176 136 86  174 133 82  171 129 76  163 120 69  155 113 63  150 108 59  148 109 56  151 113 56  154 117 58  160 123 62  166 130 66  170 132 65  176 136 67  181 143 73  185 151 78  186 151 74  190 156 77  194 162 85  185 155 83  166 130 68  152 109 52  147 102 48  145 102 46  140 100 45  138 102 46  143 110 50  151 121 54  166 134 58  183 150 65  192 158 66  198 165 71  192 155 63  189 148 59  182 137 52  187 145 60  194 158 71  194 161 73  191 158 71  186 151 66  189 154 70  189 156 73  191 158 76  188 152 72  183 144 65  175 133 56  178 134 57  178 133 57  180 134 61  179 132 62  177 130 63  176 129 64  174 127 63  178 131 69  180 134 74  180 136 78  175 131 76  172 128 77  167 124 75  167 124 76  166 124 76  166 125 77  
172 130 82  174 132 84  178 136 87  180 137 87  178 134 83  173 129 77  167 124 73  159 117 67  154 113 62  152 112 57  153 113 54  157 120 58  163 126 63  170 136 70  173 136 69  177 138 69  179 143 73  183 149 76  185 150 74  191 159 81  198 171 92  191 165 91  175 140 76  159 115 58  152 104 53  147 100 51  134 91  45  121 82  37  111 76  31  110 78  31  127 94  39  152 117 48  170 135 54  183 147 61  181 142 56  181 137 52  180 132 47  192 148 60  202 165 75  195 161 71  191 153 66  184 144 58  190 151 65  189 152 67  190 154 71  187 151 69  183 144 64  180 138 59  181 137 59  182 137 60  182 135 61  182 134 63  181 134 63  182 134 66  180 133 68  183 136 73  183 136 75  182 135 77  175 130 75  171 127 76  166 123 74  167 124 75  168 124 75  169 126 77  
174 129 82  174 129 81  175 130 81  175 128 79  174 126 76  169 122 71  166 121 71  162 119 69  163 123 69  164 127 68  165 130 66  170 136 69  173 140 72  176 144 75  176 142 73  174 140 71  176 141 72  178 143 70  183 147 73  191 160 84  199 175 98  198 174 98  186 152 83  169 124 66  156 105 54  150 100 53  136 90  47  117 76  37  98  62  28  93  60  26  106 72  33  122 88  38  135 100 39  149 112 44  156 116 44  163 120 46  173 126 48  188 145 59  200 160 70  194 157 67  189 150 62  184 144 57  189 151 64  191 156 70  195 162 78  195 164 82  190 153 73  188 148 67  187 145 65  189 144 66  188 141 66  185 137 64  186 140 67  185 141 70  184 139 71  183 137 73  181 133 72  178 130 73  172 126 73  170 125 76  170 125 77  171 127 78  172 127 77  172 127 77  
170 123 77  169 123 76  170 122 75  168 119 71  167 117 69  165 116 67  164 117 68  166 123 72  169 130 74  174 140 77  178 146 78  180 149 78  179 147 77  178 146 75  180 149 79  179 149 78  177 143 73  175 137 64  180 141 66  189 155 78  198 172 93  202 178 99  191 159 86  173 130 68  155 103 51  148 97  50  136 89  44  119 77  36  101 65  28  94  61  26  97  62  28  101 65  28  107 70  27  120 82  31  136 96  38  148 106 44  160 116 50  172 128 55  186 144 63  189 152 66  192 156 68  192 157 70  197 163 76  198 166 79  199 167 82  197 166 82  194 160 76  194 158 74  193 154 72  193 149 70  190 143 67  188 140 66  188 144 69  186 144 72  182 138 71  178 132 70  175 126 68  173 125 70  170 123 72  170 124 76  170 124 78  169 123 75  168 121 72  167 120 71  
167 119 73  165 118 71  164 116 69  161 113 66  161 112 65  162 113 66  162 115 67  165 123 72  168 129 73  170 136 75  173 140 77  174 141 77  174 139 76  173 137 72  175 141 75  180 148 78  184 151 78  185 150 72  190 155 76  193 161 81  200 174 93  205 182 100 198 170 92  180 142 75  153 106 52  141 93  46  136 92  45  132 92  44  123 86  39  112 76  34  105 68  30  99  62  27  94  57  22  103 64  25  119 80  36  133 93  43  142 100 48  150 105 48  166 122 54  183 145 66  193 159 73  201 172 84  201 173 84  204 177 89  204 175 86  203 172 84  201 169 82  200 164 77  199 162 76  198 155 73  197 154 74  196 151 73  195 152 73  190 149 74  183 139 71  178 133 71  174 127 69  174 126 71  172 125 72  173 126 75  173 127 76  170 123 72  166 118 68  164 115 65  
167 119 71  164 117 70  162 115 69  160 113 67  158 112 66  159 113 68  158 113 67  161 118 69  160 119 67  160 121 66  160 123 69  159 123 70  160 121 69  164 124 66  173 135 72  184 150 79  191 161 84  196 166 82  197 167 82  192 159 76  191 159 78  193 162 80  193 162 80  184 150 74  166 125 62  154 111 55  154 114 58  161 126 62  154 121 58  133 96  42  115 76  32  109 69  30  108 67  30  111 70  32  125 84  41  135 94  48  139 97  52  140 96  49  152 107 51  173 132 63  188 152 72  205 177 92  209 183 94  212 185 93  207 173 80  205 167 74  206 170 78  206 170 79  206 175 87  205 171 87  204 170 89  203 165 83  200 160 77  195 155 77  188 148 77  185 146 81  183 142 79  181 139 77  178 133 73  176 130 73  175 129 73  172 125 70  169 121 68  166 118 66  
165 118 69  162 115 68  159 114 68  159 114 69  157 113 68  156 113 68  155 111 67  156 112 66  154 110 64  150 107 61  146 105 60  144 103 60  146 104 59  154 113 61  168 129 68  182 146 74  192 161 81  200 171 83  202 175 88  196 166 82  190 156 75  187 152 70  188 154 70  190 158 75  183 149 74  178 140 71  184 148 78  195 165 88  194 168 91  166 132 65  140 99  45  122 78  34  121 76  35  123 77  37  133 87  44  136 92  46  139 95  49  142 98  52  154 109 58  172 128 67  186 142 70  203 168 87  209 178 91  211 181 89  206 170 75  206 165 70  211 172 79  214 179 88  214 188 100 213 188 103 211 187 103 211 180 95  206 172 87  202 169 87  197 165 89  196 164 93  193 158 89  188 151 83  181 140 74  178 135 71  177 132 71  177 131 73  175 128 73  172 124 72  
160 114 67  158 114 68  158 116 71  160 119 74  157 117 72  153 112 67  150 108 64  151 108 64  151 107 65  151 106 63  147 104 59  142 101 56  142 101 54  151 110 57  167 129 66  180 145 72  186 154 77  189 158 77  182 151 73  173 140 66  166 127 58  163 124 53  172 133 56  183 149 67  194 161 78  199 161 79  205 170 86  214 186 99  212 192 105 191 164 86  170 135 67  154 113 56  148 103 54  139 90  46  139 89  45  137 90  43  142 96  48  150 105 55  162 116 64  174 126 69  182 134 68  196 154 79  207 174 90  214 186 95  213 179 84  213 171 75  215 174 78  219 185 91  219 195 104 218 197 111 215 193 109 213 188 104 210 183 99  208 183 102 205 180 101 204 178 101 200 171 96  193 161 90  182 146 77  177 135 69  175 131 68  176 131 72  172 127 73  170 124 73  
150 107 63  150 109 64  153 113 68  159 121 75  161 123 76  159 121 72  154 114 65  155 113 65  156 114 68  156 113 66  150 108 58  143 101 50  142 99  47  147 103 49  155 113 54  160 121 57  159 121 57  159 120 54  153 114 51  148 111 51  142 105 48  140 103 46  147 109 47  160 124 58  178 144 70  190 153 73  201 166 81  212 183 93  214 192 101 200 176 89  189 160 79  183 152 78  179 143 79  165 120 63  151 99  48  142 89  38  141 91  41  149 101 51  163 115 62  175 128 70  181 132 69  190 146 72  202 166 84  214 187 99  217 189 97  216 180 85  216 176 79  221 185 90  222 194 100 220 197 106 216 194 107 214 194 109 211 190 108 206 184 103 202 177 98  201 174 95  199 170 93  193 161 89  182 146 77  175 135 69  170 127 65  169 125 68  163 119 68  158 115 69  
144 105 65  148 110 66  156 119 70  166 130 77  173 137 84  173 135 80  167 127 72  164 122 67  163 122 70  158 117 66  153 111 60  147 105 52  149 104 51  150 102 48  148 100 44  146 101 45  145 101 48  146 102 49  139 95  46  128 87  41  124 84  41  125 85  40  133 92  41  142 101 47  153 113 54  164 124 59  176 138 63  190 156 72  192 163 76  189 161 77  192 166 82  200 176 91  201 175 94  186 149 74  169 119 54  154 98  40  147 92  40  148 96  45  155 105 51  166 117 59  170 122 59  178 133 61  188 151 71  200 171 86  206 179 90  209 176 84  212 175 77  218 184 84  220 189 91  216 188 95  211 182 94  206 179 95  202 176 93  197 169 88  194 163 82  194 160 80  196 161 83  193 159 85  185 149 79  176 137 71  167 126 65  162 121 65  153 112 64  146 106 64  
153 119 72  159 123 68  166 129 67  175 138 74  184 147 86  188 149 87  185 142 79  178 134 71  173 130 71  163 122 67  158 117 64  155 111 60  156 110 59  155 105 52  151 100 46  148 98  46  148 100 52  148 100 52  143 97  51  131 87  45  127 84  44  127 82  41  133 86  41  138 91  44  140 95  46  144 100 47  151 110 50  160 120 51  164 126 55  158 122 54  165 132 63  183 155 78  200 174 90  201 170 81  190 146 66  175 120 51  165 110 51  157 105 49  155 107 49  156 107 48  158 109 48  167 122 52  180 140 61  191 157 73  194 163 76  195 163 74  199 165 72  207 175 78  211 180 83  209 178 86  206 176 87  204 175 88  199 170 85  193 162 78  190 154 73  191 153 71  193 157 77  193 159 83  188 155 83  180 145 76  170 133 70  161 125 68  150 114 67  141 106 66  
181 154 87  180 147 77  179 141 68  182 140 69  189 146 79  192 147 82  191 143 78  185 137 73  180 135 75  169 126 70  164 122 69  161 118 68  162 116 66  160 111 58  157 106 50  159 109 53  164 115 63  161 113 62  150 104 56  137 93  48  135 92  49  140 94  48  148 98  49  150 100 49  148 97  49  148 99  49  151 104 50  153 108 50  149 105 49  144 102 49  149 109 55  165 128 61  185 152 71  199 165 74  199 160 71  192 146 65  183 137 64  172 127 60  164 121 55  159 113 49  160 112 48  171 126 55  185 145 63  195 162 74  191 158 70  182 149 65  180 146 60  184 150 63  193 158 69  199 164 74  205 172 79  206 177 83  204 177 85  202 172 83  199 164 76  196 156 69  194 155 71  191 156 76  188 155 80  181 148 77  172 139 72  163 131 71  157 127 74  154 126 77  
205 176 87  193 157 73  181 139 63  176 131 61  181 135 70  185 138 76  189 140 79  187 139 80  183 137 80  176 132 76  170 126 73  166 123 72  165 120 70  165 116 63  163 111 56  165 113 57  166 116 61  158 109 57  150 103 53  143 100 51  143 101 54  151 109 58  156 110 59  160 112 60  156 106 55  157 106 53  156 106 52  152 105 51  143 97  47  138 93  46  137 93  45  148 105 50  164 122 57  181 143 65  188 151 67  190 150 65  185 143 65  171 129 59  160 118 53  149 105 44  154 106 45  169 123 56  187 146 67  197 163 75  195 162 73  187 154 69  180 147 64  174 139 60  173 137 59  184 148 65  201 169 76  217 192 96  221 198 102 217 191 96  213 181 84  207 170 76  200 164 75  191 156 74  186 154 75  181 150 75  174 143 71  170 138 70  173 144 77  180 154 86  
207 175 79  187 148 68  165 120 56  161 113 54  168 120 62  176 130 74  184 138 84  186 141 89  186 141 90  182 137 84  175 131 77  169 124 73  166 119 70  167 117 66  168 116 61  171 118 61  168 116 61  160 109 57  152 104 53  151 108 55  155 112 60  167 125 70  167 122 69  167 121 69  162 113 63  166 115 63  165 114 60  160 112 58  150 102 52  146 100 52  145 98  49  149 103 50  156 111 55  168 127 62  180 143 69  185 149 68  177 138 60  161 117 51  151 105 47  149 101 47  153 104 47  165 118 53  182 142 66  193 157 72  195 162 75  185 153 70  184 156 77  174 142 69  169 131 63  170 130 56  191 156 70  214 189 92  225 201 99  218 189 88  210 175 74  201 164 70  194 156 69  184 146 63  174 138 57  169 136 58  167 133 57  171 135 60  186 152 71  201 170 82  
194 154 62  172 128 54  147 98  45  150 101 50  162 115 65  177 134 83  185 143 93  186 143 94  184 141 92  179 136 85  174 129 78  167 122 72  165 118 69  168 118 68  171 120 67  174 122 67  170 119 64  165 114 61  160 110 58  165 117 64  174 126 71  189 142 85  183 135 81  175 128 75  163 114 64  166 116 65  163 114 62  157 110 60  151 104 57  149 103 57  149 103 56  149 103 54  149 103 55  150 106 54  156 115 56  157 117 51  156 109 46  144 91  37  144 89  40  143 92  42  151 101 47  160 115 53  175 134 63  183 145 66  182 145 68  176 140 66  179 149 79  174 143 75  166 126 64  161 114 50  181 139 62  208 178 84  223 195 92  209 177 77  195 156 63  179 140 57  176 138 59  172 134 55  169 131 51  167 131 51  166 130 50  172 134 54  191 151 61  208 168 70  
193 153 61  169 124 51  145 96  43  155 106 56  169 123 73  184 141 90  187 145 94  185 142 91  183 139 88  177 133 82  168 125 74  160 115 66  159 112 64  164 117 67  169 122 70  173 127 73  169 122 69  170 121 69  167 118 66  174 125 72  182 132 75  193 141 82  190 137 79  181 129 74  169 119 67  168 118 67  166 118 67  162 116 66  159 113 65  157 111 64  157 111 63  156 110 61  154 108 61  151 106 58  151 108 58  149 106 53  150 102 48  148 93  43  155 98  48  160 107 57  161 112 57  161 118 57  168 127 60  175 137 65  171 132 64  161 120 60  161 125 67  160 123 64  162 119 61  160 109 49  179 132 59  195 160 70  207 175 77  193 158 64  173 133 51  154 114 45  151 111 46  158 118 48  163 124 46  165 129 47  167 131 48  175 135 51  193 152 60  207 167 67  
207 174 77  183 143 63  163 117 55  171 123 65  181 136 80  188 146 89  185 143 86  183 138 82  179 134 79  171 127 75  162 120 70  155 113 63  158 115 65  164 122 71  167 126 74  170 129 77  166 124 73  169 124 73  171 126 75  180 133 81  188 139 83  196 144 85  194 140 79  185 132 75  170 120 66  163 115 64  161 113 62  163 115 64  164 117 65  164 118 67  163 118 68  160 115 65  157 111 62  151 104 57  144 98  53  144 96  51  149 99  52  154 99  51  160 105 54  162 110 58  163 116 61  164 120 62  166 121 62  170 127 64  163 119 61  156 111 57  149 106 54  147 104 53  152 105 51  161 111 50  177 129 55  191 149 64  194 157 68  182 144 62  161 122 51  141 102 45  141 102 46  153 115 50  168 130 54  173 137 57  177 141 58  183 144 57  201 163 69  213 179 81  
222 192 89  205 167 75  191 148 71  190 146 76  191 151 87  188 149 87  183 141 81  179 135 75  175 130 73  169 127 72  162 122 70  156 117 66  157 118 67  162 123 72  164 124 73  165 126 75  162 122 71  166 123 72  169 126 76  174 131 79  176 131 78  178 129 72  181 130 70  180 129 72  171 123 70  162 116 66  158 111 60  161 114 60  165 117 62  165 118 64  164 118 65  160 115 63  158 113 63  154 108 62  153 107 61  159 112 65  162 114 67  166 116 68  163 113 63  163 112 63  158 109 61  156 108 58  157 109 57  162 115 59  166 118 62  164 116 60  160 113 60  151 105 55  152 106 53  159 112 50  170 122 51  173 129 53  168 126 54  163 122 55  152 111 51  140 102 49  142 103 50  152 114 54  167 128 58  173 137 62  181 146 64  191 153 65  207 175 79  218 191 92  
226 198 96  217 183 87  207 169 82  196 156 78  191 154 85  185 148 84  181 141 79  175 133 71  171 128 68  167 127 70  164 125 72  161 123 72  161 123 72  162 124 73  163 123 72  162 123 71  161 120 68  161 119 68  161 119 70  159 117 69  159 117 67  160 114 62  165 119 64  169 123 69  167 122 71  160 117 67  157 112 60  161 114 60  164 117 61  163 117 62  161 116 62  158 114 62  157 112 63  153 108 63  153 107 63  161 115 68  168 122 73  171 125 75  165 118 70  162 113 66  161 113 65  163 115 66  167 119 68  172 125 69  174 127 69  171 123 65  171 122 65  159 113 59  158 113 57  156 113 51  168 124 55  170 128 59  168 127 62  166 125 65  161 121 64  157 119 65  158 121 65  162 126 65  170 133 65  174 138 66  181 146 67  192 156 69  207 176 81  218 193 94  
219 188 88  216 184 86  211 177 87  200 165 82  194 159 87  186 150 83  180 141 78  173 132 69  169 128 66  167 128 70  166 128 74  163 125 73  159 121 70  158 119 68  158 117 66  157 116 65  154 114 62  153 112 61  149 107 60  144 102 56  142 100 52  143 99  50  149 105 54  155 110 60  156 114 65  155 113 64  154 112 60  158 114 61  161 116 62  161 116 63  160 116 64  159 115 65  160 116 68  157 113 68  157 112 67  162 117 68  168 123 73  171 127 77  168 124 75  165 120 71  166 120 70  169 123 70  173 129 72  176 133 73  177 134 74  175 129 70  177 128 68  168 121 62  172 124 64  167 122 62  173 128 63  171 129 64  174 132 69  176 135 74  178 137 77  175 136 76  174 137 74  174 136 72  175 137 70  178 142 71  181 147 70  190 155 70  201 167 73  211 179 80  
216 188 95  212 182 91  204 172 86  195 160 79  188 152 78  180 143 75  175 135 70  169 129 65  165 125 63  164 125 67  162 124 70  159 121 69  156 117 66  154 113 63  152 112 61  150 110 59  147 107 56  146 106 57  144 103 55  141 99  52  140 97  48  141 97  47  143 99  49  145 101 52  145 104 56  144 105 58  146 106 58  153 111 61  157 114 64  158 115 66  158 115 66  160 117 68  162 120 71  161 119 72  160 116 68  160 116 65  162 117 65  165 121 69  166 122 71  167 123 73  170 126 75  174 131 76  176 134 76  176 135 74  175 134 74  175 132 72  179 132 72  178 132 69  182 134 70  177 133 70  183 139 74  185 143 76  192 148 79  193 149 81  193 150 83  190 149 82  188 150 81  186 148 78  184 148 76  184 152 78  185 154 76  193 160 75  202 166 74  211 176 80  
202 172 82  200 168 80  193 159 76  187 151 72  179 141 68  174 134 66  171 130 65  168 128 64  165 124 63  161 120 63  160 119 65  156 116 63  153 113 61  149 108 57  147 107 55  145 106 53  142 103 51  142 102 51  142 100 49  145 101 50  147 101 49  148 103 51  146 101 50  142 100 51  138 98  51  136 97  51  140 101 54  146 106 58  151 110 62  153 111 64  156 113 66  161 118 70  166 123 75  165 123 74  163 121 70  161 117 66  160 115 63  160 116 65  161 118 67  165 122 71  169 127 74  173 132 76  175 135 76  175 135 74  174 134 73  174 133 72  179 135 73  183 136 72  186 137 73  185 138 73  185 139 73  187 142 73  191 143 72  192 144 72  191 145 74  189 146 74  190 150 77  190 153 80  190 156 82  192 165 90  193 168 91  201 173 90  203 170 79  207 169 74  
191 156 68  188 151 65  183 144 63  177 140 63  172 134 62  169 129 60  168 128 63  166 126 61  163 122 60  158 117 58  156 115 58  153 112 57  150 109 55  146 106 52  145 106 51  143 104 49  141 103 47  143 103 49  146 104 50  152 108 54  152 107 52  151 106 53  147 103 52  143 101 52  139 99  51  137 97  48  142 101 51  145 104 54  148 106 59  148 106 59  152 109 64  157 114 69  160 119 72  158 117 69  156 115 66  157 114 65  157 113 63  157 113 63  158 114 64  163 120 69  169 128 74  173 133 78  175 135 79  175 134 76  174 134 75  175 136 74  179 138 75  179 135 71  178 132 68  176 133 68  179 137 71  183 140 72  185 141 73  185 142 75  186 145 77  187 148 76  189 153 78  192 161 89  193 167 97  198 177 104 197 175 97  200 173 88  199 165 74  200 163 68  
176 136 48  177 136 50  178 139 59  175 140 62  173 136 64  168 130 60  171 133 66  168 130 64  166 125 61  159 117 55  157 114 54  154 112 54  151 110 53  149 109 53  149 110 53  148 109 52  147 109 51  149 109 52  151 109 53  155 112 56  155 110 54  154 110 55  152 109 57  149 107 58  148 106 57  147 105 53  150 106 52  148 105 52  148 105 55  147 105 58  151 109 65  154 113 69  153 113 69  147 108 63  144 104 59  147 106 60  151 109 62  153 110 63  155 111 63  160 117 66  165 124 71  171 130 76  173 133 77  172 132 75  172 132 73  172 133 72  175 135 72  173 131 68  171 130 67  170 130 66  172 134 68  176 138 71  181 144 79  184 149 85  187 153 87  189 157 86  192 162 87  194 168 97  195 170 100 197 173 101 196 167 87  195 161 74  189 149 59  186 143 51  
177 139 50  176 137 50  178 142 60  177 144 65  174 141 67  169 133 61  172 134 65  168 130 62  163 124 57  158 116 51  156 115 51  154 114 53  151 112 53  151 112 54  150 112 54  151 113 54  153 115 56  155 117 59  156 117 61  157 116 61  156 113 58  156 111 56  155 111 58  155 112 60  157 114 62  158 115 61  159 115 59  155 111 57  150 106 56  147 105 58  148 107 63  150 110 67  147 108 65  141 103 61  138 100 57  139 102 58  143 105 61  148 108 63  152 111 64  157 115 66  161 120 69  166 126 74  169 131 76  171 133 77  172 134 76  173 134 74  173 133 72  171 131 69  169 132 69  170 133 69  173 136 70  178 141 76  184 151 88  187 158 94  189 160 93  188 159 86  186 157 81  187 159 85  185 158 86  187 157 82  182 146 64  181 137 48  178 131 39  179 131 38  
191 159 69  189 158 71  188 158 77  184 153 73  179 147 71  174 139 66  171 134 62  171 133 62  165 126 56  159 119 51  156 115 49  156 116 53  155 118 56  155 117 57  155 116 56  155 117 56  157 119 59  158 121 63  158 120 64  156 116 61  157 114 58  160 115 58  162 117 61  163 120 65  165 122 68  164 122 68  162 119 65  156 113 60  151 109 58  150 108 61  150 109 64  150 110 66  145 106 64  141 104 62  139 103 60  139 104 60  141 105 61  145 107 63  151 112 66  156 115 67  157 117 68  159 120 70  161 124 73  167 131 76  171 134 76  174 135 75  173 133 71  172 133 69  172 135 70  174 138 71  176 139 72  179 142 76  182 148 83  184 152 85  187 154 85  186 153 81  184 150 76  184 152 78  184 155 80  187 156 79  186 153 68  188 149 60  188 149 57  188 148 58  
212 189 101 209 187 104 201 177 99  189 160 81  179 148 70  175 140 66  171 132 59  169 130 57  163 124 52  158 119 48  154 115 47  155 117 51  158 121 57  159 122 59  158 119 57  157 117 56  157 118 58  157 120 61  157 119 61  155 115 58  158 114 56  161 115 56  165 118 60  167 122 65  168 125 69  167 124 71  163 121 69  157 116 65  153 111 62  152 111 64  153 112 65  153 113 67  149 109 65  145 108 65  143 108 65  142 108 63  142 107 62  145 109 64  152 114 68  156 116 69  155 116 69  154 116 69  155 118 70  164 128 75  172 135 78  178 140 79  177 137 74  175 135 70  174 136 69  176 139 69  177 137 69  176 136 68  172 133 68  171 133 68  172 133 69  176 135 68  180 140 66  186 154 78  192 166 90  195 171 95  198 173 89  201 174 84  207 181 92  209 183 97  
228 217 138 219 205 126 204 183 104 189 161 81  181 149 69  178 142 65  172 133 57  172 133 58  166 127 54  161 122 50  156 116 46  157 118 51  161 124 57  162 124 59  162 122 57  159 119 55  158 118 55  159 120 57  158 119 57  157 116 55  158 113 52  162 115 54  167 119 60  170 124 68  170 125 70  166 122 68  161 119 67  155 114 65  153 112 64  154 113 67  155 115 69  155 115 70  149 111 68  146 110 68  145 110 67  145 111 66  146 110 65  148 112 66  151 114 68  153 114 68  153 113 69  152 112 67  153 113 66  162 123 70  173 135 76  183 145 82  183 144 79  181 142 75  179 141 72  180 143 72  179 142 71  176 138 68  169 130 65  164 123 61  166 122 64  174 129 67  187 146 73  199 169 94  210 190 114 213 197 121 217 200 114 217 197 103 223 206 116 224 208 124 
230 222 147 219 205 126 201 179 96  189 160 80  179 146 65  178 144 63  177 141 62  174 137 59  170 133 58  167 129 55  169 132 61  168 133 62  170 135 66  169 133 63  165 126 57  164 124 56  163 124 56  165 125 59  163 123 57  163 120 56  162 116 53  165 117 56  167 120 61  170 124 67  168 123 67  163 119 65  160 117 65  155 113 65  152 111 65  153 113 68  155 115 71  155 116 73  151 114 71  149 114 71  148 114 70  148 114 68  149 113 67  150 113 68  151 112 67  151 111 67  153 112 68  154 113 68  158 116 67  167 126 70  177 139 78  187 152 87  187 153 86  186 151 82  185 149 78  188 153 82  187 153 83  184 150 81  178 143 76  169 130 69  169 127 67  175 131 67  192 155 77  205 177 96  216 196 115 214 196 115 219 202 116 220 201 108 230 215 127 232 217 131 
227 213 132 212 192 106 193 167 77  186 157 73  186 155 72  190 160 77  189 156 75  182 148 68  179 145 67  177 144 67  182 150 75  181 149 76  182 150 77  176 141 68  170 132 59  168 129 57  169 130 59  170 130 60  171 129 61  171 128 61  167 122 57  167 121 59  166 120 60  167 122 64  164 119 62  161 115 61  159 115 63  156 114 64  154 114 65  154 115 69  156 117 72  157 119 75  155 119 76  154 120 77  154 120 75  153 118 72  152 115 69  149 111 66  148 107 64  148 106 63  153 111 67  160 118 70  168 128 74  174 135 76  179 141 78  183 148 83  182 147 81  183 147 79  184 148 77  189 155 84  191 159 87  189 156 85  186 152 80  181 143 74  181 141 73  185 145 73  195 160 81  205 175 93  212 188 104 212 189 104 216 197 111 217 198 112 224 205 120 224 203 114 
217 194 104 209 183 90  196 165 72  191 160 71  187 156 71  191 161 77  190 159 76  186 155 72  186 156 76  188 158 77  193 166 87  193 164 86  193 162 86  185 150 74  177 138 62  173 133 58  175 135 62  176 134 62  177 134 64  175 131 63  171 126 61  168 123 61  165 120 60  167 121 62  165 120 63  164 119 64  164 120 67  163 120 69  161 120 70  161 120 74  162 122 76  162 123 79  162 125 81  161 125 81  161 125 79  160 124 76  157 120 72  154 114 67  149 107 61  148 104 59  152 110 64  159 119 70  168 130 75  170 133 73  172 136 73  173 137 72  172 135 69  173 134 67  176 137 67  183 147 76  187 153 80  187 153 81  185 151 76  183 145 72  176 137 66  176 136 64  180 145 68  189 156 75  195 166 82  197 169 85  206 184 101 213 193 110 219 197 112 216 190 99  
207 177 81  205 174 78  196 162 68  189 154 63  187 150 65  192 157 73  196 163 79  192 161 77  192 162 78  190 158 76  194 163 82  192 160 80  193 160 82  185 148 70  181 141 64  174 133 57  176 135 60  175 132 59  178 133 61  177 132 63  173 128 63  171 125 62  166 121 59  169 123 62  170 125 66  172 127 70  170 126 72  169 126 73  166 123 73  164 123 74  163 123 75  164 125 78  165 127 81  167 130 84  168 131 83  168 131 82  165 127 76  162 121 70  156 113 64  151 108 61  150 109 61  153 114 63  160 123 67  161 125 65  163 126 65  166 128 64  169 128 62  171 128 61  174 132 63  180 142 70  184 147 71  185 149 72  184 149 71  181 146 72  168 130 62  163 122 57  160 120 55  165 127 57  166 131 59  171 139 65  182 154 78  193 168 88  198 170 86  198 167 77  
198 164 70  198 165 71  192 155 63  189 148 59  182 137 52  187 145 60  194 158 71  194 161 73  191 158 71  186 151 66  189 154 70  189 156 73  191 158 76  188 152 72  183 144 65  175 133 56  178 134 57  178 133 57  180 134 61  179 132 62  177 130 63  176 129 64  174 127 63  178 131 69  180 134 74  180 136 78  175 131 76  172 128 77  167 124 75  167 124 76  166 124 76  167 127 79  169 129 81  171 132 84  174 135 86  176 136 86  174 133 82  171 129 76  163 120 69  155 113 63  150 108 59  148 109 56  151 113 56  154 117 58  160 123 62  166 130 66  170 132 65  176 136 67  181 143 73  185 151 78  186 151 74  190 156 77  194 162 85  185 155 83  166 130 68  152 109 52  147 102 48  145 102 46  140 100 45  138 102 46  143 110 50  151 121 54  166 134 58  178 144 60  
178 142 57  183 147 61  181 142 56  181 137 52  180 132 47  192 148 60  202 165 75  195 161 71  191 153 66  184 144 58  190 151 65  189 152 67  190 154 71  187 151 69  183 144 64  180 138 59  181 137 59  182 137 60  182 135 61  182 134 63  181 134 63  182 134 66  180 133 68  183 136 73  183 136 75  182 135 77  175 130 75  171 127 76  166 123 74  167 124 75  168 124 75  170 128 79  171 129 80  174 132 84  178 136 87  180 137 87  178 134 83  173 129 77  167 124 73  159 117 67  154 113 62  152 112 57  153 113 54  157 120 58  163 126 63  170 136 70  173 136 69  177 138 69  179 143 73  183 149 76  185 150 74  191 159 81  198 171 92  191 165 91  175 140 76  159 115 58  152 104 53  147 100 51  134 91  45  121 82  37  111 76  31  110 78  31  127 94  39  144 109 45  
140 104 41  149 112 44  156 116 44  163 120 46  173 126 48  188 145 59  200 160 70  194 157 67  189 150 62  184 144 57  189 151 64  191 156 70  195 162 78  195 164 82  190 153 73  188 148 67  187 145 65  189 144 66  188 141 66  185 137 64  186 140 67  185 141 70  184 139 71  183 137 73  181 133 72  178 130 73  172 126 73  170 125 76  170 125 77  171 127 78  172 127 77  173 128 79  173 129 80  174 129 81  175 130 81  175 128 79  174 126 76  169 122 71  166 121 71  162 119 69  163 123 69  164 127 68  165 130 66  170 136 69  173 140 72  176 144 75  176 142 73  174 140 71  176 141 72  178 143 70  183 147 73  191 160 84  199 175 98  198 174 98  186 152 83  169 124 66  156 105 54  150 100 53  136 90  47  117 76  37  98  62  28  93  60  26  106 72  33  117 83  36  
109 72  27  120 82  31  136 96  38  148 106 44  160 116 50  172 128 55  186 144 63  189 152 66  192 156 68  192 157 70  197 163 76  198 166 79  199 167 82  197 166 82  194 160 76  194 158 74  193 154 72  193 149 70  190 143 67  188 140 66  188 144 69  186 144 72  182 138 71  178 132 70  175 126 68  173 125 70  170 123 72  170 124 76  170 124 78  169 123 75  168 121 72  168 120 73  170 123 76  169 123 76  170 122 75  168 119 71  167 117 69  165 116 67  164 117 68  166 123 72  169 130 74  174 140 77  178 146 78  180 149 78  179 147 77  178 146 75  180 149 79  179 149 78  177 143 73  175 137 64  180 141 66  189 155 78  198 172 93  202 178 99  191 159 86  173 130 68  155 103 51  148 97  50  136 89  44  119 77  36  101 65  28  94  61  26  97  62  28  99  64  27  
92  54  21  103 64  25  119 80  36  133 93  43  142 100 48  150 105 48  166 122 54  183 145 66  193 159 73  201 172 84  201 173 84  204 177 89  204 175 86  203 172 84  201 169 82  200 164 77  199 162 76  198 155 73  197 154 74  196 151 73  195 152 73  190 149 74  183 139 71  178 133 71  174 127 69  174 126 71  172 125 72  173 126 75  173 127 76  170 123 72  166 118 68  164 116 67  166 119 71  165 118 71  164 116 69  161 113 66  161 112 65  162 113 66  162 115 67  165 123 72  168 129 73  170 136 75  173 140 77  174 141 77  174 139 76  173 137 72  175 141 75  180 148 78  184 151 78  185 150 72  190 155 76  193 161 81  200 174 93  205 182 100 198 170 92  180 142 75  153 106 52  141 93  46  136 92  45  132 92  44  123 86  39  112 76  34  105 68  30  102 64  28  
106 66  31  111 70  32  125 84  41  135 94  48  139 97  52  140 96  49  152 107 51  173 132 63  188 152 72  205 177 92  209 183 94  212 185 93  207 173 80  205 167 74  206 170 78  206 170 79  206 175 87  205 171 87  204 170 89  203 165 83  200 160 77  195 155 77  188 148 77  185 146 81  183 142 79  181 139 77  178 133 73  176 130 73  175 129 73  172 125 70  169 121 68  167 118 67  166 119 70  164 117 70  162 115 69  160 113 67  158 112 66  159 113 68  158 113 67  161 118 69  160 119 67  160 121 66  160 123 69  159 123 70  160 121 69  164 124 66  173 135 72  184 150 79  191 161 84  196 166 82  197 167 82  192 159 76  191 159 78  193 162 80  193 162 80  184 150 74  166 125 62  154 111 55  154 114 58  161 126 62  154 121 58  133 96  42  115 76  32  111 71  29  
119 74  35  123 77  37  133 87  44  136 92  46  139 95  49  142 98  52  154 109 58  172 128 67  186 142 70  203 168 87  209 178 91  211 181 89  206 170 75  206 165 70  211 172 79  214 179 88  214 188 100 213 188 103 211 187 103 211 180 95  206 172 87  202 169 87  197 165 89  196 164 93  193 158 89  188 151 83  181 140 74  178 135 71  177 132 71  177 131 73  175 128 73  171 123 72  166 119 70  162 115 68  159 114 68  159 114 69  157 113 68  156 113 68  155 111 67  156 112 66  154 110 64  150 107 61  146 105 60  144 103 60  146 104 59  154 113 61  168 129 68  182 146 74  192 161 81  200 171 83  202 175 88  196 166 82  190 156 75  187 152 70  188 154 70  190 158 75  183 149 74  178 140 71  184 148 78  195 165 88  194 168 91  166 132 65  140 99  45  125 80  34  
143 97  50  139 90  46  139 89  45  137 90  43  142 96  48  150 105 55  162 116 64  174 126 69  182 134 68  196 154 79  207 174 90  214 186 95  213 179 84  213 171 75  215 174 78  219 185 91  219 195 104 218 197 111 215 193 109 213 188 104 210 183 99  208 183 102 205 180 101 204 178 101 200 171 96  193 161 90  182 146 77  177 135 69  175 131 68  176 131 72  172 127 73  168 122 72  162 116 68  158 114 68  158 116 71  160 119 74  157 117 72  153 112 67  150 108 64  151 108 64  151 107 65  151 106 63  147 104 59  142 101 56  142 101 54  151 110 57  167 129 66  180 145 72  186 154 77  189 158 77  182 151 73  173 140 66  166 127 58  163 124 53  172 133 56  183 149 67  194 161 78  199 161 79  205 170 86  214 186 99  212 192 105 191 164 86  170 135 67  159 120 60  
178 140 79  165 120 63  151 99  48  142 89  38  141 91  41  149 101 51  163 115 62  175 128 70  181 132 69  190 146 72  202 166 84  214 187 99  217 189 97  216 180 85  216 176 79  221 185 90  222 194 100 220 197 106 216 194 107 214 194 109 211 190 108 206 184 103 202 177 98  201 174 95  199 170 93  193 161 89  182 146 77  175 135 69  170 127 65  169 125 68  163 119 68  157 114 68  151 108 64  150 109 64  153 113 68  159 121 75  161 123 76  159 121 72  154 114 65  155 113 65  156 114 68  156 113 66  150 108 58  143 101 50  142 99  47  147 103 49  155 113 54  160 121 57  159 121 57  159 120 54  153 114 51  148 111 51  142 105 48  140 103 46  147 109 47  160 124 58  178 144 70  190 153 73  201 166 81  212 183 93  214 192 101 200 176 89  189 160 79  185 154 78  
200 174 93  186 149 74  169 119 54  154 98  40  147 92  40  148 96  45  155 105 51  166 117 59  170 122 59  178 133 61  188 151 71  200 171 86  206 179 90  209 176 84  212 175 77  218 184 84  220 189 91  216 188 95  211 182 94  206 179 95  202 176 93  197 169 88  194 163 82  194 160 80  196 161 83  193 159 85  185 149 79  176 137 71  167 126 65  162 121 65  153 112 64  146 107 65  143 104 64  148 110 66  156 119 70  166 130 77  173 137 84  173 135 80  167 127 72  164 122 67  163 122 70  158 117 66  153 111 60  147 105 52  149 104 51  150 102 48  148 100 44  146 101 45  145 101 48  146 102 49  139 95  46  128 87  41  124 84  41  125 85  40  133 92  41  142 101 47  153 113 54  164 124 59  176 138 63  190 156 72  192 163 76  189 161 77  192 166 82  201 176 92  
210 187 97  201 170 81  190 146 66  175 120 51  165 110 51  157 105 49  155 107 49  156 107 48  158 109 48  167 122 52  180 140 61  191 157 73  194 163 76  195 163 74  199 165 72  207 175 78  211 180 83  209 178 86  206 176 87  204 175 88  199 170 85  193 162 78  190 154 73  191 153 71  193 157 77  193 159 83  188 155 83  180 145 76  170 133 70  161 125 68  150 114 67  145 111 68  149 115 69  159 123 68  166 129 67  175 138 74  184 147 86  188 149 87  185 142 79  178 134 71  173 130 71  163 122 67  158 117 64  155 111 60  156 110 59  155 105 52  151 100 46  148 98  46  148 100 52  148 100 52  143 97  51  131 87  45  127 84  44  127 82  41  133 86  41  138 91  44  140 95  46  144 100 47  151 110 50  160 120 51  164 126 55  158 122 54  165 132 63  173 142 70  
195 164 74  199 165 74  199 160 71  192 146 65  183 137 64  172 127 60  164 121 55  159 113 49  160 112 48  171 126 55  185 145 63  195 162 74  191 158 70  182 149 65  180 146 60  184 150 63  193 158 69  199 164 74  205 172 79  206 177 83  204 177 85  202 172 83  199 164 76  196 156 69  194 155 71  191 156 76  188 155 80  181 148 77  172 139 72  163 131 71  157 127 74  162 135 80  173 145 84  180 147 77  179 141 68  182 140 69  189 146 79  192 147 82  191 143 78  185 137 73  180 135 75  169 126 70  164 122 69  161 118 68  162 116 66  160 111 58  157 106 50  159 109 53  164 115 63  161 113 62  150 104 56  137 93  48  135 92  49  140 94  48  148 98  49  150 100 49  148 97  49  148 99  49  151 104 50  153 108 50  149 105 49  144 102 49  149 109 55  155 115 58  
173 132 60  181 143 65  188 151 67  190 150 65  185 143 65  171 129 59  160 118 53  149 105 44  154 106 45  169 123 56  187 146 67  197 163 75  195 162 73  187 154 69  180 147 64  174 139 60  173 137 59  184 148 65  201 169 76  217 192 96  221 198 102 217 191 96  213 181 84  207 170 76  200 164 75  191 156 74  186 154 75  181 150 75  174 143 71  170 138 70  173 144 77  189 162 86  196 168 87  193 157 73  181 139 63  176 131 61  181 135 70  185 138 76  189 140 79  187 139 80  183 137 80  176 132 76  170 126 73  166 123 72  165 120 70  165 116 63  163 111 56  165 113 57  166 116 61  158 109 57  150 103 53  143 100 51  143 101 54  151 109 58  156 110 59  160 112 60  156 106 55  157 106 53  156 106 52  152 105 51  143 97  47  138 93  46  137 93  45  139 95  47  
159 114 55  168 127 62  180 143 69  185 149 68  177 138 60  161 117 51  151 105 47  149 101 47  153 104 47  165 118 53  182 142 66  193 157 72  195 162 75  185 153 70  184 156 77  174 142 69  169 131 63  170 130 56  191 156 70  214 189 92  225 201 99  218 189 88  210 175 74  201 164 70  194 156 69  184 146 63  174 138 57  169 136 58  167 133 57  171 135 60  186 152 71  205 174 81  203 171 80  187 148 68  165 120 56  161 113 54  168 120 62  176 130 74  184 138 84  186 141 89  186 141 90  182 137 84  175 131 77  169 124 73  166 119 70  167 117 66  168 116 61  171 118 61  168 116 61  160 109 57  152 104 53  151 108 55  155 112 60  167 125 70  167 122 69  167 121 69  162 113 63  166 115 63  165 114 60  160 112 58  150 102 52  146 100 52  145 98  49  146 99  50  
149 103 55  154 111 58  168 132 67  173 137 63  164 122 51  145 95  38  138 83  37  139 85  41  142 88  41  148 99  42  168 125 56  178 137 58  187 150 67  184 148 67  196 171 94  189 162 89  173 138 75  158 116 51  178 139 63  206 179 86  222 195 90  211 177 74  201 160 61  192 153 63  187 150 66  179 141 59  166 130 49  162 127 48  162 127 48  173 134 55  192 153 63  207 169 69  197 157 64  175 132 58  152 104 49  151 103 51  159 113 62  173 130 79  185 143 94  187 145 98  185 143 96  182 138 88  177 132 80  170 125 74  167 119 71  168 117 67  172 119 66  175 121 65  170 117 62  165 112 58  158 108 55  162 115 60  168 121 66  181 135 78  178 131 77  172 126 74  165 117 67  168 119 67  163 115 62  154 107 57  147 101 54  144 98  52  146 98  50  144 96  48  
