P3
64 64
255
255 32  4   255 73  20  231 101 33  184 97  32  108 52  13  114 24  2   194 12  0   255 7   0   255 27  5   240 82  27  244 148 60  251 157 43  249 162 49  243 116 23  253 136 34  248 138 51  243 145 56  221 128 49  212 112 35  217 114 38  196 81  24  187 46  8   205 29  1   255 15  0   255 13  1   170 12  2   152 14  2   176 13  2   193 14  1   223 17  1   253 23  1   242 7   0   230 21  3   167 52  19  100 14  3   145 10  1   246 16  0   250 22  3   164 31  8   126 53  20  196 76  21  252 117 29  250 116 29  219 122 27  192 84  18  240 98  17  253 103 22  253 129 30  247 121 26  251 136 24  249 143 35  209 98  16  174 48  8   221 14  1   255 17  1   243 58  11  225 110 37  225 140 42  240 140 39  247 137 22  231 147 50  165 81  22  182 43  8   237 22  2   
255 22  2   191 41  11  110 39  12  79  27  8   84  15  2   154 12  0   229 4   0   252 4   0   173 23  4   145 54  16  171 104 40  210 120 35  218 144 48  221 114 27  246 151 52  239 152 63  211 144 61  164 98  31  177 79  17  189 78  16  168 53  16  198 31  6   251 28  3   255 31  4   215 35  8   106 24  8   139 17  4   212 13  2   247 10  2   246 16  2   226 25  3   201 10  0   210 24  4   221 80  26  159 56  17  181 36  6   226 28  2   180 28  7   124 36  12  138 63  26  193 85  27  255 128 44  253 137 48  238 141 42  239 105 25  253 137 38  254 115 39  251 139 47  247 112 35  251 148 37  248 141 34  231 108 17  204 61  11  248 25  3   212 14  1   157 41  10  193 69  17  230 108 29  253 135 41  242 149 46  181 105 35  143 51  11  202 26  2   255 12  0   
255 13  1   157 14  3   78  8   2   103 8   0   168 8   0   216 10  0   251 7   0   235 6   0   178 20  3   152 43  11  170 76  29  186 87  24  213 126 42  206 107 26  220 124 39  185 93  28  159 78  22  162 60  9   198 55  2   208 51  4   209 34  6   236 33  6   255 52  9   255 69  16  228 70  18  162 59  19  202 51  11  253 45  10  254 31  8   198 34  8   162 29  5   197 16  1   255 37  5   255 103 28  244 114 36  227 72  13  222 41  4   188 28  4   149 40  12  167 67  25  202 101 43  244 121 45  254 137 48  249 133 32  254 115 11  254 158 37  250 133 38  249 138 39  249 111 23  253 143 30  246 144 43  231 116 31  223 77  22  223 31  5   141 12  2   128 27  7   205 61  17  252 113 30  246 152 51  211 110 36  130 44  11  168 24  2   240 15  0   255 7   0   
234 5   0   162 3   0   112 6   0   165 14  1   253 29  1   254 33  1   254 31  1   234 16  0   195 17  1   192 30  2   208 56  6   208 67  7   215 101 21  198 98  20  210 102 20  210 85  13  217 79  12  203 60  4   215 47  4   254 37  5   237 39  8   250 59  15  255 86  23  255 111 35  246 108 34  230 102 29  224 78  16  254 65  14  219 48  14  181 48  12  148 37  8   199 23  2   255 54  11  255 132 44  253 152 53  241 124 42  217 74  22  203 41  10  205 47  12  217 70  17  235 105 34  239 107 32  253 137 44  253 153 50  254 147 37  250 170 59  228 121 38  226 130 45  241 121 30  250 158 43  239 142 41  215 107 26  197 68  17  193 29  5   152 10  1   178 21  3   221 50  11  233 86  16  202 101 37  133 54  19  129 22  5   220 11  0   254 7   0   239 5   0   
217 4   0   162 6   1   142 23  6   233 52  15  255 86  22  255 109 36  254 86  20  230 45  8   223 25  1   226 29  3   234 47  4   237 62  5   206 63  2   190 66  2   205 63  3   211 62  7   224 54  9   243 40  9   255 29  6   255 40  8   254 62  12  250 92  21  255 102 23  255 111 25  250 114 32  244 120 31  219 109 31  239 82  18  229 70  16  215 63  12  165 38  8   190 24  2   213 47  9   229 101 32  238 132 47  247 136 50  229 108 39  208 61  18  219 55  15  231 78  22  241 113 39  238 117 36  254 121 26  252 136 34  243 132 26  215 134 37  188 95  21  220 99  26  237 103 25  241 124 30  202 117 33  184 89  23  173 56  14  170 21  2   172 7   0   214 12  1   241 34  5   239 42  4   219 38  7   155 16  3   170 7   0   207 1   0   236 2   0   220 3   0   
248 9   0   199 22  4   175 44  13  208 82  31  255 121 41  255 160 63  254 140 35  234 89  20  231 40  3   255 23  2   238 22  1   228 34  3   194 35  2   206 37  0   223 34  0   233 31  3   246 22  4   222 15  4   214 22  6   233 57  16  249 95  23  253 122 31  241 104 26  233 92  22  235 90  24  224 104 33  185 90  32  187 66  19  219 71  20  220 64  17  162 36  10  153 20  2   191 45  8   235 90  28  246 126 55  254 162 74  240 150 72  205 93  38  211 60  18  229 64  13  236 81  11  243 102 17  254 111 12  254 141 29  248 128 25  204 113 28  189 82  16  244 111 37  254 126 45  251 135 43  234 104 20  213 83  14  200 47  7   212 22  1   236 3   0   245 4   0   255 13  0   255 20  1   255 25  4   192 18  4   185 12  1   162 4   0   198 2   0   219 3   0   
255 27  3   250 59  16  198 77  29  213 101 40  237 119 43  252 177 83  252 181 65  235 147 59  228 63  14  255 24  4   225 4   0   234 8   0   210 16  1   236 23  1   234 21  1   220 14  2   198 9   2   188 10  4   197 28  8   241 77  18  254 113 30  242 113 29  217 83  21  213 65  9   235 66  10  204 72  20  140 52  16  141 38  10  191 42  9   195 36  10  146 15  4   129 11  1   192 30  3   255 75  13  255 119 48  253 157 60  245 150 60  197 92  29  196 55  16  232 47  11  249 69  11  255 96  17  255 122 17  254 146 29  253 139 29  223 118 22  240 98  14  254 117 24  252 135 42  247 130 38  246 120 27  234 118 31  223 63  13  240 23  2   254 4   0   255 8   0   242 18  1   251 32  4   250 45  9   193 47  13  167 34  8   141 16  3   192 8   0   246 12  0   
255 63  6   254 83  10  229 90  17  227 87  10  239 101 15  250 115 30  249 142 42  232 138 52  214 64  17  246 22  4   197 2   0   231 7   1   234 23  4   234 40  8   211 43  8   192 27  3   198 17  2   212 13  2   211 34  8   240 81  19  248 126 48  215 98  36  177 71  27  190 60  13  232 62  10  195 46  12  127 21  5   134 15  3   211 19  2   228 15  2   196 4   0   155 7   0   226 28  0   255 82  8   255 151 57  254 197 82  242 173 79  206 101 39  214 62  20  243 36  9   245 51  10  240 72  15  255 107 22  255 148 40  253 145 37  239 129 31  239 112 23  248 146 43  242 144 46  243 120 32  248 110 28  236 118 40  220 72  25  213 23  5   237 8   1   254 20  1   251 44  5   245 66  13  250 91  25  221 92  25  208 63  10  190 33  4   233 23  1   255 40  2   
255 108 18  255 110 17  249 123 30  251 106 19  250 126 26  252 132 35  249 151 45  229 127 50  201 63  21  187 21  6   128 6   1   171 20  5   182 50  14  184 71  20  187 69  17  195 44  6   226 30  2   243 18  2   255 31  6   252 58  12  181 66  24  115 41  15  126 39  13  176 40  4   224 42  5   194 23  3   142 6   0   164 7   0   230 13  1   255 14  2   239 8   1   181 6   0   238 20  0   255 68  11  255 133 46  248 174 62  223 142 52  211 97  28  219 65  20  244 39  11  255 47  13  230 58  16  244 82  22  246 126 44  240 149 60  217 127 48  200 100 34  221 86  23  214 91  25  239 93  20  242 125 33  222 107 37  188 58  20  190 22  6   246 24  4   254 53  9   254 82  14  255 100 17  245 109 17  234 101 18  216 69  9   230 44  7   255 47  3   255 78  5   
242 132 26  227 107 19  236 108 18  244 114 21  247 133 32  246 124 26  230 112 26  203 76  15  166 40  11  90  16  5   69  17  6   119 37  11  169 73  24  167 90  27  177 88  23  186 61  9   234 39  4   255 19  2   255 14  2   162 23  5   104 23  6   96  18  5   140 20  4   197 23  2   238 25  3   228 20  2   236 17  2   246 24  1   255 34  4   255 38  4   241 35  5   183 18  1   226 18  0   255 37  4   232 70  20  228 109 38  213 123 51  219 102 39  199 75  31  206 47  16  225 50  19  193 47  18  210 56  19  223 75  22  212 91  30  191 87  28  181 73  23  220 71  16  232 87  20  228 85  19  208 96  28  159 61  21  158 41  12  208 37  10  250 61  17  254 97  29  255 126 37  253 133 35  240 120 26  217 81  18  219 42  6   229 36  7   254 67  9   255 118 24  
201 114 29  207 96  23  249 106 13  250 127 23  244 126 31  234 106 22  216 77  13  209 51  7   161 26  6   100 21  7   136 34  10  172 58  14  205 74  15  202 89  17  187 70  9   182 58  4   208 33  3   236 12  1   180 2   0   87  6   2   85  10  2   134 13  2   200 15  1   247 15  0   254 22  1   255 35  3   255 55  9   255 74  14  254 86  23  255 85  17  220 75  14  178 48  6   209 34  2   252 34  3   221 42  9   211 61  16  200 78  27  204 73  19  181 66  23  188 50  13  215 57  19  172 41  13  182 36  9   205 44  7   193 58  14  182 62  16  183 65  21  214 59  10  213 66  11  187 55  8   184 53  13  194 41  9   243 47  8   251 68  15  255 108 35  255 137 50  255 158 61  233 129 42  211 87  23  176 40  9   173 16  2   197 28  6   255 74  11  246 135 42  
201 106 28  223 103 26  251 119 28  251 166 56  229 145 55  188 88  28  179 43  6   184 22  2   159 15  2   169 33  6   201 49  9   214 74  14  255 91  19  255 124 30  231 94  18  227 75  8   214 41  3   190 11  2   100 3   0   76  9   3   121 16  3   200 19  2   244 18  1   255 18  1   255 36  4   254 66  10  255 104 26  255 128 40  255 123 37  249 116 28  221 96  10  203 76  5   221 63  2   240 52  4   212 31  4   209 25  3   204 34  7   200 45  9   181 61  19  182 60  14  202 63  19  169 36  9   196 22  4   229 20  2   219 23  2   183 25  3   186 33  5   216 40  6   198 41  6   153 28  5   202 29  4   255 44  10  255 82  17  255 118 33  247 130 41  210 114 44  174 90  37  112 47  17  105 24  6   103 9   1   136 8   1   183 29  4   251 78  9   246 144 43  
205 120 41  228 118 43  239 111 36  232 106 33  200 83  31  159 42  11  171 18  2   211 9   0   219 21  3   243 53  11  243 74  13  255 101 13  255 121 26  254 144 35  251 108 27  220 73  12  183 38  4   144 13  1   99  6   1   121 15  4   192 28  6   244 32  5   255 23  4   255 26  4   210 50  10  218 75  11  239 108 29  246 142 51  248 154 59  249 162 58  241 140 42  235 118 27  233 98  11  215 68  9   182 37  6   175 17  2   197 13  1   199 22  1   184 35  5   178 38  5   197 39  5   183 26  3   231 16  1   254 13  1   221 11  1   204 12  1   228 15  1   255 17  1   202 15  1   164 13  1   236 22  2   255 50  11  245 87  21  209 107 35  175 77  21  147 51  16  133 26  6   124 12  3   145 5   1   155 4   0   181 8   0   213 34  3   251 80  6   241 139 36  
194 87  24  189 81  22  172 62  17  177 55  14  182 44  14  167 28  6   197 15  1   240 16  0   255 39  4   255 78  12  255 114 28  255 119 14  253 147 28  251 158 40  240 142 48  211 83  23  180 37  6   160 13  1   160 11  1   204 18  3   240 25  4   255 24  5   249 16  4   200 20  5   170 46  12  198 75  15  237 96  16  230 107 23  222 110 29  217 129 40  204 126 41  198 107 25  197 92  11  193 68  6   180 40  3   189 20  1   198 9   0   193 9   0   168 17  2   184 23  3   207 28  2   230 27  3   255 24  3   239 23  5   190 19  3   204 16  2   254 13  1   255 9   1   208 8   1   175 11  2   227 21  2   212 43  10  188 54  11  163 54  15  153 33  5   179 25  5   199 15  3   197 8   2   179 4   1   197 3   0   223 8   0   218 32  2   204 59  4   215 97  18  
133 39  8   152 34  7   178 27  5   211 18  1   217 15  1   166 15  1   193 14  1   255 22  2   255 53  13  255 106 38  254 161 61  254 149 30  249 164 43  239 116 26  197 95  29  177 55  11  177 31  5   180 15  0   223 14  1   242 17  2   249 21  5   232 17  4   201 9   2   184 11  2   173 32  7   199 63  14  231 86  15  251 105 19  249 101 20  219 109 26  185 92  29  177 91  21  181 79  10  205 63  0   204 46  3   223 27  1   238 15  0   229 12  0   211 20  1   238 29  2   245 36  4   253 38  6   255 51  9   237 58  13  196 51  10  208 38  6   241 26  4   233 13  2   152 8   1   131 10  2   165 17  3   186 27  6   192 27  4   212 27  5   222 21  3   246 28  3   255 35  5   255 36  7   204 20  4   227 9   1   255 6   1   196 16  2   146 24  4   145 35  4   
213 21  0   227 23  1   249 25  2   255 18  1   241 13  1   171 13  1   208 15  1   250 20  1   227 39  8   216 80  23  237 131 48  236 142 51  214 135 55  160 77  26  171 55  15  196 35  5   223 30  4   226 28  2   255 40  6   249 42  6   229 40  6   208 26  4   207 15  2   228 12  1   221 24  3   216 51  10  245 83  16  253 114 24  255 115 21  251 120 19  223 93  10  230 96  6   219 82  4   234 70  0   212 53  3   237 29  1   246 20  0   255 30  1   255 50  3   255 52  6   248 63  13  247 62  14  254 89  21  241 90  21  233 89  17  224 58  10  244 37  7   217 16  3   159 9   1   164 13  2   193 18  2   212 17  2   237 17  1   251 18  2   255 31  4   255 56  8   255 86  23  239 90  28  192 58  17  209 22  3   242 6   1   189 3   0   134 7   1   165 13  0   
255 42  7   254 57  12  254 71  19  255 54  11  203 39  7   164 23  2   200 18  1   196 12  1   151 19  4   143 41  11  175 74  23  171 76  23  137 57  20  133 29  7   194 22  3   246 24  2   244 42  6   242 63  13  255 74  17  246 67  15  242 58  8   244 46  8   254 38  5   255 28  3   232 22  3   193 28  6   228 57  11  247 105 28  250 135 45  250 150 45  246 113 28  240 118 30  230 104 31  217 71  15  216 41  5   229 20  1   242 25  2   255 49  4   254 90  14  255 96  17  242 112 31  217 80  20  235 98  21  237 93  18  244 101 17  229 71  14  234 36  6   206 14  1   175 11  1   192 23  3   223 41  9   253 40  6   255 31  4   255 31  4   254 54  9   255 91  19  242 117 28  224 128 42  145 67  22  137 27  8   194 10  2   224 4   1   174 10  2   200 20  2   
255 82  22  255 99  38  254 108 37  197 80  21  192 59  12  214 47  5   242 35  3   233 17  0   177 11  0   175 18  1   189 29  3   171 29  5   153 20  5   197 14  1   247 15  1   255 29  3   235 55  10  231 83  19  240 100 32  239 92  28  230 73  15  244 61  11  255 72  15  242 63  15  211 42  8   206 26  4   234 35  4   254 73  16  251 103 31  240 122 39  227 112 34  224 96  27  236 79  24  245 50  10  211 26  5   202 15  2   202 29  5   255 60  8   255 119 23  252 132 29  244 126 30  208 95  19  238 91  7   246 97  14  232 95  18  224 62  13  200 28  5   187 14  1   214 19  2   254 43  5   252 65  14  215 55  7   205 42  5   197 35  2   211 55  6   219 86  14  235 112 27  202 110 36  139 57  17  171 25  4   216 13  2   254 17  2   226 39  7   245 57  10  
255 145 62  252 142 58  230 106 37  199 85  22  220 73  11  247 85  7   255 73  14  234 38  7   191 13  2   212 12  0   239 14  0   241 13  0   226 12  0   247 13  0   255 19  1   255 38  7   217 61  20  236 78  24  249 86  30  228 71  19  207 61  12  231 64  11  247 89  17  213 91  21  189 64  11  213 47  8   255 35  6   255 43  9   207 46  13  173 49  14  185 51  16  220 54  17  226 53  18  166 35  12  133 20  5   137 12  2   168 26  6   237 53  10  253 115 28  241 125 30  241 136 37  229 120 33  241 102 11  224 85  10  228 64  11  202 40  8   151 21  4   150 15  1   213 23  4   255 52  12  235 91  30  195 69  15  185 47  5   181 30  1   200 45  3   210 73  13  208 80  17  176 71  21  162 37  7   209 26  4   251 18  2   255 38  4   238 72  18  217 105 34  
230 114 34  230 102 31  229 90  16  241 83  10  252 87  8   255 111 16  254 100 26  215 55  13  172 19  4   207 11  0   255 11  0   255 11  0   241 19  1   255 29  2   255 35  4   255 48  9   240 62  18  255 78  20  255 93  32  244 90  24  219 70  16  231 60  9   243 84  18  217 98  18  193 83  12  204 65  8   216 41  7   197 20  4   98  7   2   84  10  2   129 21  4   174 37  8   176 52  14  126 49  16  111 35  9   150 23  5   206 25  4   236 38  6   243 79  20  233 86  22  226 102 27  215 98  28  214 80  15  216 56  10  201 33  5   168 23  3   160 26  4   183 29  4   243 36  6   255 49  12  220 65  16  176 55  12  195 42  2   214 26  0   234 32  0   234 48  6   230 56  10  223 45  7   224 29  3   250 20  1   255 30  3   255 59  10  233 95  24  219 102 32  
242 127 35  249 113 27  250 106 25  247 106 29  248 116 32  253 122 24  240 127 35  192 74  23  167 31  10  198 15  2   248 15  1   242 15  2   202 26  3   234 41  4   250 52  6   254 60  13  238 80  29  255 93  37  255 114 48  241 111 41  211 87  27  245 70  16  254 90  18  252 103 19  230 102 14  217 71  4   207 50  7   184 20  4   109 3   1   118 9   1   202 30  3   241 64  12  231 100 32  194 98  37  170 66  17  196 43  5   235 36  4   255 30  4   255 43  11  237 49  13  212 60  19  209 53  16  201 36  9   169 18  3   148 13  1   172 26  3   217 44  7   220 58  14  241 51  10  243 48  12  218 47  10  214 47  8   229 39  2   240 27  2   245 25  2   251 34  8   244 38  12  249 32  10  221 17  5   255 18  3   236 40  8   226 68  14  231 100 25  225 125 42  
221 99  12  245 102 16  243 114 25  226 103 30  219 108 32  231 101 25  232 101 22  187 63  15  181 30  5   213 19  2   241 18  1   215 15  1   188 23  3   227 39  5   255 58  8   255 65  10  242 74  16  244 85  22  249 121 44  238 130 52  222 105 37  251 82  18  255 114 32  242 133 46  216 112 37  205 76  13  216 58  7   229 30  4   190 10  1   212 23  3   247 61  6   255 106 9   239 117 22  210 102 24  206 95  28  216 64  10  242 43  8   255 20  4   255 14  4   194 12  3   156 13  3   168 12  3   149 11  3   124 6   1   146 12  2   196 28  2   239 56  5   236 77  17  225 57  8   232 36  5   241 22  2   241 26  3   242 29  4   237 29  6   244 28  4   255 32  7   230 28  9   199 19  7   168 11  3   196 14  2   160 33  9   159 64  17  201 99  26  211 110 29  
234 101 17  250 109 21  251 112 32  233 121 40  216 107 35  213 92  21  209 74  17  211 59  16  222 39  10  248 31  5   246 22  2   221 11  1   213 15  1   245 33  3   255 65  8   254 94  18  255 110 30  255 110 31  254 131 45  228 120 47  201 103 39  232 92  26  254 119 34  230 122 44  200 96  34  225 71  12  219 61  6   254 37  5   247 18  2   255 44  8   254 93  22  250 138 38  244 142 44  233 110 27  242 117 32  219 81  11  243 46  7   255 16  2   202 5   1   106 5   1   121 9   2   186 16  3   186 22  6   163 14  2   183 16  3   225 26  2   239 47  4   233 58  8   245 49  6   255 32  4   255 22  2   255 20  2   237 24  3   224 31  5   244 40  5   243 48  12  192 39  12  144 24  7   147 17  3   176 19  4   156 35  10  158 53  14  209 72  11  215 100 22  
252 102 13  250 116 26  253 124 34  254 151 48  228 107 26  200 71  17  206 46  9   225 39  8   221 42  10  205 33  5   201 20  2   199 6   0   239 10  0   255 30  4   255 72  14  255 128 44  237 141 57  241 137 51  243 141 50  214 118 42  188 88  35  197 78  23  228 97  29  210 117 38  209 103 32  237 105 25  238 81  19  229 35  7   186 16  2   223 44  10  236 99  32  232 138 50  210 112 28  222 100 14  230 106 20  212 70  17  240 34  7   218 12  2   164 10  2   122 14  3   164 25  6   221 42  6   222 57  16  196 34  7   225 24  3   254 18  0   255 32  2   255 47  7   255 48  10  213 37  8   183 35  7   184 37  9   183 36  10  191 36  9   217 42  8   193 45  10  176 38  9   186 33  8   251 37  5   249 42  6   168 36  6   169 49  11  244 81  14  244 118 26  
244 123 40  241 124 40  247 130 47  245 162 68  200 107 42  193 59  18  238 37  7   249 34  5   251 50  11  210 36  6   196 18  2   202 6   0   248 11  1   255 27  4   255 57  11  198 107 41  182 123 57  199 126 56  237 129 45  237 130 43  198 94  34  205 82  24  225 83  18  222 95  18  228 87  12  233 87  19  183 48  11  123 12  3   130 9   1   195 30  6   203 66  20  198 84  27  204 90  22  226 90  14  211 74  8   206 39  6   228 17  1   217 17  2   179 27  6   177 50  15  220 71  18  240 88  16  238 87  16  199 51  7   206 25  2   219 17  1   253 30  2   230 52  11  177 62  19  139 56  17  169 62  15  205 71  16  221 71  19  203 56  14  186 43  10  179 37  10  221 38  6   255 55  13  255 88  21  211 94  33  148 55  18  174 44  9   242 69  10  229 112 31  
206 75  20  193 69  18  210 78  23  200 85  30  169 66  24  209 50  14  255 54  15  253 60  15  254 68  21  201 35  8   190 13  1   222 8   0   255 12  0   255 16  3   185 26  7   96  45  20  95  53  27  145 74  32  215 113 42  246 157 64  210 127 53  209 94  28  226 85  16  231 84  14  222 72  12  215 47  12  137 19  5   124 5   1   186 6   0   231 19  1   250 43  7   218 55  12  196 52  8   175 41  4   178 29  3   211 16  2   254 17  1   255 44  8   221 72  23  194 88  32  197 86  26  223 92  16  232 80  13  210 54  5   188 34  4   179 32  4   189 45  8   192 65  16  182 73  22  172 68  17  208 73  11  243 101 20  254 119 34  223 95  28  185 52  11  204 32  5   255 44  6   255 93  28  242 135 51  170 103 38  116 46  13  157 34  4   244 47  6   210 64  13  
141 25  7   154 29  7   189 36  6   203 37  9   187 40  13  223 55  19  248 80  29  255 88  27  255 69  22  197 28  6   171 8   1   213 9   1   230 14  1   244 19  2   190 17  3   126 21  5   133 29  8   189 53  10  236 90  15  241 122 29  191 106 32  179 80  21  193 74  15  203 51  6   195 38  5   181 21  4   171 14  2   206 15  2   253 18  1   255 25  3   239 25  3   212 23  4   195 18  2   190 13  1   221 11  0   253 17  0   255 41  2   255 84  17  213 118 46  192 109 45  194 86  29  214 82  16  226 62  10  216 45  6   168 43  6   169 52  9   187 57  10  231 66  5   241 82  10  241 94  15  245 99  14  255 125 27  250 132 37  196 96  32  167 53  13  228 43  8   255 61  13  244 116 43  215 137 62  160 100 44  161 62  19  196 39  5   253 25  2   189 18  3   
139 11  1   166 18  3   221 28  4   238 30  7   219 38  11  200 53  18  186 72  26  186 66  21  162 44  15  146 19  5   134 9   2   184 14  2   235 25  2   255 44  4   255 51  9   209 41  10  200 34  8   228 42  3   237 65  8   216 73  20  163 57  20  177 44  13  197 36  6   200 27  1   196 28  3   222 33  6   255 56  13  255 70  20  255 74  19  195 47  13  123 16  3   141 5   0   167 0   0   190 1   0   249 12  0   255 45  3   255 101 18  245 143 43  204 128 50  164 87  31  193 82  25  216 65  12  246 52  8   250 51  5   211 66  12  209 70  13  229 73  14  254 80  3   255 107 20  255 114 23  253 113 25  254 122 27  253 130 38  238 106 32  214 64  14  238 52  9   248 70  16  222 114 42  203 120 49  189 104 39  203 74  18  231 49  6   254 19  1   196 6   0   
208 32  4   243 41  7   248 51  9   237 55  13  200 59  18  210 59  17  172 48  13  164 30  4   132 20  3   148 17  3   147 22  4   175 31  4   234 52  8   255 83  14  255 105 28  238 89  28  191 48  13  233 35  5   255 36  2   220 29  3   171 19  2   190 15  2   218 15  1   210 20  2   236 42  3   252 66  10  254 104 28  255 133 43  242 145 59  158 87  33  102 26  7   142 8   0   185 0   0   225 7   0   255 36  2   255 83  9   255 155 45  238 176 71  186 117 42  168 74  16  189 58  7   224 56  9   254 60  12  242 78  20  216 90  23  218 84  15  253 84  3   255 103 3   255 131 25  244 126 27  218 119 26  231 109 20  253 140 47  246 131 55  225 99  37  224 71  16  238 70  12  221 98  23  217 108 33  225 122 41  222 90  31  243 62  16  226 29  5   207 18  2   
255 71  6   253 61  6   255 82  18  236 82  22  216 76  25  221 54  12  182 34  7   175 19  2   195 24  3   241 38  6   251 62  13  217 70  18  238 76  18  249 114 36  248 143 56  226 146 58  170 76  27  222 54  7   255 47  4   231 30  5   177 10  1   183 2   0   200 5   0   219 24  2   254 61  3   255 120 21  255 154 45  251 187 59  246 159 57  183 108 35  140 44  11  187 16  1   229 4   0   253 17  0   255 66  8   255 118 22  249 156 50  203 139 56  168 94  32  181 73  14  199 50  2   245 47  2   255 70  11  243 102 24  230 106 26  224 92  14  250 102 8   248 121 9   245 132 30  231 108 19  206 97  19  223 79  1   253 114 25  247 116 33  223 95  27  184 61  13  218 57  9   225 85  11  247 107 20  235 120 30  187 76  21  218 57  14  229 51  12  249 45  5   
253 140 23  238 67  16  245 63  17  219 66  18  221 64  17  243 45  7   218 26  4   174 20  2   226 39  5   255 68  12  255 102 24  234 122 39  208 89  26  227 98  29  225 96  25  218 123 36  187 97  30  246 97  18  255 99  20  216 67  13  151 20  3   157 4   0   210 7   0   255 46  6   254 95  21  255 148 36  252 152 49  244 156 38  238 153 55  211 122 43  177 64  18  216 25  3   255 14  0   254 38  4   255 93  17  254 123 19  244 133 33  174 94  27  157 62  16  182 44  9   224 34  4   254 53  8   255 94  18  246 139 36  239 137 39  234 113 26  252 106 11  250 105 6   252 116 16  251 116 23  248 119 26  243 100 17  250 124 26  235 114 29  203 90  22  190 48  10  220 41  7   227 70  15  236 87  17  211 93  23  154 52  11  194 51  13  253 78  26  255 102 27  
253 172 41  211 22  4   139 12  2   153 18  3   234 26  3   255 24  3   217 24  4   147 35  10  232 68  15  255 112 34  254 142 47  230 156 64  184 89  35  223 93  29  251 87  18  253 121 26  232 117 32  250 127 23  240 137 33  188 95  20  117 33  5   152 7   0   219 12  0   255 61  7   255 128 37  254 173 51  249 150 48  242 149 40  239 156 60  198 116 45  169 57  16  223 25  3   255 22  1   255 61  10  255 125 36  252 171 62  217 120 37  149 58  13  181 33  3   232 20  1   255 27  3   255 62  11  255 116 24  250 131 18  239 129 23  223 106 16  251 121 20  253 137 36  255 151 47  248 147 52  248 142 44  233 118 36  222 99  22  185 64  7   181 42  3   217 25  2   255 20  2   254 33  5   222 46  7   182 48  10  147 35  5   178 35  4   220 48  11  255 147 51  
230 21  3   167 52  19  100 14  3   145 10  1   246 16  0   250 22  3   164 31  8   126 53  20  196 76  21  252 117 29  250 116 29  219 122 27  192 84  18  240 98  17  253 103 22  253 129 30  247 121 26  251 136 24  249 143 35  209 98  16  174 48  8   221 14  1   255 17  1   243 58  11  225 110 37  225 140 42  240 140 39  247 137 22  231 147 50  165 81  22  182 43  8   237 22  2   255 32  4   255 73  20  231 101 33  184 97  32  108 52  13  114 24  2   194 12  0   255 7   0   255 27  5   240 82  27  244 148 60  251 157 43  249 162 49  243 116 23  253 136 34  248 138 51  243 145 56  221 128 49  212 112 35  217 114 38  196 81  24  187 46  8   205 29  1   255 15  0   255 13  1   170 12  2   152 14  2   176 13  2   193 14  1   223 17  1   253 23  1   242 7   0   
210 24  4   221 80  26  159 56  17  181 36  6   226 28  2   180 28  7   124 36  12  138 63  26  193 85  27  255 128 44  253 137 48  238 141 42  239 105 25  253 137 38  254 115 39  251 139 47  247 112 35  251 148 37  248 141 34  231 108 17  204 61  11  248 25  3   212 14  1   157 41  10  193 69  17  230 108 29  253 135 41  242 149 46  181 105 35  143 51  11  202 26  2   255 12  0   255 22  2   191 41  11  110 39  12  79  27  8   84  15  2   154 12  0   229 4   0   252 4   0   173 23  4   145 54  16  171 104 40  210 120 35  218 144 48  221 114 27  246 151 52  239 152 63  211 144 61  164 98  31  177 79  17  189 78  16  168 53  16  198 31  6   251 28  3   255 31  4   215 35  8   106 24  8   139 17  4   212 13  2   247 10  2   246 16  2   226 25  3   201 10  0   
255 37  5   255 103 28  244 114 36  227 72  13  222 41  4   188 28  4   149 40  12  167 67  25  202 101 43  244 121 45  254 137 48  249 133 32  254 115 11  254 158 37  250 133 38  249 138 39  249 111 23  253 143 30  246 144 43  231 116 31  223 77  22  223 31  5   141 12  2   128 27  7   205 61  17  252 113 30  246 152 51  211 110 36  130 44  11  168 24  2   240 15  0   255 7   0   255 13  1   157 14  3   78  8   2   103 8   0   168 8   0   216 10  0   251 7   0   235 6   0   178 20  3   152 43  11  170 76  29  186 87  24  213 126 42  206 107 26  220 124 39  185 93  28  159 78  22  162 60  9   198 55  2   208 51  4   209 34  6   236 33  6   255 52  9   255 69  16  228 70  18  162 59  19  202 51  11  253 45  10  254 31  8   198 34  8   162 29  5   197 16  1   
255 54  11  255 132 44  253 152 53  241 124 42  217 74  22  203 41  10  205 47  12  217 70  17  235 105 34  239 107 32  253 137 44  253 153 50  254 147 37  250 170 59  228 121 38  226 130 45  241 121 30  250 158 43  239 142 41  215 107 26  197 68  17  193 29  5   152 10  1   178 21  3   221 50  11  233 86  16  202 101 37  133 54  19  129 22  5   220 11  0   254 7   0   239 5   0   234 5   0   162 3   0   112 6   0   165 14  1   253 29  1   254 33  1   254 31  1   234 16  0   195 17  1   192 30  2   208 56  6   208 67  7   215 101 21  198 98  20  210 102 20  210 85  13  217 79  12  203 60  4   215 47  4   254 37  5   237 39  8   250 59  15  255 86  23  255 111 35  246 108 34  230 102 29  224 78  16  254 65  14  219 48  14  181 48  12  148 37  8   199 23  2   
213 47  9   229 101 32  238 132 47  247 136 50  229 108 39  208 61  18  219 55  15  231 78  22  241 113 39  238 117 36  254 121 26  252 136 34  243 132 26  215 134 37  188 95  21  220 99  26  237 103 25  241 124 30  202 117 33  184 89  23  173 56  14  170 21  2   172 7   0   214 12  1   241 34  5   239 42  4   219 38  7   155 16  3   170 7   0   207 1   0   236 2   0   220 3   0   217 4   0   162 6   1   142 23  6   233 52  15  255 86  22  255 109 36  254 86  20  230 45  8   223 25  1   226 29  3   234 47  4   237 62  5   206 63  2   190 66  2   205 63  3   211 62  7   224 54  9   243 40  9   255 29  6   255 40  8   254 62  12  250 92  21  255 102 23  255 111 25  250 114 32  244 120 31  219 109 31  239 82  18  229 70  16  215 63  12  165 38  8   190 24  2   
191 45  8   235 90  28  246 126 55  254 162 74  240 150 72  205 93  38  211 60  18  229 64  13  236 81  11  243 102 17  254 111 12  254 141 29  248 128 25  204 113 28  189 82  16  244 111 37  254 126 45  251 135 43  234 104 20  213 83  14  200 47  7   212 22  1   236 3   0   245 4   0   255 13  0   255 20  1   255 25  4   192 18  4   185 12  1   162 4   0   198 2   0   219 3   0   248 9   0   199 22  4   175 44  13  208 82  31  255 121 41  255 160 63  254 140 35  234 89  20  231 40  3   255 23  2   238 22  1   228 34  3   194 35  2   206 37  0   223 34  0   233 31  3   246 22  4   222 15  4   214 22  6   233 57  16  249 95  23  253 122 31  241 104 26  233 92  22  235 90  24  224 104 33  185 90  32  187 66  19  219 71  20  220 64  17  162 36  10  153 20  2   
192 30  3   255 75  13  255 119 48  253 157 60  245 150 60  197 92  29  196 55  16  232 47  11  249 69  11  255 96  17  255 122 17  254 146 29  253 139 29  223 118 22  240 98  14  254 117 24  252 135 42  247 130 38  246 120 27  234 118 31  223 63  13  240 23  2   254 4   0   255 8   0   242 18  1   251 32  4   250 45  9   193 47  13  167 34  8   141 16  3   192 8   0   246 12  0   255 27  3   250 59  16  198 77  29  213 101 40  237 119 43  252 177 83  252 181 65  235 147 59  228 63  14  255 24  4   225 4   0   234 8   0   210 16  1   236 23  1   234 21  1   220 14  2   198 9   2   188 10  4   197 28  8   241 77  18  254 113 30  242 113 29  217 83  21  213 65  9   235 66  10  204 72  20  140 52  16  141 38  10  191 42  9   195 36  10  146 15  4   129 11  1   
226 28  0   255 82  8   255 151 57  254 197 82  242 173 79  206 101 39  214 62  20  243 36  9   245 51  10  240 72  15  255 107 22  255 148 40  253 145 37  239 129 31  239 112 23  248 146 43  242 144 46  243 120 32  248 110 28  236 118 40  220 72  25  213 23  5   237 8   1   254 20  1   251 44  5   245 66  13  250 91  25  221 92  25  208 63  10  190 33  4   233 23  1   255 40  2   255 63  6   254 83  10  229 90  17  227 87  10  239 101 15  250 115 30  249 142 42  232 138 52  214 64  17  246 22  4   197 2   0   231 7   1   234 23  4   234 40  8   211 43  8   192 27  3   198 17  2   212 13  2   211 34  8   240 81  19  248 126 48  215 98  36  177 71  27  190 60  13  232 62  10  195 46  12  127 21  5   134 15  3   211 19  2   228 15  2   196 4   0   155 7   0   
238 20  0   255 68  11  255 133 46  248 174 62  223 142 52  211 97  28  219 65  20  244 39  11  255 47  13  230 58  16  244 82  22  246 126 44  240 149 60  217 127 48  200 100 34  221 86  23  214 91  25  239 93  20  242 125 33  222 107 37  188 58  20  190 22  6   246 24  4   254 53  9   254 82  14  255 100 17  245 109 17  234 101 18  216 69  9   230 44  7   255 47  3   255 78  5   255 108 18  255 110 17  249 123 30  251 106 19  250 126 26  252 132 35  249 151 45  229 127 50  201 63  21  187 21  6   128 6   1   171 20  5   182 50  14  184 71  20  187 69  17  195 44  6   226 30  2   243 18  2   255 31  6   252 58  12  181 66  24  115 41  15  126 39  13  176 40  4   224 42  5   194 23  3   142 6   0   164 7   0   230 13  1   255 14  2   239 8   1   181 6   0   
226 18  0   255 37  4   232 70  20  228 109 38  213 123 51  219 102 39  199 75  31  206 47  16  225 50  19  193 47  18  210 56  19  223 75  22  212 91  30  191 87  28  181 73  23  220 71  16  232 87  20  228 85  19  208 96  28  159 61  21  158 41  12  208 37  10  250 61  17  254 97  29  255 126 37  253 133 35  240 120 26  217 81  18  219 42  6   229 36  7   254 67  9   255 118 24  242 132 26  227 107 19  236 108 18  244 114 21  247 133 32  246 124 26  230 112 26  203 76  15  166 40  11  90  16  5   69  17  6   119 37  11  169 73  24  167 90  27  177 88  23  186 61  9   234 39  4   255 19  2   255 14  2   162 23  5   104 23  6   96  18  5   140 20  4   197 23  2   238 25  3   228 20  2   236 17  2   246 24  1   255 34  4   255 38  4   241 35  5   183 18  1   
209 34  2   252 34  3   221 42  9   211 61  16  200 78  27  204 73  19  181 66  23  188 50  13  215 57  19  172 41  13  182 36  9   205 44  7   193 58  14  182 62  16  183 65  21  214 59  10  213 66  11  187 55  8   184 53  13  194 41  9   243 47  8   251 68  15  255 108 35  255 137 50  255 158 61  233 129 42  211 87  23  176 40  9   173 16  2   197 28  6   255 74  11  246 135 42  201 114 29  207 96  23  249 106 13  250 127 23  244 126 31  234 106 22  216 77  13  209 51  7   161 26  6   100 21  7   136 34  10  172 58  14  205 74  15  202 89  17  187 70  9   182 58  4   208 33  3   236 12  1   180 2   0   87  6   2   85  10  2   134 13  2   200 15  1   247 15  0   254 22  1   255 35  3   255 55  9   255 74  14  254 86  23  255 85  17  220 75  14  178 48  6   
221 63  2   240 52  4   212 31  4   209 25  3   204 34  7   200 45  9   181 61  19  182 60  14  202 63  19  169 36  9   196 22  4   229 20  2   219 23  2   183 25  3   186 33  5   216 40  6   198 41  6   153 28  5   202 29  4   255 44  10  255 82  17  255 118 33  247 130 41  210 114 44  174 90  37  112 47  17  105 24  6   103 9   1   136 8   1   183 29  4   251 78  9   246 144 43  201 106 28  223 103 26  251 119 28  251 166 56  229 145 55  188 88  28  179 43  6   184 22  2   159 15  2   169 33  6   201 49  9   214 74  14  255 91  19  255 124 30  231 94  18  227 75  8   214 41  3   190 11  2   100 3   0   76  9   3   121 16  3   200 19  2   244 18  1   255 18  1   255 36  4   254 66  10  255 104 26  255 128 40  255 123 37  249 116 28  221 96  10  203 76  5   
233 98  11  215 68  9   182 37  6   175 17  2   197 13  1   199 22  1   184 35  5   178 38  5   197 39  5   183 26  3   231 16  1   254 13  1   221 11  1   204 12  1   228 15  1   255 17  1   202 15  1   164 13  1   236 22  2   255 50  11  245 87  21  209 107 35  175 77  21  147 51  16  133 26  6   124 12  3   145 5   1   155 4   0   181 8   0   213 34  3   251 80  6   241 139 36  205 120 41  228 118 43  239 111 36  232 106 33  200 83  31  159 42  11  171 18  2   211 9   0   219 21  3   243 53  11  243 74  13  255 101 13  255 121 26  254 144 35  251 108 27  220 73  12  183 38  4   144 13  1   99  6   1   121 15  4   192 28  6   244 32  5   255 23  4   255 26  4   210 50  10  218 75  11  239 108 29  246 142 51  248 154 59  249 162 58  241 140 42  235 118 27  
197 92  11  193 68  6   180 40  3   189 20  1   198 9   0   193 9   0   168 17  2   184 23  3   207 28  2   230 27  3   255 24  3   239 23  5   190 19  3   204 16  2   254 13  1   255 9   1   208 8   1   175 11  2   227 21  2   212 43  10  188 54  11  163 54  15  153 33  5   179 25  5   199 15  3   197 8   2   179 4   1   197 3   0   223 8   0   218 32  2   204 59  4   215 97  18  194 87  24  189 81  22  172 62  17  177 55  14  182 44  14  167 28  6   197 15  1   240 16  0   255 39  4   255 78  12  255 114 28  255 119 14  253 147 28  251 158 40  240 142 48  211 83  23  180 37  6   160 13  1   160 11  1   204 18  3   240 25  4   255 24  5   249 16  4   200 20  5   170 46  12  198 75  15  237 96  16  230 107 23  222 110 29  217 129 40  204 126 41  198 107 25  
181 79  10  205 63  0   204 46  3   223 27  1   238 15  0   229 12  0   211 20  1   238 29  2   245 36  4   253 38  6   255 51  9   237 58  13  196 51  10  208 38  6   241 26  4   233 13  2   152 8   1   131 10  2   165 17  3   186 27  6   192 27  4   212 27  5   222 21  3   246 28  3   255 35  5   255 36  7   204 20  4   227 9   1   255 6   1   196 16  2   146 24  4   145 35  4   133 39  8   152 34  7   178 27  5   211 18  1   217 15  1   166 15  1   193 14  1   255 22  2   255 53  13  255 106 38  254 161 61  254 149 30  249 164 43  239 116 26  197 95  29  177 55  11  177 31  5   180 15  0   223 14  1   242 17  2   249 21  5   232 17  4   201 9   2   184 11  2   173 32  7   199 63  14  231 86  15  251 105 19  249 101 20  219 109 26  185 92  29  177 91  21  
219 82  4   234 70  0   212 53  3   237 29  1   246 20  0   255 30  1   255 50  3   255 52  6   248 63  13  247 62  14  254 89  21  241 90  21  233 89  17  224 58  10  244 37  7   217 16  3   159 9   1   164 13  2   193 18  2   212 17  2   237 17  1   251 18  2   255 31  4   255 56  8   255 86  23  239 90  28  192 58  17  209 22  3   242 6   1   189 3   0   134 7   1   165 13  0   213 21  0   227 23  1   249 25  2   255 18  1   241 13  1   171 13  1   208 15  1   250 20  1   227 39  8   216 80  23  237 131 48  236 142 51  214 135 55  160 77  26  171 55  15  196 35  5   223 30  4   226 28  2   255 40  6   249 42  6   229 40  6   208 26  4   207 15  2   228 12  1   221 24  3   216 51  10  245 83  16  253 114 24  255 115 21  251 120 19  223 93  10  230 96  6   
230 104 31  217 71  15  216 41  5   229 20  1   242 25  2   255 49  4   254 90  14  255 96  17  242 112 31  217 80  20  235 98  21  237 93  18  244 101 17  229 71  14  234 36  6   206 14  1   175 11  1   192 23  3   223 41  9   253 40  6   255 31  4   255 31  4   254 54  9   255 91  19  242 117 28  224 128 42  145 67  22  137 27  8   194 10  2   224 4   1   174 10  2   200 20  2   255 42  7   254 57  12  254 71  19  255 54  11  203 39  7   164 23  2   200 18  1   196 12  1   151 19  4   143 41  11  175 74  23  171 76  23  137 57  20  133 29  7   194 22  3   246 24  2   244 42  6   242 63  13  255 74  17  246 67  15  242 58  8   244 46  8   254 38  5   255 28  3   232 22  3   193 28  6   228 57  11  247 105 28  250 135 45  250 150 45  246 113 28  240 118 30  
236 79  24  245 50  10  211 26  5   202 15  2   202 29  5   255 60  8   255 119 23  252 132 29  244 126 30  208 95  19  238 91  7   246 97  14  232 95  18  224 62  13  200 28  5   187 14  1   214 19  2   254 43  5   252 65  14  215 55  7   205 42  5   197 35  2   211 55  6   219 86  14  235 112 27  202 110 36  139 57  17  171 25  4   216 13  2   254 17  2   226 39  7   245 57  10  255 82  22  255 99  38  254 108 37  197 80  21  192 59  12  214 47  5   242 35  3   233 17  0   177 11  0   175 18  1   189 29  3   171 29  5   153 20  5   197 14  1   247 15  1   255 29  3   235 55  10  231 83  19  240 100 32  239 92  28  230 73  15  244 61  11  255 72  15  242 63  15  211 42  8   206 26  4   234 35  4   254 73  16  251 103 31  240 122 39  227 112 34  224 96  27  
226 53  18  166 35  12  133 20  5   137 12  2   168 26  6   237 53  10  253 115 28  241 125 30  241 136 37  229 120 33  241 102 11  224 85  10  228 64  11  202 40  8   151 21  4   150 15  1   213 23  4   255 52  12  235 91  30  195 69  15  185 47  5   181 30  1   200 45  3   210 73  13  208 80  17  176 71  21  162 37  7   209 26  4   251 18  2   255 38  4   238 72  18  217 105 34  255 145 62  252 142 58  230 106 37  199 85  22  220 73  11  247 85  7   255 73  14  234 38  7   191 13  2   212 12  0   239 14  0   241 13  0   226 12  0   247 13  0   255 19  1   255 38  7   217 61  20  236 78  24  249 86  30  228 71  19  207 61  12  231 64  11  247 89  17  213 91  21  189 64  11  213 47  8   255 35  6   255 43  9   207 46  13  173 49  14  185 51  16  220 54  17  
176 52  14  126 49  16  111 35  9   150 23  5   206 25  4   236 38  6   243 79  20  233 86  22  226 102 27  215 98  28  214 80  15  216 56  10  201 33  5   168 23  3   160 26  4   183 29  4   243 36  6   255 49  12  220 65  16  176 55  12  195 42  2   214 26  0   234 32  0   234 48  6   230 56  10  223 45  7   224 29  3   250 20  1   255 30  3   255 59  10  233 95  24  219 102 32  230 114 34  230 102 31  229 90  16  241 83  10  252 87  8   255 111 16  254 100 26  215 55  13  172 19  4   207 11  0   255 11  0   255 11  0   241 19  1   255 29  2   255 35  4   255 48  9   240 62  18  255 78  20  255 93  32  244 90  24  219 70  16  231 60  9   243 84  18  217 98  18  193 83  12  204 65  8   216 41  7   197 20  4   98  7   2   84  10  2   129 21  4   174 37  8   
231 100 32  194 98  37  170 66  17  196 43  5   235 36  4   255 30  4   255 43  11  237 49  13  212 60  19  209 53  16  201 36  9   169 18  3   148 13  1   172 26  3   217 44  7   220 58  14  241 51  10  243 48  12  218 47  10  214 47  8   229 39  2   240 27  2   245 25  2   251 34  8   244 38  12  249 32  10  221 17  5   255 18  3   236 40  8   226 68  14  231 100 25  225 125 42  242 127 35  249 113 27  250 106 25  247 106 29  248 116 32  253 122 24  240 127 35  192 74  23  167 31  10  198 15  2   248 15  1   242 15  2   202 26  3   234 41  4   250 52  6   254 60  13  238 80  29  255 93  37  255 114 48  241 111 41  211 87  27  245 70  16  254 90  18  252 103 19  230 102 14  217 71  4   207 50  7   184 20  4   109 3   1   118 9   1   202 30  3   241 64  12  
239 117 22  210 102 24  206 95  28  216 64  10  242 43  8   255 20  4   255 14  4   194 12  3   156 13  3   168 12  3   149 11  3   124 6   1   146 12  2   196 28  2   239 56  5   236 77  17  225 57  8   232 36  5   241 22  2   241 26  3   242 29  4   237 29  6   244 28  4   255 32  7   230 28  9   199 19  7   168 11  3   196 14  2   160 33  9   159 64  17  201 99  26  211 110 29  221 99  12  245 102 16  243 114 25  226 103 30  219 108 32  231 101 25  232 101 22  187 63  15  181 30  5   213 19  2   241 18  1   215 15  1   188 23  3   227 39  5   255 58  8   255 65  10  242 74  16  244 85  22  249 121 44  238 130 52  222 105 37  251 82  18  255 114 32  242 133 46  216 112 37  205 76  13  216 58  7   229 30  4   190 10  1   212 23  3   247 61  6   255 106 9   
244 142 44  233 110 27  242 117 32  219 81  11  243 46  7   255 16  2   202 5   1   106 5   1   121 9   2   186 16  3   186 22  6   163 14  2   183 16  3   225 26  2   239 47  4   233 58  8   245 49  6   255 32  4   255 22  2   255 20  2   237 24  3   224 31  5   244 40  5   243 48  12  192 39  12  144 24  7   147 17  3   176 19  4   156 35  10  158 53  14  209 72  11  215 100 22  234 101 17  250 109 21  251 112 32  233 121 40  216 107 35  213 92  21  209 74  17  211 59  16  222 39  10  248 31  5   246 22  2   221 11  1   213 15  1   245 33  3   255 65  8   254 94  18  255 110 30  255 110 31  254 131 45  228 120 47  201 103 39  232 92  26  254 119 34  230 122 44  200 96  34  225 71  12  219 61  6   254 37  5   247 18  2   255 44  8   254 93  22  250 138 38  
210 112 28  222 100 14  230 106 20  212 70  17  240 34  7   218 12  2   164 10  2   122 14  3   164 25  6   221 42  6   222 57  16  196 34  7   225 24  3   254 18  0   255 32  2   255 47  7   255 48  10  213 37  8   183 35  7   184 37  9   183 36  10  191 36  9   217 42  8   193 45  10  176 38  9   186 33  8   251 37  5   249 42  6   168 36  6   169 49  11  244 81  14  244 118 26  252 102 13  250 116 26  253 124 34  254 151 48  228 107 26  200 71  17  206 46  9   225 39  8   221 42  10  205 33  5   201 20  2   199 6   0   239 10  0   255 30  4   255 72  14  255 128 44  237 141 57  241 137 51  243 141 50  214 118 42  188 88  35  197 78  23  228 97  29  210 117 38  209 103 32  237 105 25  238 81  19  229 35  7   186 16  2   223 44  10  236 99  32  232 138 50  
204 90  22  226 90  14  211 74  8   206 39  6   228 17  1   217 17  2   179 27  6   177 50  15  220 71  18  240 88  16  238 87  16  199 51  7   206 25  2   219 17  1   253 30  2   230 52  11  177 62  19  139 56  17  169 62  15  205 71  16  221 71  19  203 56  14  186 43  10  179 37  10  221 38  6   255 55  13  255 88  21  211 94  33  148 55  18  174 44  9   242 69  10  229 112 31  244 123 40  241 124 40  247 130 47  245 162 68  200 107 42  193 59  18  238 37  7   249 34  5   251 50  11  210 36  6   196 18  2   202 6   0   248 11  1   255 27  4   255 57  11  198 107 41  182 123 57  199 126 56  237 129 45  237 130 43  198 94  34  205 82  24  225 83  18  222 95  18  228 87  12  233 87  19  183 48  11  123 12  3   130 9   1   195 30  6   203 66  20  198 84  27  
196 52  8   175 41  4   178 29  3   211 16  2   254 17  1   255 44  8   221 72  23  194 88  32  197 86  26  223 92  16  232 80  13  210 54  5   188 34  4   179 32  4   189 45  8   192 65  16  182 73  22  172 68  17  208 73  11  243 101 20  254 119 34  223 95  28  185 52  11  204 32  5   255 44  6   255 93  28  242 135 51  170 103 38  116 46  13  157 34  4   244 47  6   210 64  13  206 75  20  193 69  18  210 78  23  200 85  30  169 66  24  209 50  14  255 54  15  253 60  15  254 68  21  201 35  8   190 13  1   222 8   0   255 12  0   255 16  3   185 26  7   96  45  20  95  53  27  145 74  32  215 113 42  246 157 64  210 127 53  209 94  28  226 85  16  231 84  14  222 72  12  215 47  12  137 19  5   124 5   1   186 6   0   231 19  1   250 43  7   218 55  12  
195 18  2   190 13  1   221 11  0   253 17  0   255 41  2   255 84  17  213 118 46  192 109 45  194 86  29  214 82  16  226 62  10  216 45  6   168 43  6   169 52  9   187 57  10  231 66  5   241 82  10  241 94  15  245 99  14  255 125 27  250 132 37  196 96  32  167 53  13  228 43  8   255 61  13  244 116 43  215 137 62  160 100 44  161 62  19  196 39  5   253 25  2   189 18  3   141 25  7   154 29  7   189 36  6   203 37  9   187 40  13  223 55  19  248 80  29  255 88  27  255 69  22  197 28  6   171 8   1   213 9   1   230 14  1   244 19  2   190 17  3   126 21  5   133 29  8   189 53  10  236 90  15  241 122 29  191 106 32  179 80  21  193 74  15  203 51  6   195 38  5   181 21  4   171 14  2   206 15  2   253 18  1   255 25  3   239 25  3   212 23  4   
167 0   0   190 1   0   249 12  0   255 45  3   255 101 18  245 143 43  204 128 50  164 87  31  193 82  25  216 65  12  246 52  8   250 51  5   211 66  12  209 70  13  229 73  14  254 80  3   255 107 20  255 114 23  253 113 25  254 122 27  253 130 38  238 106 32  214 64  14  238 52  9   248 70  16  222 114 42  203 120 49  189 104 39  203 74  18  231 49  6   254 19  1   196 6   0   139 11  1   166 18  3   221 28  4   238 30  7   219 38  11  200 53  18  186 72  26  186 66  21  162 44  15  146 19  5   134 9   2   184 14  2   235 25  2   255 44  4   255 51  9   209 41  10  200 34  8   228 42  3   237 65  8   216 73  20  163 57  20  177 44  13  197 36  6   200 27  1   196 28  3   222 33  6   255 56  13  255 70  20  255 74  19  195 47  13  123 16  3   141 5   0   
185 0   0   225 7   0   255 36  2   255 83  9   255 155 45  238 176 71  186 117 42  168 74  16  189 58  7   224 56  9   254 60  12  242 78  20  216 90  23  218 84  15  253 84  3   255 103 3   255 131 25  244 126 27  218 119 26  231 109 20  253 140 47  246 131 55  225 99  37  224 71  16  238 70  12  221 98  23  217 108 33  225 122 41  222 90  31  243 62  16  226 29  5   207 18  2   208 32  4   243 41  7   248 51  9   237 55  13  200 59  18  210 59  17  172 48  13  164 30  4   132 20  3   148 17  3   147 22  4   175 31  4   234 52  8   255 83  14  255 105 28  238 89  28  191 48  13  233 35  5   255 36  2   220 29  3   171 19  2   190 15  2   218 15  1   210 20  2   236 42  3   252 66  10  254 104 28  255 133 43  242 145 59  158 87  33  102 26  7   142 8   0   
229 4   0   253 17  0   255 66  8   255 118 22  249 156 50  203 139 56  168 94  32  181 73  14  199 50  2   245 47  2   255 70  11  243 102 24  230 106 26  224 92  14  250 102 8   248 121 9   245 132 30  231 108 19  206 97  19  223 79  1   253 114 25  247 116 33  223 95  27  184 61  13  218 57  9   225 85  11  247 107 20  235 120 30  187 76  21  218 57  14  229 51  12  249 45  5   255 71  6   253 61  6   255 82  18  236 82  22  216 76  25  221 54  12  182 34  7   175 19  2   195 24  3   241 38  6   251 62  13  217 70  18  238 76  18  249 114 36  248 143 56  226 146 58  170 76  27  222 54  7   255 47  4   231 30  5   177 10  1   183 2   0   200 5   0   219 24  2   254 61  3   255 120 21  255 154 45  251 187 59  246 159 57  183 108 35  140 44  11  187 16  1   
255 14  0   254 38  4   255 93  17  254 123 19  244 133 33  174 94  27  157 62  16  182 44  9   224 34  4   254 53  8   255 94  18  246 139 36  239 137 39  234 113 26  252 106 11  250 105 6   252 116 16  251 116 23  248 119 26  243 100 17  250 124 26  235 114 29  203 90  22  190 48  10  220 41  7   227 70  15  236 87  17  211 93  23  154 52  11  194 51  13  253 78  26  255 102 27  253 140 23  238 67  16  245 63  17  219 66  18  221 64  17  243 45  7   218 26  4   174 20  2   226 39  5   255 68  12  255 102 24  234 122 39  208 89  26  227 98  29  225 96  25  218 123 36  187 97  30  246 97  18  255 99  20  216 67  13  151 20  3   157 4   0   210 7   0   255 46  6   254 95  21  255 148 36  252 152 49  244 156 38  238 153 55  211 122 43  177 64  18  216 25  3   
255 22  1   255 61  10  255 125 36  252 171 62  217 120 37  149 58  13  181 33  3   232 20  1   255 27  3   255 62  11  255 116 24  250 131 18  239 129 23  223 106 16  251 121 20  253 137 36  255 151 47  248 147 52  248 142 44  233 118 36  222 99  22  185 64  7   181 42  3   217 25  2   255 20  2   254 33  5   222 46  7   182 48  10  147 35  5   178 35  4   220 48  11  255 147 51  253 172 41  211 22  4   139 12  2   153 18  3   234 26  3   255 24  3   217 24  4   147 35  10  232 68  15  255 112 34  254 142 47  230 156 64  184 89  35  223 93  29  251 87  18  253 121 26  232 117 32  250 127 23  240 137 33  188 95  20  117 33  5   152 7   0   219 12  0   255 61  7   255 128 37  254 173 51  249 150 48  242 149 40  239 156 60  198 116 45  169 57  16  223 25  3   
