P3
64 64
255
117 117 117 127 127 127 107 107 107 125 126 126 131 131 131 151 151 151 154 154 154 153 153 152 138 139 138 120 120 120 103 103 103 102 102 102 103 103 103 125 125 125 158 158 158 160 160 160 143 142 143 133 133 132 130 130 130 125 125 124 120 120 120 104 104 104 90  90  90  99  99  99  98  98  98  99  99  99  88  88  89  122 123 123 157 158 157 165 166 165 146 146 146 156 156 156 129 129 129 116 116 116 102 102 102 94  94  94  94  94  94  123 124 124 157 157 157 142 142 142 131 131 131 118 118 118 111 111 111 112 112 112 103 103 103 100 100 100 95  95  95  89  89  89  103 103 103 139 139 139 143 144 143 133 133 133 138 138 138 159 159 159 142 142 142 121 121 121 112 112 112 117 117 117 140 140 140 118 118 118 119 119 119 96  96  96  111 111 111 124 124 124 
108 108 108 121 121 121 124 124 124 148 148 148 153 153 153 164 164 164 152 152 152 149 149 149 134 134 134 121 121 121 109 109 109 117 117 117 150 150 150 170 170 170 169 169 168 155 155 155 145 145 144 171 171 170 160 160 160 137 137 137 122 122 122 89  89  89  89  89  88  117 117 117 115 115 115 115 115 115 112 112 112 149 149 150 155 156 156 164 164 164 149 150 150 146 146 146 132 132 132 112 112 112 90  90  90  95  95  95  110 110 110 145 145 145 160 160 160 148 148 148 128 128 128 126 126 126 111 111 111 109 110 110 97  97  97  86  86  86  85  85  85  90  90  90  131 131 131 148 148 148 146 146 146 125 125 125 122 122 122 143 143 143 120 120 120 99  99  99  89  89  89  102 102 102 124 124 124 104 104 104 85  84  85  76  76  77  91  91  91  119 119 119 
141 141 141 152 151 152 177 176 176 177 177 177 168 168 168 162 162 162 143 143 143 135 135 135 122 122 122 121 121 120 104 104 104 118 118 118 173 173 173 177 177 177 158 158 158 142 143 142 140 140 140 172 173 172 162 162 162 136 136 135 121 120 120 94  94  94  103 103 103 121 121 121 122 122 122 123 123 123 128 128 128 144 144 144 144 144 144 145 145 145 141 141 141 130 130 130 117 117 117 97  97  97  79  79  78  82  82  82  105 105 105 142 142 142 152 152 152 145 145 144 129 129 129 126 126 126 110 110 110 98  98  98  103 103 103 104 104 104 117 117 117 139 139 139 159 159 159 146 147 146 136 136 136 115 115 115 110 110 110 131 131 131 118 118 118 91  91  91  81  81  81  88  88  88  99  99  99  85  85  85  56  56  56  66  65  65  105 105 105 149 149 149 
169 169 169 160 160 160 181 181 181 176 176 176 150 150 150 150 151 151 127 127 127 141 142 142 120 121 120 121 121 121 100 100 100 117 117 117 167 167 167 159 160 159 145 146 145 125 126 125 121 121 121 145 145 145 148 148 148 124 124 124 113 113 112 106 106 106 123 123 122 130 130 130 135 135 135 124 124 124 122 122 122 126 126 126 138 138 139 133 133 133 131 131 131 109 109 109 94  94  94  92  92  92  84  84  84  110 110 110 127 127 127 144 144 144 147 147 147 158 158 157 144 144 144 131 131 131 110 110 110 101 101 101 127 127 127 145 145 145 159 159 159 162 162 162 152 152 152 141 141 141 123 123 123 106 106 106 88  88  88  107 107 107 118 118 117 125 125 125 120 120 120 118 118 119 103 103 103 78  78  79  52  52  52  97  96  96  160 160 160 189 189 189 
156 155 156 149 148 149 159 159 160 174 174 175 149 149 149 126 127 127 119 120 120 143 143 143 130 131 130 125 125 125 103 103 103 123 123 123 154 154 153 147 147 147 137 137 137 116 116 116 109 109 109 119 119 119 121 121 121 124 124 124 129 128 128 139 139 139 133 133 133 115 115 115 132 132 132 131 131 131 132 132 132 123 123 123 137 137 137 134 134 134 123 122 122 106 106 106 92  92  92  108 108 108 104 104 104 117 117 117 124 124 124 134 134 134 150 150 150 158 158 158 151 151 152 127 127 127 111 111 111 111 111 111 145 145 145 160 160 160 157 157 157 152 152 152 138 138 138 132 132 132 102 102 102 70  70  70  67  67  67  91  91  91  123 123 123 135 135 135 123 123 123 118 118 118 122 122 122 130 130 130 125 125 125 181 180 180 181 181 181 178 177 177 
145 145 145 138 138 138 118 118 118 124 124 124 147 147 147 141 142 141 147 147 147 167 168 168 154 154 154 137 137 137 138 138 138 145 145 145 160 160 160 134 133 134 125 125 125 113 113 113 101 101 101 117 117 117 140 140 140 160 160 160 151 151 151 139 139 139 125 125 125 109 109 109 129 129 129 138 138 138 147 147 147 150 150 150 154 154 154 152 152 152 130 130 130 113 113 113 104 104 104 105 106 105 118 118 118 132 132 132 140 140 140 139 139 139 143 143 143 154 154 154 150 150 150 139 140 140 143 143 143 153 153 153 173 173 173 164 164 164 153 153 153 140 140 140 127 127 127 110 110 110 85  85  85  63  63  63  80  80  80  102 102 102 124 124 124 130 130 130 128 128 128 131 131 131 137 137 137 153 153 153 146 146 146 176 176 176 159 159 160 175 175 175 
140 140 140 128 128 128 122 122 123 124 124 124 182 182 182 180 180 180 172 172 172 167 167 167 160 160 160 146 146 146 153 153 153 148 148 148 162 162 162 148 148 148 134 134 135 127 127 127 109 109 109 130 130 130 155 155 155 165 165 165 153 153 153 140 140 140 117 117 117 95  95  95  117 117 117 143 143 143 159 159 159 163 163 163 149 149 149 146 146 146 142 141 141 114 114 114 104 104 104 93  93  93  123 123 123 134 134 134 146 146 146 151 151 152 161 162 162 163 164 164 157 157 157 150 150 150 163 163 163 164 164 164 163 163 163 149 149 149 141 141 141 131 131 131 118 118 118 81  81  81  65  65  65  72  72  72  119 118 119 154 154 154 166 166 166 156 156 156 149 149 149 156 156 156 168 168 168 169 169 169 149 149 149 167 167 167 149 149 149 160 160 160 
152 152 152 130 130 130 135 135 135 139 139 139 158 158 158 166 166 166 165 165 165 170 170 170 162 162 162 139 139 139 153 153 154 142 142 142 155 156 156 155 155 156 138 137 138 123 123 123 101 101 101 124 124 124 150 150 150 148 148 148 144 144 144 134 134 134 120 120 120 95  95  95  118 118 118 157 157 157 163 163 163 150 150 150 134 134 134 115 114 114 123 123 123 121 121 121 127 127 127 115 115 115 149 149 148 160 160 160 161 161 161 161 162 162 162 162 162 167 167 167 166 166 166 158 158 158 161 161 161 154 154 154 154 154 154 136 136 136 133 133 133 110 111 111 87  87  87  64  64  64  69  69  69  110 110 110 137 137 137 150 150 150 152 152 152 152 152 152 168 168 168 162 162 162 164 164 164 149 149 149 130 131 131 146 146 146 149 149 149 159 159 159 
149 149 149 134 133 134 146 146 146 150 150 150 158 158 158 152 152 152 150 150 150 147 147 147 141 141 140 128 128 128 144 144 144 143 143 143 159 159 159 153 153 153 137 137 137 113 113 113 106 106 106 123 123 123 139 139 139 132 132 132 132 132 132 126 126 126 120 120 121 92  92  92  120 120 120 165 165 165 151 151 151 131 130 130 124 124 124 101 100 100 107 107 107 122 122 122 147 146 146 141 142 141 167 167 167 159 160 160 152 152 152 150 150 150 148 148 148 154 154 154 146 146 146 137 137 137 137 137 137 127 127 127 124 124 124 116 116 116 116 116 116 104 105 104 77  77  77  65  65  65  75  75  75  125 125 125 135 135 135 147 147 148 148 148 148 155 155 155 158 158 158 148 148 148 152 152 152 141 141 141 137 137 137 158 158 158 157 157 157 155 155 155 
119 119 119 112 112 112 130 130 130 144 144 144 146 146 146 142 142 142 147 147 147 144 144 144 132 132 132 107 107 107 114 114 114 129 129 129 157 158 157 147 147 147 129 129 129 116 116 116 119 118 119 133 133 133 142 142 142 149 148 149 149 149 149 128 128 128 117 117 117 95  95  95  124 124 124 169 169 169 154 154 154 132 132 132 119 119 119 109 108 108 113 113 113 121 120 120 141 141 141 144 144 144 170 170 170 154 154 154 157 157 157 153 154 153 144 144 144 142 142 142 130 130 130 118 118 118 107 107 107 114 114 114 130 130 130 127 127 127 107 107 107 94  94  94  69  70  70  74  74  74  96  96  96  141 141 141 140 140 140 139 139 139 150 150 150 151 152 152 131 131 131 130 130 130 135 135 135 151 151 151 155 155 155 149 148 149 131 131 131 123 123 123 
113 112 113 108 108 108 117 117 117 137 136 136 146 146 146 141 141 141 144 144 144 132 132 132 121 121 121 106 106 106 102 102 102 117 117 117 134 134 134 143 144 144 147 147 147 150 150 150 152 152 152 162 162 162 162 162 162 157 157 157 141 140 141 122 122 122 104 104 104 106 106 106 119 119 119 156 156 156 151 151 151 137 138 138 113 113 113 112 112 112 117 116 116 110 110 110 118 118 118 138 138 138 162 162 162 151 151 151 150 151 151 147 147 147 139 139 139 133 133 133 109 108 108 89  89  89  80  80  80  103 103 103 146 146 147 145 145 145 115 115 115 89  89  89  67  67  67  80  80  80  126 127 127 166 166 166 169 169 169 169 169 169 167 167 167 182 183 182 153 153 153 152 152 152 147 147 147 153 152 153 147 147 147 136 135 136 125 125 125 120 120 120 
91  91  91  100 100 100 107 107 107 119 119 119 129 129 129 127 127 127 137 138 138 128 128 128 117 117 117 96  96  96  93  93  93  110 110 110 115 115 115 132 132 132 154 154 154 167 167 167 166 166 166 171 171 171 165 165 165 155 155 155 136 136 136 133 133 132 110 110 110 107 108 107 118 118 118 141 141 141 141 141 142 139 139 139 115 116 116 118 119 118 118 118 118 111 111 111 114 114 114 143 143 143 159 159 159 141 141 141 136 136 136 135 135 135 135 135 135 114 114 113 85  85  85  67  67  67  85  85  85  130 130 130 161 161 161 157 157 157 130 129 129 105 105 105 98  98  98  123 123 123 178 178 178 182 183 183 176 176 176 167 167 166 160 161 161 178 179 178 167 168 168 162 162 162 151 151 151 146 146 146 142 142 142 126 126 126 108 108 108 92  92  92  
81  81  81  93  93  93  105 105 105 106 106 106 112 112 112 106 106 106 118 118 119 113 113 113 101 101 101 88  88  88  92  92  92  101 101 101 104 104 104 127 127 127 165 165 165 172 172 172 167 167 167 170 170 170 167 167 167 157 157 158 145 145 145 162 162 162 148 149 148 124 124 124 124 123 123 139 138 139 149 149 149 144 144 145 144 144 144 128 128 128 119 119 119 118 118 118 126 126 126 151 151 151 147 147 147 141 140 141 129 129 129 139 138 139 132 132 132 110 110 110 80  80  80  68  68  68  95  95  95  147 147 147 162 162 162 153 153 153 143 143 143 137 137 137 140 140 140 157 157 157 196 195 196 178 178 178 174 174 174 167 167 167 163 163 163 161 162 161 166 166 166 162 162 162 143 143 142 127 127 127 121 121 120 103 103 103 85  85  85  80  80  80  
112 113 113 104 104 104 99  99  99  88  88  88  99  99  100 98  98  99  112 112 112 103 103 103 93  93  93  85  85  85  100 100 100 117 117 117 132 132 132 152 152 152 168 168 168 164 164 164 159 159 159 154 154 154 155 155 155 149 149 149 156 156 156 164 164 164 162 162 162 153 153 153 147 147 146 152 151 151 145 145 145 134 134 134 155 155 155 146 146 146 138 139 138 133 133 133 142 142 142 141 141 141 131 131 133 122 122 122 117 116 116 120 119 119 108 108 108 84  84  84  82  82  82  100 100 100 130 130 130 165 165 165 155 155 155 148 148 148 144 144 144 154 154 154 160 160 160 165 165 165 184 184 184 177 177 177 170 170 170 162 162 162 158 158 158 145 145 145 154 154 154 145 145 145 134 134 134 115 115 115 99  99  99  104 104 104 103 103 103 117 117 117 
124 124 124 119 119 119 111 111 111 92  92  92  101 101 102 114 114 114 129 129 129 122 122 122 106 106 106 91  91  91  112 112 112 130 130 130 156 156 155 163 163 163 165 165 165 170 170 170 160 160 160 159 158 159 157 157 157 148 148 148 152 152 152 152 152 152 147 148 147 153 153 153 154 154 153 155 155 155 146 147 146 138 138 138 153 153 153 146 146 146 143 143 143 130 130 130 137 137 137 125 125 125 122 122 122 107 107 107 96  96  96  90  90  90  81  81  81  81  81  82  102 102 102 122 122 122 148 148 148 169 169 169 148 148 148 144 144 144 142 142 142 164 164 164 170 170 170 158 158 158 171 171 171 180 180 180 172 172 172 160 160 160 150 150 150 132 132 132 144 144 144 132 132 131 116 116 116 100 100 100 85  85  85  111 111 111 99  99  99  111 111 111 
137 137 137 132 132 132 137 137 137 134 134 134 145 145 145 150 150 150 147 147 147 135 135 135 120 120 120 110 110 110 146 147 146 163 163 163 176 176 176 163 163 162 152 151 151 150 150 150 156 156 156 158 158 158 154 154 154 147 147 147 148 148 148 144 144 144 125 125 125 152 152 152 172 172 172 179 179 179 163 164 163 140 140 140 137 137 137 130 130 130 139 139 139 127 127 126 124 124 124 97  97  97  88  88  88  76  76  76  77  77  77  78  78  78  83  83  83  99  99  99  139 139 139 149 149 149 155 155 155 168 168 168 159 159 159 150 150 150 154 154 154 171 171 171 160 160 160 155 155 155 163 163 163 168 168 168 162 162 162 152 152 152 138 138 138 120 120 120 135 135 135 129 129 129 107 107 107 94  94  94  95  95  95  115 115 115 117 117 117 112 112 112 
128 127 127 142 142 142 149 149 149 149 150 150 145 145 145 148 148 148 139 139 139 139 139 139 137 137 137 132 132 132 165 165 165 174 175 175 175 175 175 153 153 152 142 142 142 136 135 136 141 141 141 153 153 153 165 165 165 162 162 162 157 157 157 136 136 136 106 106 106 155 155 155 165 165 165 168 168 168 154 155 154 132 132 132 115 115 115 123 123 123 132 132 132 128 128 128 107 107 107 83  83  83  70  70  70  74  74  74  75  75  75  88  88  88  116 116 116 148 148 148 162 162 162 139 139 139 139 138 139 162 162 162 171 171 172 153 153 153 156 156 156 162 162 162 158 158 158 152 152 152 151 151 151 150 150 150 144 144 144 137 136 137 129 129 129 120 120 120 126 126 126 136 137 136 125 125 125 132 131 131 137 137 137 127 127 127 113 113 113 99  99  99  
131 131 131 139 139 139 140 140 140 145 145 145 136 136 136 131 131 131 130 130 130 134 134 134 140 140 140 136 136 136 152 152 152 161 162 162 164 164 164 147 147 147 143 143 143 127 127 127 127 127 127 130 129 130 157 157 157 156 156 156 148 148 149 132 132 132 105 106 105 160 160 160 160 160 160 160 160 160 143 143 143 120 120 120 126 126 125 147 147 147 141 141 141 128 128 128 92  92  92  86  86  86  90  90  90  103 103 103 104 104 104 121 121 121 162 162 163 168 168 168 151 151 151 144 144 144 155 155 155 171 171 171 179 179 179 167 167 167 166 166 166 155 155 155 145 145 145 141 141 141 146 146 146 143 143 143 127 127 127 116 116 116 116 116 116 118 118 118 118 118 118 137 137 137 152 152 152 154 154 154 157 157 157 135 135 135 132 132 132 122 122 122 
155 155 155 166 166 166 158 158 158 150 150 150 137 137 137 118 118 118 151 151 151 152 153 152 158 159 158 149 149 149 146 146 146 155 155 155 156 156 156 136 136 136 123 123 124 117 117 117 124 124 124 125 125 125 156 156 156 149 149 149 148 148 148 117 117 117 91  91  91  144 144 144 157 157 157 143 143 143 123 123 123 114 115 115 136 136 136 165 165 165 165 165 165 147 147 147 135 134 134 133 133 132 155 155 155 130 130 130 109 109 109 121 121 121 160 160 161 160 160 160 152 153 152 154 154 154 175 175 175 172 172 172 174 175 175 162 162 162 171 170 170 170 169 169 160 160 160 139 138 138 126 126 126 129 129 129 108 107 108 100 100 100 97  97  96  112 112 111 111 111 111 135 135 135 165 165 165 162 162 162 146 146 146 109 109 109 113 113 113 152 152 152 
162 163 163 152 152 152 142 142 142 145 145 145 135 135 135 130 130 130 161 161 161 158 160 160 147 147 147 134 134 134 133 133 133 136 136 136 142 142 142 128 128 128 128 128 128 120 120 120 127 127 127 130 130 130 150 150 150 141 141 141 134 134 134 106 106 106 86  86  86  120 120 120 145 144 145 119 119 119 113 113 113 124 124 124 150 150 150 163 163 164 177 177 177 161 161 161 153 154 153 133 133 133 147 148 148 167 167 167 157 157 157 154 154 154 163 163 163 159 159 159 154 154 154 165 165 165 171 171 171 164 165 164 166 166 166 153 153 153 163 163 163 165 165 165 164 164 164 157 157 157 131 131 131 126 126 126 110 110 110 97  97  97  103 103 103 128 128 128 136 136 136 143 143 143 164 164 164 156 156 157 145 145 145 128 128 128 153 153 153 183 183 183 
160 161 161 161 161 162 143 143 143 151 151 151 164 163 164 163 163 163 171 171 171 165 165 165 146 146 146 131 131 131 122 122 122 134 134 134 133 133 133 127 127 127 124 124 124 123 123 123 128 128 128 129 130 129 139 139 138 130 130 130 122 122 122 100 100 100 89  89  89  113 113 113 148 148 148 145 145 145 143 143 143 154 154 155 160 160 160 148 148 148 166 166 166 163 163 163 156 156 155 130 130 130 126 127 126 156 156 156 169 169 169 163 163 163 168 168 168 182 182 182 177 177 177 171 171 171 167 167 167 155 155 155 155 155 155 142 142 142 155 155 155 155 155 155 143 143 143 148 148 148 138 138 138 126 126 126 109 109 109 94  94  94  101 101 101 144 144 144 151 151 151 156 156 156 167 167 167 158 158 158 151 151 151 145 145 145 162 162 162 172 173 173 
161 161 161 150 150 150 119 120 120 128 128 128 153 153 153 157 157 157 155 155 155 140 140 140 133 133 133 138 138 138 134 134 134 148 148 148 138 138 138 139 139 139 120 120 120 108 108 108 106 106 106 117 117 117 114 114 114 106 106 106 89  89  88  99  99  99  107 107 107 118 118 118 131 131 130 155 155 155 166 166 166 164 164 164 156 156 156 147 146 146 146 146 146 175 175 174 152 152 152 142 143 142 141 141 141 162 162 162 166 166 166 157 157 157 158 158 158 180 180 179 167 167 167 161 161 160 160 160 160 153 153 153 147 146 147 132 132 132 133 133 133 141 141 141 125 125 125 124 124 124 131 131 131 126 126 126 117 117 117 100 100 100 109 109 109 155 155 156 154 154 154 154 154 154 153 153 153 163 163 163 181 181 181 171 171 171 172 173 172 171 171 171 
154 154 154 144 145 144 128 128 128 135 135 135 169 169 169 167 167 167 150 150 150 132 132 132 142 142 142 173 173 173 174 174 174 165 165 165 150 150 150 128 128 129 104 104 104 96  96  96  97  97  97  116 116 116 115 115 115 117 118 117 97  97  97  108 108 108 109 109 109 116 116 116 121 121 121 149 150 149 177 176 176 164 164 164 150 150 150 136 136 136 130 129 130 163 163 163 164 164 164 150 151 150 151 151 151 146 146 146 146 146 146 134 134 134 147 147 147 162 162 161 148 148 148 137 137 137 145 145 145 151 151 151 139 138 139 135 135 135 118 118 118 129 129 129 113 113 113 106 106 106 129 129 129 127 127 127 112 112 112 103 103 103 118 118 117 160 160 160 155 155 155 154 155 155 152 152 152 156 157 156 167 167 167 152 152 152 151 151 151 159 159 159 
166 166 166 153 153 153 137 137 137 131 131 131 148 148 148 158 158 158 158 158 158 154 154 154 168 168 168 177 177 177 174 173 173 157 157 157 133 133 133 97  97  97  75  75  75  85  85  85  111 111 111 134 134 133 136 136 136 132 132 132 108 108 107 105 105 105 101 101 100 119 119 119 141 141 141 158 159 158 163 163 163 156 156 156 145 145 145 141 141 141 134 134 134 147 147 147 148 148 148 154 154 154 149 151 149 148 148 148 137 137 137 118 118 117 128 128 128 145 145 145 133 133 133 117 117 117 123 123 123 148 148 148 127 127 126 118 118 118 102 102 102 114 114 114 127 127 127 124 124 124 136 136 136 124 124 124 119 119 119 120 120 120 141 141 141 168 168 168 161 161 161 154 154 154 151 151 151 151 151 151 160 160 160 141 142 142 154 155 155 160 160 160 
172 172 172 155 155 155 141 141 141 135 135 135 147 147 147 164 164 164 171 171 171 171 171 171 170 170 170 166 166 166 160 160 160 147 146 147 134 134 134 111 111 111 106 106 106 143 143 142 172 172 172 167 167 167 148 148 148 148 149 148 105 105 105 99  98  98  118 118 118 130 130 130 141 142 141 145 145 145 147 147 147 140 140 140 136 136 136 132 132 132 131 131 131 127 127 127 121 121 121 138 138 138 144 144 144 143 143 142 131 131 130 110 110 110 115 115 115 130 130 130 126 126 126 120 120 120 112 112 112 142 142 142 131 131 131 117 117 117 97  97  97  98  98  98  107 107 107 133 133 133 152 152 152 139 139 139 127 127 127 130 130 130 153 153 153 167 167 168 166 166 166 155 155 155 147 147 147 140 140 140 154 155 155 153 153 153 172 172 172 171 171 171 
160 160 160 159 158 158 140 140 140 129 129 129 140 140 140 156 156 156 169 169 169 163 163 163 159 159 159 144 145 145 137 137 137 140 140 140 147 147 147 149 149 149 152 152 151 181 181 181 189 189 189 167 167 167 138 138 138 125 125 125 88  88  88  89  89  89  159 158 158 154 154 153 156 156 156 144 144 144 144 144 144 131 131 131 127 127 127 125 125 125 128 128 128 115 115 115 108 108 108 129 129 129 149 149 148 147 147 147 125 125 125 106 106 106 124 124 124 158 158 158 141 140 140 124 124 124 108 108 108 131 131 131 127 127 127 123 123 123 105 105 106 104 104 104 97  97  97  135 135 135 154 154 154 158 158 158 145 145 145 146 146 146 162 162 162 159 159 159 153 153 153 141 141 141 125 125 125 126 126 126 159 160 160 159 160 160 166 166 166 154 154 154 
146 146 146 144 144 144 129 129 129 140 140 140 154 154 154 163 163 163 166 166 166 153 153 153 150 150 150 129 130 130 130 130 130 158 158 158 176 176 176 171 171 171 158 158 158 172 172 173 190 190 190 179 179 179 140 139 140 104 104 104 80  80  80  106 106 106 189 189 189 169 169 169 159 159 159 144 144 144 136 136 136 119 119 119 112 112 112 114 114 114 112 112 112 107 107 107 106 106 106 113 113 113 124 124 124 135 135 135 127 127 127 126 125 126 147 147 147 170 170 170 154 154 154 140 140 140 112 112 112 130 130 130 137 137 138 145 145 145 122 122 122 112 112 112 105 105 105 151 151 151 162 162 162 165 165 165 151 151 151 146 146 146 172 172 172 155 154 154 140 140 140 133 133 133 104 104 104 107 107 107 162 162 162 164 164 164 159 159 159 157 157 157 
131 131 131 133 133 133 126 126 126 127 127 127 130 130 130 138 138 138 146 146 146 141 141 141 147 147 147 131 131 131 118 118 118 149 149 150 174 174 174 160 160 160 135 135 135 147 147 147 180 181 181 182 182 183 171 171 171 153 152 153 116 116 116 133 133 133 184 184 184 165 165 165 168 168 167 162 163 163 162 162 162 147 147 147 120 120 119 105 105 105 86  86  86  89  89  89  96  96  96  109 109 109 110 110 110 118 118 118 130 130 130 138 138 138 147 147 148 160 160 160 148 148 148 123 123 123 103 103 103 135 135 135 152 152 152 150 151 150 127 127 127 124 124 124 130 130 130 171 170 171 163 163 163 160 160 160 156 156 156 147 148 148 165 165 166 168 168 168 142 142 142 128 127 127 106 106 106 100 100 100 150 150 150 163 163 163 158 158 158 144 144 144 
127 128 128 118 119 119 118 118 118 123 123 123 120 120 120 119 119 118 141 141 141 143 143 143 139 139 139 121 121 121 119 119 119 152 151 152 165 165 165 152 152 152 120 119 119 147 148 147 187 188 187 180 180 180 158 158 158 135 135 135 123 123 123 158 158 157 178 178 178 168 168 168 160 160 160 154 154 154 149 149 149 143 143 143 142 142 142 135 135 135 103 103 103 90  91  91  92  92  92  107 107 107 113 113 113 116 116 116 128 128 128 133 132 133 138 138 138 142 142 142 141 141 141 123 123 123 110 110 110 156 156 156 158 158 158 148 148 148 115 115 115 132 132 132 166 166 166 183 183 182 179 179 179 171 171 171 163 163 163 145 145 145 139 139 139 155 155 155 154 154 154 143 143 143 125 125 125 104 104 104 126 126 126 152 152 152 153 153 152 138 138 138 
116 116 116 115 116 115 115 115 115 115 115 115 105 105 105 104 104 103 118 118 118 135 135 135 134 134 134 130 130 130 127 127 127 146 146 146 148 148 148 141 141 141 125 125 125 149 149 149 169 169 169 167 168 168 163 163 163 148 148 148 114 114 113 138 138 138 185 185 185 178 178 178 165 165 165 153 153 153 142 143 142 131 131 131 129 129 129 124 124 124 118 118 118 115 115 115 130 130 130 113 113 113 116 116 116 110 110 110 127 127 127 126 126 126 133 132 132 136 136 136 134 134 134 119 119 119 120 120 120 155 155 155 147 148 147 116 116 116 105 105 105 143 143 143 172 172 172 162 162 162 155 155 155 164 164 164 149 148 149 138 137 138 121 121 121 133 133 133 141 141 141 140 141 140 120 120 120 99  99  99  109 110 109 144 144 144 155 155 155 133 133 133 
113 113 113 110 110 110 98  98  98  87  87  87  70  70  70  67  67  67  89  89  89  122 122 122 137 137 137 126 126 126 128 128 129 139 139 139 133 132 133 126 126 126 125 124 124 141 141 141 146 146 146 157 157 157 142 142 142 131 131 131 122 122 122 156 156 156 191 191 191 175 175 175 161 161 161 149 150 149 137 137 137 124 124 124 122 122 122 110 110 110 121 120 120 130 130 130 160 160 160 132 131 131 120 120 120 96  96  96  101 101 101 106 106 106 123 122 122 128 128 128 126 126 126 118 118 118 120 120 120 147 147 146 134 134 134 91  91  91  112 112 112 166 165 166 173 173 173 157 157 157 151 151 151 151 151 151 141 141 140 134 134 134 115 115 115 119 119 119 122 122 122 123 123 123 102 102 102 84  84  84  100 100 100 143 143 143 147 147 147 127 127 127 
125 125 125 116 116 116 103 102 103 91  91  91  75  75  75  85  85  85  124 124 124 138 138 138 132 132 132 124 124 124 123 123 123 133 132 133 129 129 129 124 124 124 118 118 118 119 119 119 117 117 117 147 147 147 154 154 154 153 153 153 128 128 128 148 148 148 145 146 145 140 140 140 137 137 137 144 144 144 145 145 145 129 129 129 127 127 127 104 104 104 123 123 123 131 131 131 150 150 150 135 135 135 109 109 109 102 103 103 105 105 105 123 122 123 130 129 129 131 131 131 120 120 120 111 111 111 106 106 106 114 114 114 100 100 100 88  88  88  135 135 135 159 159 159 147 147 147 122 122 122 121 121 121 131 131 130 129 129 129 116 116 116 102 102 102 102 102 102 113 113 113 95  95  95  72  72  72  87  87  87  131 131 131 159 160 159 149 149 149 136 136 136 
129 129 129 116 116 116 102 102 102 94  94  94  94  94  94  123 124 124 157 157 157 142 142 142 131 131 131 118 118 118 111 111 111 112 112 112 103 103 103 100 100 100 95  95  95  89  89  89  103 103 103 139 139 139 143 144 143 133 133 133 138 138 138 159 159 159 142 142 142 121 121 121 112 112 112 117 117 117 140 140 140 118 118 118 119 119 119 96  96  96  111 111 111 124 124 124 117 117 117 127 127 127 107 107 107 125 126 126 131 131 131 151 151 151 154 154 154 153 153 152 138 139 138 120 120 120 103 103 103 102 102 102 103 103 103 125 125 125 158 158 158 160 160 160 143 142 143 133 133 132 130 130 130 125 125 124 120 120 120 104 104 104 90  90  90  99  99  99  98  98  98  99  99  99  88  88  89  122 123 123 157 158 157 165 166 165 146 146 146 156 156 156 
132 132 132 112 112 112 90  90  90  95  95  95  110 110 110 145 145 145 160 160 160 148 148 148 128 128 128 126 126 126 111 111 111 109 110 110 97  97  97  86  86  86  85  85  85  90  90  90  131 131 131 148 148 148 146 146 146 125 125 125 122 122 122 143 143 143 120 120 120 99  99  99  89  89  89  102 102 102 124 124 124 104 104 104 85  84  85  76  76  77  91  91  91  119 119 119 108 108 108 121 121 121 124 124 124 148 148 148 153 153 153 164 164 164 152 152 152 149 149 149 134 134 134 121 121 121 109 109 109 117 117 117 150 150 150 170 170 170 169 169 168 155 155 155 145 145 144 171 171 170 160 160 160 137 137 137 122 122 122 89  89  89  89  89  88  117 117 117 115 115 115 115 115 115 112 112 112 149 149 150 155 156 156 164 164 164 149 150 150 146 146 146 
117 117 117 97  97  97  79  79  78  82  82  82  105 105 105 142 142 142 152 152 152 145 145 144 129 129 129 126 126 126 110 110 110 98  98  98  103 103 103 104 104 104 117 117 117 139 139 139 159 159 159 146 147 146 136 136 136 115 115 115 110 110 110 131 131 131 118 118 118 91  91  91  81  81  81  88  88  88  99  99  99  85  85  85  56  56  56  66  65  65  105 105 105 149 149 149 141 141 141 152 151 152 177 176 176 177 177 177 168 168 168 162 162 162 143 143 143 135 135 135 122 122 122 121 121 120 104 104 104 118 118 118 173 173 173 177 177 177 158 158 158 142 143 142 140 140 140 172 173 172 162 162 162 136 136 135 121 120 120 94  94  94  103 103 103 121 121 121 122 122 122 123 123 123 128 128 128 144 144 144 144 144 144 145 145 145 141 141 141 130 130 130 
94  94  94  92  92  92  84  84  84  110 110 110 127 127 127 144 144 144 147 147 147 158 158 157 144 144 144 131 131 131 110 110 110 101 101 101 127 127 127 145 145 145 159 159 159 162 162 162 152 152 152 141 141 141 123 123 123 106 106 106 88  88  88  107 107 107 118 118 117 125 125 125 120 120 120 118 118 119 103 103 103 78  78  79  52  52  52  97  96  96  160 160 160 189 189 189 169 169 169 160 160 160 181 181 181 176 176 176 150 150 150 150 151 151 127 127 127 141 142 142 120 121 120 121 121 121 100 100 100 117 117 117 167 167 167 159 160 159 145 146 145 125 126 125 121 121 121 145 145 145 148 148 148 124 124 124 113 113 112 106 106 106 123 123 122 130 130 130 135 135 135 124 124 124 122 122 122 126 126 126 138 138 139 133 133 133 131 131 131 109 109 109 
92  92  92  108 108 108 104 104 104 117 117 117 124 124 124 134 134 134 150 150 150 158 158 158 151 151 152 127 127 127 111 111 111 111 111 111 145 145 145 160 160 160 157 157 157 152 152 152 138 138 138 132 132 132 102 102 102 70  70  70  67  67  67  91  91  91  123 123 123 135 135 135 123 123 123 118 118 118 122 122 122 130 130 130 125 125 125 181 180 180 181 181 181 178 177 177 156 155 156 149 148 149 159 159 160 174 174 175 149 149 149 126 127 127 119 120 120 143 143 143 130 131 130 125 125 125 103 103 103 123 123 123 154 154 153 147 147 147 137 137 137 116 116 116 109 109 109 119 119 119 121 121 121 124 124 124 129 128 128 139 139 139 133 133 133 115 115 115 132 132 132 131 131 131 132 132 132 123 123 123 137 137 137 134 134 134 123 122 122 106 106 106 
104 104 104 105 106 105 118 118 118 132 132 132 140 140 140 139 139 139 143 143 143 154 154 154 150 150 150 139 140 140 143 143 143 153 153 153 173 173 173 164 164 164 153 153 153 140 140 140 127 127 127 110 110 110 85  85  85  63  63  63  80  80  80  102 102 102 124 124 124 130 130 130 128 128 128 131 131 131 137 137 137 153 153 153 146 146 146 176 176 176 159 159 160 175 175 175 145 145 145 138 138 138 118 118 118 124 124 124 147 147 147 141 142 141 147 147 147 167 168 168 154 154 154 137 137 137 138 138 138 145 145 145 160 160 160 134 133 134 125 125 125 113 113 113 101 101 101 117 117 117 140 140 140 160 160 160 151 151 151 139 139 139 125 125 125 109 109 109 129 129 129 138 138 138 147 147 147 150 150 150 154 154 154 152 152 152 130 130 130 113 113 113 
104 104 104 93  93  93  123 123 123 134 134 134 146 146 146 151 151 152 161 162 162 163 164 164 157 157 157 150 150 150 163 163 163 164 164 164 163 163 163 149 149 149 141 141 141 131 131 131 118 118 118 81  81  81  65  65  65  72  72  72  119 118 119 154 154 154 166 166 166 156 156 156 149 149 149 156 156 156 168 168 168 169 169 169 149 149 149 167 167 167 149 149 149 160 160 160 140 140 140 128 128 128 122 122 123 124 124 124 182 182 182 180 180 180 172 172 172 167 167 167 160 160 160 146 146 146 153 153 153 148 148 148 162 162 162 148 148 148 134 134 135 127 127 127 109 109 109 130 130 130 155 155 155 165 165 165 153 153 153 140 140 140 117 117 117 95  95  95  117 117 117 143 143 143 159 159 159 163 163 163 149 149 149 146 146 146 142 141 141 114 114 114 
127 127 127 115 115 115 149 149 148 160 160 160 161 161 161 161 162 162 162 162 162 167 167 167 166 166 166 158 158 158 161 161 161 154 154 154 154 154 154 136 136 136 133 133 133 110 111 111 87  87  87  64  64  64  69  69  69  110 110 110 137 137 137 150 150 150 152 152 152 152 152 152 168 168 168 162 162 162 164 164 164 149 149 149 130 131 131 146 146 146 149 149 149 159 159 159 152 152 152 130 130 130 135 135 135 139 139 139 158 158 158 166 166 166 165 165 165 170 170 170 162 162 162 139 139 139 153 153 154 142 142 142 155 156 156 155 155 156 138 137 138 123 123 123 101 101 101 124 124 124 150 150 150 148 148 148 144 144 144 134 134 134 120 120 120 95  95  95  118 118 118 157 157 157 163 163 163 150 150 150 134 134 134 115 114 114 123 123 123 121 121 121 
147 146 146 141 142 141 167 167 167 159 160 160 152 152 152 150 150 150 148 148 148 154 154 154 146 146 146 137 137 137 137 137 137 127 127 127 124 124 124 116 116 116 116 116 116 104 105 104 77  77  77  65  65  65  75  75  75  125 125 125 135 135 135 147 147 148 148 148 148 155 155 155 158 158 158 148 148 148 152 152 152 141 141 141 137 137 137 158 158 158 157 157 157 155 155 155 149 149 149 134 133 134 146 146 146 150 150 150 158 158 158 152 152 152 150 150 150 147 147 147 141 141 140 128 128 128 144 144 144 143 143 143 159 159 159 153 153 153 137 137 137 113 113 113 106 106 106 123 123 123 139 139 139 132 132 132 132 132 132 126 126 126 120 120 121 92  92  92  120 120 120 165 165 165 151 151 151 131 130 130 124 124 124 101 100 100 107 107 107 122 122 122 
141 141 141 144 144 144 170 170 170 154 154 154 157 157 157 153 154 153 144 144 144 142 142 142 130 130 130 118 118 118 107 107 107 114 114 114 130 130 130 127 127 127 107 107 107 94  94  94  69  70  70  74  74  74  96  96  96  141 141 141 140 140 140 139 139 139 150 150 150 151 152 152 131 131 131 130 130 130 135 135 135 151 151 151 155 155 155 149 148 149 131 131 131 123 123 123 119 119 119 112 112 112 130 130 130 144 144 144 146 146 146 142 142 142 147 147 147 144 144 144 132 132 132 107 107 107 114 114 114 129 129 129 157 158 157 147 147 147 129 129 129 116 116 116 119 118 119 133 133 133 142 142 142 149 148 149 149 149 149 128 128 128 117 117 117 95  95  95  124 124 124 169 169 169 154 154 154 132 132 132 119 119 119 109 108 108 113 113 113 121 120 120 
118 118 118 138 138 138 162 162 162 151 151 151 150 151 151 147 147 147 139 139 139 133 133 133 109 108 108 89  89  89  80  80  80  103 103 103 146 146 147 145 145 145 115 115 115 89  89  89  67  67  67  80  80  80  126 127 127 166 166 166 169 169 169 169 169 169 167 167 167 182 183 182 153 153 153 152 152 152 147 147 147 153 152 153 147 147 147 136 135 136 125 125 125 120 120 120 113 112 113 108 108 108 117 117 117 137 136 136 146 146 146 141 141 141 144 144 144 132 132 132 121 121 121 106 106 106 102 102 102 117 117 117 134 134 134 143 144 144 147 147 147 150 150 150 152 152 152 162 162 162 162 162 162 157 157 157 141 140 141 122 122 122 104 104 104 106 106 106 119 119 119 156 156 156 151 151 151 137 138 138 113 113 113 112 112 112 117 116 116 110 110 110 
114 114 114 143 143 143 159 159 159 141 141 141 136 136 136 135 135 135 135 135 135 114 114 113 85  85  85  67  67  67  85  85  85  130 130 130 161 161 161 157 157 157 130 129 129 105 105 105 98  98  98  123 123 123 178 178 178 182 183 183 176 176 176 167 167 166 160 161 161 178 179 178 167 168 168 162 162 162 151 151 151 146 146 146 142 142 142 126 126 126 108 108 108 92  92  92  91  91  91  100 100 100 107 107 107 119 119 119 129 129 129 127 127 127 137 138 138 128 128 128 117 117 117 96  96  96  93  93  93  110 110 110 115 115 115 132 132 132 154 154 154 167 167 167 166 166 166 171 171 171 165 165 165 155 155 155 136 136 136 133 133 132 110 110 110 107 108 107 118 118 118 141 141 141 141 141 142 139 139 139 115 116 116 118 119 118 118 118 118 111 111 111 
126 126 126 151 151 151 147 147 147 141 140 141 129 129 129 139 138 139 132 132 132 110 110 110 80  80  80  68  68  68  95  95  95  147 147 147 162 162 162 153 153 153 143 143 143 137 137 137 140 140 140 157 157 157 196 195 196 178 178 178 174 174 174 167 167 167 163 163 163 161 162 161 166 166 166 162 162 162 143 143 142 127 127 127 121 121 120 103 103 103 85  85  85  80  80  80  81  81  81  93  93  93  105 105 105 106 106 106 112 112 112 106 106 106 118 118 119 113 113 113 101 101 101 88  88  88  92  92  92  101 101 101 104 104 104 127 127 127 165 165 165 172 172 172 167 167 167 170 170 170 167 167 167 157 157 158 145 145 145 162 162 162 148 149 148 124 124 124 124 123 123 139 138 139 149 149 149 144 144 145 144 144 144 128 128 128 119 119 119 118 118 118 
142 142 142 141 141 141 131 131 133 122 122 122 117 116 116 120 119 119 108 108 108 84  84  84  82  82  82  100 100 100 130 130 130 165 165 165 155 155 155 148 148 148 144 144 144 154 154 154 160 160 160 165 165 165 184 184 184 177 177 177 170 170 170 162 162 162 158 158 158 145 145 145 154 154 154 145 145 145 134 134 134 115 115 115 99  99  99  104 104 104 103 103 103 117 117 117 112 113 113 104 104 104 99  99  99  88  88  88  99  99  100 98  98  99  112 112 112 103 103 103 93  93  93  85  85  85  100 100 100 117 117 117 132 132 132 152 152 152 168 168 168 164 164 164 159 159 159 154 154 154 155 155 155 149 149 149 156 156 156 164 164 164 162 162 162 153 153 153 147 147 146 152 151 151 145 145 145 134 134 134 155 155 155 146 146 146 138 139 138 133 133 133 
137 137 137 125 125 125 122 122 122 107 107 107 96  96  96  90  90  90  81  81  81  81  81  82  102 102 102 122 122 122 148 148 148 169 169 169 148 148 148 144 144 144 142 142 142 164 164 164 170 170 170 158 158 158 171 171 171 180 180 180 172 172 172 160 160 160 150 150 150 132 132 132 144 144 144 132 132 131 116 116 116 100 100 100 85  85  85  111 111 111 99  99  99  111 111 111 124 124 124 119 119 119 111 111 111 92  92  92  101 101 102 114 114 114 129 129 129 122 122 122 106 106 106 91  91  91  112 112 112 130 130 130 156 156 155 163 163 163 165 165 165 170 170 170 160 160 160 159 158 159 157 157 157 148 148 148 152 152 152 152 152 152 147 148 147 153 153 153 154 154 153 155 155 155 146 147 146 138 138 138 153 153 153 146 146 146 143 143 143 130 130 130 
124 124 124 97  97  97  88  88  88  76  76  76  77  77  77  78  78  78  83  83  83  99  99  99  139 139 139 149 149 149 155 155 155 168 168 168 159 159 159 150 150 150 154 154 154 171 171 171 160 160 160 155 155 155 163 163 163 168 168 168 162 162 162 152 152 152 138 138 138 120 120 120 135 135 135 129 129 129 107 107 107 94  94  94  95  95  95  115 115 115 117 117 117 112 112 112 137 137 137 132 132 132 137 137 137 134 134 134 145 145 145 150 150 150 147 147 147 135 135 135 120 120 120 110 110 110 146 147 146 163 163 163 176 176 176 163 163 162 152 151 151 150 150 150 156 156 156 158 158 158 154 154 154 147 147 147 148 148 148 144 144 144 125 125 125 152 152 152 172 172 172 179 179 179 163 164 163 140 140 140 137 137 137 130 130 130 139 139 139 127 127 126 
107 107 107 83  83  83  70  70  70  74  74  74  75  75  75  88  88  88  116 116 116 148 148 148 162 162 162 139 139 139 139 138 139 162 162 162 171 171 172 153 153 153 156 156 156 162 162 162 158 158 158 152 152 152 151 151 151 150 150 150 144 144 144 137 136 137 129 129 129 120 120 120 126 126 126 136 137 136 125 125 125 132 131 131 137 137 137 127 127 127 113 113 113 99  99  99  128 127 127 142 142 142 149 149 149 149 150 150 145 145 145 148 148 148 139 139 139 139 139 139 137 137 137 132 132 132 165 165 165 174 175 175 175 175 175 153 153 152 142 142 142 136 135 136 141 141 141 153 153 153 165 165 165 162 162 162 157 157 157 136 136 136 106 106 106 155 155 155 165 165 165 168 168 168 154 155 154 132 132 132 115 115 115 123 123 123 132 132 132 128 128 128 
92  92  92  86  86  86  90  90  90  103 103 103 104 104 104 121 121 121 162 162 163 168 168 168 151 151 151 144 144 144 155 155 155 171 171 171 179 179 179 167 167 167 166 166 166 155 155 155 145 145 145 141 141 141 146 146 146 143 143 143 127 127 127 116 116 116 116 116 116 118 118 118 118 118 118 137 137 137 152 152 152 154 154 154 157 157 157 135 135 135 132 132 132 122 122 122 131 131 131 139 139 139 140 140 140 145 145 145 136 136 136 131 131 131 130 130 130 134 134 134 140 140 140 136 136 136 152 152 152 161 162 162 164 164 164 147 147 147 143 143 143 127 127 127 127 127 127 130 129 130 157 157 157 156 156 156 148 148 149 132 132 132 105 106 105 160 160 160 160 160 160 160 160 160 143 143 143 120 120 120 126 126 125 147 147 147 141 141 141 128 128 128 
135 134 134 133 133 132 155 155 155 130 130 130 109 109 109 121 121 121 160 160 161 160 160 160 152 153 152 154 154 154 175 175 175 172 172 172 174 175 175 162 162 162 171 170 170 170 169 169 160 160 160 139 138 138 126 126 126 129 129 129 108 107 108 100 100 100 97  97  96  112 112 111 111 111 111 135 135 135 165 165 165 162 162 162 146 146 146 109 109 109 113 113 113 152 152 152 155 155 155 166 166 166 158 158 158 150 150 150 137 137 137 118 118 118 151 151 151 152 153 152 158 159 158 149 149 149 146 146 146 155 155 155 156 156 156 136 136 136 123 123 124 117 117 117 124 124 124 125 125 125 156 156 156 149 149 149 148 148 148 117 117 117 91  91  91  144 144 144 157 157 157 143 143 143 123 123 123 114 115 115 136 136 136 165 165 165 165 165 165 147 147 147 
153 154 153 133 133 133 147 148 148 167 167 167 157 157 157 154 154 154 163 163 163 159 159 159 154 154 154 165 165 165 171 171 171 164 165 164 166 166 166 153 153 153 163 163 163 165 165 165 164 164 164 157 157 157 131 131 131 126 126 126 110 110 110 97  97  97  103 103 103 128 128 128 136 136 136 143 143 143 164 164 164 156 156 157 145 145 145 128 128 128 153 153 153 183 183 183 162 163 163 152 152 152 142 142 142 145 145 145 135 135 135 130 130 130 161 161 161 158 160 160 147 147 147 134 134 134 133 133 133 136 136 136 142 142 142 128 128 128 128 128 128 120 120 120 127 127 127 130 130 130 150 150 150 141 141 141 134 134 134 106 106 106 86  86  86  120 120 120 145 144 145 119 119 119 113 113 113 124 124 124 150 150 150 163 163 164 177 177 177 161 161 161 
156 156 155 130 130 130 126 127 126 156 156 156 169 169 169 163 163 163 168 168 168 182 182 182 177 177 177 171 171 171 167 167 167 155 155 155 155 155 155 142 142 142 155 155 155 155 155 155 143 143 143 148 148 148 138 138 138 126 126 126 109 109 109 94  94  94  101 101 101 144 144 144 151 151 151 156 156 156 167 167 167 158 158 158 151 151 151 145 145 145 162 162 162 172 173 173 160 161 161 161 161 162 143 143 143 151 151 151 164 163 164 163 163 163 171 171 171 165 165 165 146 146 146 131 131 131 122 122 122 134 134 134 133 133 133 127 127 127 124 124 124 123 123 123 128 128 128 129 130 129 139 139 138 130 130 130 122 122 122 100 100 100 89  89  89  113 113 113 148 148 148 145 145 145 143 143 143 154 154 155 160 160 160 148 148 148 166 166 166 163 163 163 
152 152 152 142 143 142 141 141 141 162 162 162 166 166 166 157 157 157 158 158 158 180 180 179 167 167 167 161 161 160 160 160 160 153 153 153 147 146 147 132 132 132 133 133 133 141 141 141 125 125 125 124 124 124 131 131 131 126 126 126 117 117 117 100 100 100 109 109 109 155 155 156 154 154 154 154 154 154 153 153 153 163 163 163 181 181 181 171 171 171 172 173 172 171 171 171 161 161 161 150 150 150 119 120 120 128 128 128 153 153 153 157 157 157 155 155 155 140 140 140 133 133 133 138 138 138 134 134 134 148 148 148 138 138 138 139 139 139 120 120 120 108 108 108 106 106 106 117 117 117 114 114 114 106 106 106 89  89  88  99  99  99  107 107 107 118 118 118 131 131 130 155 155 155 166 166 166 164 164 164 156 156 156 147 146 146 146 146 146 175 175 174 
164 164 164 150 151 150 151 151 151 146 146 146 146 146 146 134 134 134 147 147 147 162 162 161 148 148 148 137 137 137 145 145 145 151 151 151 139 138 139 135 135 135 118 118 118 129 129 129 113 113 113 106 106 106 129 129 129 127 127 127 112 112 112 103 103 103 118 118 117 160 160 160 155 155 155 154 155 155 152 152 152 156 157 156 167 167 167 152 152 152 151 151 151 159 159 159 154 154 154 144 145 144 128 128 128 135 135 135 169 169 169 167 167 167 150 150 150 132 132 132 142 142 142 173 173 173 174 174 174 165 165 165 150 150 150 128 128 129 104 104 104 96  96  96  97  97  97  116 116 116 115 115 115 117 118 117 97  97  97  108 108 108 109 109 109 116 116 116 121 121 121 149 150 149 177 176 176 164 164 164 150 150 150 136 136 136 130 129 130 163 163 163 
148 148 148 154 154 154 149 151 149 148 148 148 137 137 137 118 118 117 128 128 128 145 145 145 133 133 133 117 117 117 123 123 123 148 148 148 127 127 126 118 118 118 102 102 102 114 114 114 127 127 127 124 124 124 136 136 136 124 124 124 119 119 119 120 120 120 141 141 141 168 168 168 161 161 161 154 154 154 151 151 151 151 151 151 160 160 160 141 142 142 154 155 155 160 160 160 166 166 166 153 153 153 137 137 137 131 131 131 148 148 148 158 158 158 158 158 158 154 154 154 168 168 168 177 177 177 174 173 173 157 157 157 133 133 133 97  97  97  75  75  75  85  85  85  111 111 111 134 134 133 136 136 136 132 132 132 108 108 107 105 105 105 101 101 100 119 119 119 141 141 141 158 159 158 163 163 163 156 156 156 145 145 145 141 141 141 134 134 134 147 147 147 
121 121 121 138 138 138 144 144 144 143 143 142 131 131 130 110 110 110 115 115 115 130 130 130 126 126 126 120 120 120 112 112 112 142 142 142 131 131 131 117 117 117 97  97  97  98  98  98  107 107 107 133 133 133 152 152 152 139 139 139 127 127 127 130 130 130 153 153 153 167 167 168 166 166 166 155 155 155 147 147 147 140 140 140 154 155 155 153 153 153 172 172 172 171 171 171 172 172 172 155 155 155 141 141 141 135 135 135 147 147 147 164 164 164 171 171 171 171 171 171 170 170 170 166 166 166 160 160 160 147 146 147 134 134 134 111 111 111 106 106 106 143 143 142 172 172 172 167 167 167 148 148 148 148 149 148 105 105 105 99  98  98  118 118 118 130 130 130 141 142 141 145 145 145 147 147 147 140 140 140 136 136 136 132 132 132 131 131 131 127 127 127 
108 108 108 129 129 129 149 149 148 147 147 147 125 125 125 106 106 106 124 124 124 158 158 158 141 140 140 124 124 124 108 108 108 131 131 131 127 127 127 123 123 123 105 105 106 104 104 104 97  97  97  135 135 135 154 154 154 158 158 158 145 145 145 146 146 146 162 162 162 159 159 159 153 153 153 141 141 141 125 125 125 126 126 126 159 160 160 159 160 160 166 166 166 154 154 154 160 160 160 159 158 158 140 140 140 129 129 129 140 140 140 156 156 156 169 169 169 163 163 163 159 159 159 144 145 145 137 137 137 140 140 140 147 147 147 149 149 149 152 152 151 181 181 181 189 189 189 167 167 167 138 138 138 125 125 125 88  88  88  89  89  89  159 158 158 154 154 153 156 156 156 144 144 144 144 144 144 131 131 131 127 127 127 125 125 125 128 128 128 115 115 115 
106 106 106 113 113 113 124 124 124 135 135 135 127 127 127 126 125 126 147 147 147 170 170 170 154 154 154 140 140 140 112 112 112 130 130 130 137 137 138 145 145 145 122 122 122 112 112 112 105 105 105 151 151 151 162 162 162 165 165 165 151 151 151 146 146 146 172 172 172 155 154 154 140 140 140 133 133 133 104 104 104 107 107 107 162 162 162 164 164 164 159 159 159 157 157 157 146 146 146 144 144 144 129 129 129 140 140 140 154 154 154 163 163 163 166 166 166 153 153 153 150 150 150 129 130 130 130 130 130 158 158 158 176 176 176 171 171 171 158 158 158 172 172 173 190 190 190 179 179 179 140 139 140 104 104 104 80  80  80  106 106 106 189 189 189 169 169 169 159 159 159 144 144 144 136 136 136 119 119 119 112 112 112 114 114 114 112 112 112 107 107 107 
96  96  96  109 109 109 110 110 110 118 118 118 130 130 130 138 138 138 147 147 148 160 160 160 148 148 148 123 123 123 103 103 103 135 135 135 152 152 152 150 151 150 127 127 127 124 124 124 130 130 130 171 170 171 163 163 163 160 160 160 156 156 156 147 148 148 165 165 166 168 168 168 142 142 142 128 127 127 106 106 106 100 100 100 150 150 150 163 163 163 158 158 158 144 144 144 131 131 131 133 133 133 126 126 126 127 127 127 130 130 130 138 138 138 146 146 146 141 141 141 147 147 147 131 131 131 118 118 118 149 149 150 174 174 174 160 160 160 135 135 135 147 147 147 180 181 181 182 182 183 171 171 171 153 152 153 116 116 116 133 133 133 184 184 184 165 165 165 168 168 167 162 163 163 162 162 162 147 147 147 120 120 119 105 105 105 86  86  86  89  89  89  
92  92  92  107 107 107 113 113 113 116 116 116 128 128 128 133 132 133 138 138 138 142 142 142 141 141 141 123 123 123 110 110 110 156 156 156 158 158 158 148 148 148 115 115 115 132 132 132 166 166 166 183 183 182 179 179 179 171 171 171 163 163 163 145 145 145 139 139 139 155 155 155 154 154 154 143 143 143 125 125 125 104 104 104 126 126 126 152 152 152 153 153 152 138 138 138 127 128 128 118 119 119 118 118 118 123 123 123 120 120 120 119 119 118 141 141 141 143 143 143 139 139 139 121 121 121 119 119 119 152 151 152 165 165 165 152 152 152 120 119 119 147 148 147 187 188 187 180 180 180 158 158 158 135 135 135 123 123 123 158 158 157 178 178 178 168 168 168 160 160 160 154 154 154 149 149 149 143 143 143 142 142 142 135 135 135 103 103 103 90  91  91  
130 130 130 113 113 113 116 116 116 110 110 110 127 127 127 126 126 126 133 132 132 136 136 136 134 134 134 119 119 119 120 120 120 155 155 155 147 148 147 116 116 116 105 105 105 143 143 143 172 172 172 162 162 162 155 155 155 164 164 164 149 148 149 138 137 138 121 121 121 133 133 133 141 141 141 140 141 140 120 120 120 99  99  99  109 110 109 144 144 144 155 155 155 133 133 133 116 116 116 115 116 115 115 115 115 115 115 115 105 105 105 104 104 103 118 118 118 135 135 135 134 134 134 130 130 130 127 127 127 146 146 146 148 148 148 141 141 141 125 125 125 149 149 149 169 169 169 167 168 168 163 163 163 148 148 148 114 114 113 138 138 138 185 185 185 178 178 178 165 165 165 153 153 153 142 143 142 131 131 131 129 129 129 124 124 124 118 118 118 115 115 115 
160 160 160 132 131 131 120 120 120 96  96  96  101 101 101 106 106 106 123 122 122 128 128 128 126 126 126 118 118 118 120 120 120 147 147 146 134 134 134 91  91  91  112 112 112 166 165 166 173 173 173 157 157 157 151 151 151 151 151 151 141 141 140 134 134 134 115 115 115 119 119 119 122 122 122 123 123 123 102 102 102 84  84  84  100 100 100 143 143 143 147 147 147 127 127 127 113 113 113 110 110 110 98  98  98  87  87  87  70  70  70  67  67  67  89  89  89  122 122 122 137 137 137 126 126 126 128 128 129 139 139 139 133 132 133 126 126 126 125 124 124 141 141 141 146 146 146 157 157 157 142 142 142 131 131 131 122 122 122 156 156 156 191 191 191 175 175 175 161 161 161 149 150 149 137 137 137 124 124 124 122 122 122 110 110 110 121 120 120 130 130 130 
150 150 150 135 135 135 109 109 109 102 103 103 105 105 105 123 122 123 130 129 129 131 131 131 120 120 120 111 111 111 106 106 106 114 114 114 100 100 100 88  88  88  135 135 135 159 159 159 147 147 147 122 122 122 121 121 121 131 131 130 129 129 129 116 116 116 102 102 102 102 102 102 113 113 113 95  95  95  72  72  72  87  87  87  131 131 131 159 160 159 149 149 149 136 136 136 125 125 125 116 116 116 103 102 103 91  91  91  75  75  75  85  85  85  124 124 124 138 138 138 132 132 132 124 124 124 123 123 123 133 132 133 129 129 129 124 124 124 118 118 118 119 119 119 117 117 117 147 147 147 154 154 154 153 153 153 128 128 128 148 148 148 145 146 145 140 140 140 137 137 137 144 144 144 145 145 145 129 129 129 127 127 127 104 104 104 123 123 123 131 131 131 
