P3
64 64
255
38  249 255 17  184 255 3   138 255 8   155 255 8   155 255 30  224 255 40  255 255 40  255 255 39  253 255 21  199 255 0   128 255 3   139 255 5   144 255 1   133 255 6   149 255 7   150 255 3   140 255 2   136 255 3   137 255 0   128 255 6   148 255 20  193 255 37  248 255 40  255 255 40  255 255 39  254 255 40  255 255 40  255 255 40  255 255 39  254 255 39  253 255 39  255 255 39  253 255 30  223 255 38  252 255 40  255 255 36  244 255 36  244 255 37  250 255 24  205 255 10  160 255 0   128 255 0   128 255 4   143 255 6   149 255 4   141 255 5   144 255 9   156 255 1   132 255 1   132 255 0   128 255 0   128 255 25  209 255 40  255 255 40  255 255 29  220 255 0   128 255 1   132 255 1   133 255 0   130 255 0   128 255 0   128 255 30  225 255 79  255 255 
37  247 255 51  210 255 48  206 255 63  229 255 63  230 255 77  253 255 79  255 255 79  255 255 71  244 255 29  175 255 7   147 255 20  160 255 4   134 255 4   141 255 10  144 255 10  145 255 0   129 255 0   128 255 0   128 255 3   137 255 44  200 255 73  246 255 77  253 255 78  253 255 72  246 255 71  242 255 76  250 255 76  250 255 74  247 255 73  247 255 77  252 255 78  255 255 74  247 255 23  165 255 45  201 255 71  243 255 63  230 255 63  230 255 70  241 255 34  182 255 1   132 255 0   129 255 2   134 255 0   128 255 1   132 255 2   135 255 8   142 255 19  159 255 10  145 255 15  152 255 6   145 255 1   131 255 48  206 255 78  254 255 79  255 255 62  229 255 8   142 255 0   128 255 1   130 255 5   136 255 2   135 255 17  170 255 107 248 255 78  255 255 
40  255 255 77  252 255 113 252 255 116 255 255 116 255 255 116 255 255 115 254 255 115 255 255 113 252 255 40  191 255 2   135 255 15  153 255 1   133 255 0   128 255 4   141 255 3   136 255 3   138 255 0   128 255 5   144 255 58  219 255 110 249 255 106 244 255 87  225 255 75  211 255 66  200 255 38  170 255 50  182 255 89  227 255 97  235 255 86  223 255 98  236 255 116 255 255 106 245 255 36  167 255 18  156 255 70  205 255 84  220 255 105 245 255 73  233 255 17  171 255 0   128 255 0   130 255 6   138 255 3   136 255 0   128 255 0   128 255 2   134 255 14  150 255 20  150 255 15  144 255 10  144 255 5   136 255 41  174 255 107 245 255 115 254 255 101 239 255 23  153 255 2   130 255 9   137 255 19  148 255 40  191 255 78  237 255 114 255 255 79  255 255 
39  254 255 78  255 255 116 255 255 113 253 255 86  248 255 74  238 255 82  240 255 123 255 255 111 255 255 53  217 255 0   128 255 0   128 255 1   130 255 1   133 255 0   128 255 0   128 255 3   136 255 25  183 255 69  234 255 115 252 255 141 247 255 106 218 255 22  146 255 31  154 255 49  169 255 20  145 255 12  138 255 81  197 255 113 224 255 91  205 255 111 222 255 149 255 255 95  232 255 17  155 255 6   137 255 29  172 255 66  199 255 108 237 255 72  231 255 13  162 255 0   128 255 3   139 255 1   132 255 7   139 255 6   146 255 2   135 255 11  145 255 21  150 255 19  144 255 7   133 255 10  139 255 10  138 255 45  166 255 129 237 255 150 255 255 135 243 255 54  173 255 11  137 255 36  158 255 94  208 255 108 245 255 149 255 255 111 252 255 73  250 255 
39  254 255 79  255 255 82  248 255 45  201 255 19  173 255 9   152 255 19  174 255 69  230 255 122 254 255 93  247 255 35  201 255 30  176 255 25  155 255 9   142 255 9   152 255 33  196 255 62  224 255 85  242 255 116 251 255 138 245 255 103 201 255 44  159 255 11  135 255 55  167 255 93  193 255 56  167 255 5   131 255 77  182 255 117 210 255 74  180 255 102 214 255 114 253 255 47  203 255 0   129 255 0   128 255 4   140 255 24  166 255 80  214 255 90  227 255 25  168 255 0   128 255 0   128 255 0   128 255 3   138 255 11  146 255 4   134 255 9   137 255 17  142 255 20  142 255 2   129 255 14  140 255 24  148 255 91  192 255 175 251 255 181 255 255 176 252 255 156 238 255 147 232 255 135 236 255 177 251 255 155 255 255 148 255 255 114 254 255 73  250 255 
39  255 255 78  253 255 31  211 255 0   128 255 0   128 255 0   128 255 0   128 255 9   153 255 73  236 255 121 254 255 96  250 255 105 243 255 122 231 255 91  227 255 70  233 255 94  249 255 114 251 255 125 250 255 143 249 255 124 216 255 9   133 255 1   128 255 35  149 255 103 191 255 133 209 255 97  188 255 29  146 255 81  178 255 114 198 255 78  176 255 141 228 255 146 252 255 63  197 255 0   128 255 0   128 255 1   129 255 9   137 255 71  188 255 97  227 255 49  199 255 13  161 255 0   128 255 0   128 255 3   139 255 11  145 255 9   142 255 10  138 255 15  141 255 24  145 255 20  140 255 27  146 255 34  151 255 113 197 255 204 253 255 205 254 255 205 254 255 181 255 255 152 255 255 147 254 255 151 255 255 155 255 255 140 255 255 116 255 255 79  255 255 
37  249 255 55  217 255 9   154 255 0   128 255 5   143 255 2   135 255 3   137 255 4   134 255 77  211 255 150 253 255 134 254 255 149 254 255 177 253 255 147 252 255 119 251 255 129 250 255 143 247 255 142 245 255 168 246 255 131 209 255 27  143 255 74  169 255 124 197 255 135 203 255 134 203 255 137 205 255 116 198 255 133 208 255 169 222 255 178 227 255 196 249 255 179 254 255 111 222 255 14  143 255 2   131 255 6   138 255 0   128 255 59  178 255 116 221 255 92  222 255 57  210 255 17  170 255 1   133 255 6   138 255 8   141 255 4   135 255 6   137 255 2   130 255 8   134 255 31  149 255 45  155 255 32  147 255 108 188 255 217 249 255 203 253 255 187 254 255 177 253 255 110 247 255 96  233 255 79  214 255 117 217 255 131 247 255 114 255 255 79  255 255 
19  191 255 17  155 255 9   142 255 1   133 255 2   136 255 4   134 255 9   143 255 10  138 255 90  204 255 177 252 255 167 255 255 181 255 255 143 249 255 115 225 255 121 230 255 132 236 255 168 245 255 171 246 255 180 239 255 108 188 255 70  164 255 153 208 255 164 214 255 106 183 255 80  172 255 167 229 255 198 250 255 178 250 255 199 249 255 222 252 255 205 254 255 182 255 255 129 236 255 23  153 255 0   128 255 6   137 255 5   136 255 45  177 255 104 216 255 114 224 255 93  229 255 45  199 255 3   133 255 1   129 255 0   128 255 0   128 255 2   135 255 2   131 255 13  142 255 42  163 255 53  165 255 28  145 255 134 203 255 206 252 255 183 253 255 149 247 255 108 219 255 37  187 255 20  161 255 4   134 255 18  147 255 102 217 255 106 251 255 62  236 255 
3   137 255 15  153 255 21  160 255 5   142 255 0   128 255 1   133 255 2   131 255 13  142 255 102 214 255 179 254 255 179 254 255 147 252 255 91  227 255 40  172 255 43  175 255 85  199 255 163 242 255 199 250 255 200 240 255 143 203 255 126 191 255 174 216 255 170 216 255 114 191 255 121 201 255 177 249 255 180 255 255 155 255 255 178 253 255 201 251 255 180 254 255 152 255 255 120 249 255 65  208 255 11  150 255 0   128 255 1   132 255 26  170 255 78  213 255 107 218 255 95  224 255 55  208 255 15  157 255 0   128 255 0   130 255 2   134 255 13  148 255 27  157 255 39  161 255 73  179 255 66  168 255 51  156 255 156 222 255 181 252 255 153 252 255 96  224 255 35  166 255 0   128 255 0   128 255 13  162 255 50  199 255 113 238 255 85  242 255 24  182 255 
5   146 255 20  160 255 21  151 255 16  153 255 3   139 255 3   132 255 8   136 255 35  157 255 136 223 255 178 253 255 136 243 255 77  212 255 26  171 255 8   142 255 18  156 255 46  177 255 133 240 255 181 254 255 206 254 255 219 250 255 218 242 255 217 241 255 213 245 255 189 242 255 177 249 255 155 254 255 147 252 255 115 249 255 138 243 255 152 235 255 163 242 255 147 252 255 127 255 255 99  252 255 40  207 255 0   128 255 1   133 255 31  177 255 70  204 255 96  209 255 111 217 255 92  222 255 57  206 255 18  172 255 9   142 255 11  146 255 28  159 255 54  174 255 73  179 255 94  185 255 84  175 255 90  182 255 155 234 255 147 247 255 95  226 255 35  177 255 10  145 255 4   134 255 3   136 255 45  199 255 100 237 255 117 251 255 59  216 255 7   147 255 
7   151 255 16  154 255 15  145 255 16  153 255 1   131 255 4   134 255 15  145 255 112 223 255 177 252 255 141 248 255 62  196 255 15  153 255 0   128 255 0   128 255 2   135 255 15  151 255 96  231 255 151 255 255 182 255 255 207 255 255 219 250 255 213 246 255 209 254 255 181 252 255 152 252 255 113 245 255 80  216 255 55  211 255 68  201 255 47  167 255 74  190 255 74  206 255 102 240 255 117 253 255 96  247 255 40  207 255 28  172 255 57  190 255 84  198 255 110 205 255 123 212 255 115 221 255 95  223 255 63  216 255 69  203 255 56  188 255 64  182 255 51  163 255 100 189 255 108 188 255 121 201 255 165 241 255 133 237 255 70  200 255 16  152 255 3   135 255 0   128 255 3   139 255 40  191 255 103 239 255 151 254 255 114 251 255 40  192 255 2   134 255 
7   151 255 13  148 255 6   138 255 3   132 255 0   128 255 21  176 255 77  233 255 122 249 255 146 252 255 114 224 255 9   137 255 0   128 255 0   128 255 5   142 255 12  147 255 21  150 255 114 224 255 181 254 255 206 255 255 219 250 255 187 231 255 182 238 255 183 254 255 149 249 255 101 233 255 42  191 255 11  146 255 6   146 255 12  147 255 15  145 255 10  138 255 16  152 255 24  167 255 49  205 255 106 242 255 98  250 255 105 243 255 119 228 255 106 202 255 79  176 255 78  175 255 140 223 255 146 243 255 122 249 255 144 249 255 140 245 255 147 231 255 148 219 255 189 234 255 212 239 255 207 242 255 189 242 255 111 204 255 16  141 255 6   134 255 28  168 255 39  206 255 63  226 255 104 240 255 148 253 255 152 254 255 112 248 255 38  186 255 5   142 255 
5   144 255 8   141 255 1   131 255 0   128 255 4   141 255 58  217 255 119 254 255 148 253 255 145 251 255 76  203 255 1   129 255 15  144 255 11  140 255 6   137 255 6   134 255 5   132 255 129 219 255 192 253 255 202 252 255 193 235 255 143 214 255 158 236 255 154 254 255 117 250 255 60  217 255 8   150 255 0   128 255 0   128 255 1   133 255 10  144 255 0   128 255 2   133 255 0   128 255 4   140 255 64  227 255 119 255 255 151 255 255 174 249 255 152 222 255 145 209 255 151 219 255 198 250 255 181 255 255 159 255 255 181 255 255 182 255 255 207 255 255 225 254 255 241 254 255 245 251 255 222 244 255 161 218 255 57  162 255 26  146 255 31  153 255 82  210 255 95  247 255 115 252 255 149 253 255 179 254 255 148 253 255 95  231 255 17  155 255 1   131 255 
0   128 255 6   137 255 26  164 255 32  195 255 62  223 255 114 250 255 148 251 255 148 253 255 118 245 255 36  178 255 1   129 255 16  154 255 8   136 255 0   128 255 1   128 255 21  143 255 164 235 255 179 254 255 171 248 255 171 233 255 178 227 255 179 238 255 172 249 255 144 249 255 85  221 255 14  150 255 0   129 255 5   144 255 7   140 255 20  150 255 11  140 255 11  146 255 1   133 255 5   136 255 53  185 255 133 240 255 178 253 255 201 251 255 218 249 255 203 249 255 194 247 255 174 251 255 140 246 255 130 238 255 137 242 255 169 246 255 202 251 255 226 254 255 243 255 255 242 250 255 214 236 255 152 207 255 109 188 255 152 219 255 144 226 255 146 244 255 126 251 255 127 252 255 155 252 255 179 254 255 149 253 255 105 242 255 24  166 255 1   132 255 
25  209 255 60  225 255 105 243 255 97  253 255 118 254 255 150 252 255 127 230 255 120 248 255 81  241 255 14  162 255 0   128 255 4   141 255 0   128 255 5   133 255 11  137 255 79  183 255 152 244 255 146 252 255 134 241 255 147 231 255 172 234 255 198 239 255 197 249 255 177 253 255 132 240 255 46  178 255 10  144 255 16  152 255 18  155 255 23  153 255 17  146 255 8   141 255 7   139 255 8   136 255 34  156 255 137 225 255 199 250 255 218 250 255 205 250 255 171 243 255 143 229 255 108 219 255 70  204 255 65  200 255 66  199 255 97  209 255 149 231 255 197 248 255 227 254 255 230 248 255 217 237 255 194 229 255 184 230 255 189 245 255 168 246 255 138 245 255 101 239 255 99  237 255 116 245 255 157 253 255 168 254 255 136 254 255 81  228 255 41  209 255 
39  254 255 78  254 255 113 253 255 122 254 255 153 255 255 177 251 255 155 237 255 147 252 255 108 245 255 28  172 255 0   130 255 4   135 255 14  143 255 44  165 255 104 201 255 148 240 255 129 248 255 100 238 255 91  227 255 116 226 255 146 230 255 184 241 255 207 254 255 182 255 255 151 252 255 114 224 255 40  172 255 14  149 255 8   141 255 10  145 255 13  148 255 3   133 255 0   128 255 5   133 255 66  184 255 170 248 255 205 254 255 190 244 255 131 216 255 92  201 255 71  188 255 54  187 255 28  172 255 21  162 255 22  162 255 47  179 255 113 223 255 171 247 255 204 253 255 212 246 255 202 234 255 194 236 255 181 239 255 162 242 255 133 241 255 80  216 255 35  185 255 34  183 255 62  215 255 119 248 255 176 254 255 147 254 255 116 255 255 78  254 255 
34  238 255 58  222 255 74  209 255 110 221 255 162 242 255 195 248 255 199 250 255 180 255 255 146 251 255 73  208 255 26  170 255 42  174 255 91  205 255 138 225 255 158 248 255 133 254 255 88  240 255 40  194 255 33  182 255 46  179 255 84  199 255 124 216 255 166 243 255 149 249 255 145 251 255 114 243 255 76  221 255 23  172 255 0   128 255 1   132 255 1   131 255 0   128 255 3   137 255 20  159 255 82  217 255 149 252 255 173 249 255 106 201 255 55  172 255 44  172 255 42  174 255 17  156 255 1   133 255 0   128 255 3   137 255 36  183 255 86  221 255 144 249 255 180 254 255 185 242 255 168 221 255 157 225 255 154 237 255 130 238 255 90  226 255 30  177 255 1   133 255 0   128 255 15  166 255 77  237 255 124 253 255 143 254 255 109 255 255 75  252 255 
2   136 255 1   130 255 12  141 255 32  155 255 69  176 255 122 203 255 194 237 255 203 253 255 178 254 255 135 243 255 88  225 255 112 223 255 168 247 255 165 253 255 135 254 255 97  251 255 36  202 255 0   128 255 0   130 255 17  155 255 53  185 255 71  188 255 76  191 255 89  221 255 103 241 255 119 248 255 111 248 255 54  213 255 3   138 255 11  146 255 21  162 255 22  179 255 51  208 255 98  232 255 146 250 255 180 254 255 161 239 255 55  172 255 24  152 255 15  149 255 11  146 255 1   130 255 3   132 255 2   134 255 13  148 255 67  201 255 128 236 255 158 253 255 179 253 255 155 223 255 79  172 255 100 184 255 153 222 255 151 234 255 88  203 255 19  148 255 0   128 255 0   128 255 15  153 255 97  235 255 165 253 255 127 248 255 83  234 255 37  202 255 
0   128 255 4   140 255 23  164 255 45  176 255 41  162 255 60  170 255 108 194 255 197 238 255 203 253 255 181 255 255 147 252 255 171 249 255 204 254 255 186 254 255 149 248 255 105 235 255 51  201 255 13  162 255 26  169 255 60  193 255 73  190 255 68  185 255 40  170 255 12  146 255 34  183 255 72  230 255 122 251 255 113 249 255 67  233 255 100 237 255 92  228 255 81  238 255 114 250 255 147 252 255 173 250 255 181 252 255 151 249 255 69  197 255 3   132 255 7   145 255 0   128 255 0   128 255 1   129 255 10  144 255 66  200 255 131 238 255 147 247 255 143 250 255 142 246 255 127 216 255 62  166 255 19  138 255 138 205 255 172 234 255 120 213 255 28  151 255 0   128 255 27  172 255 72  207 255 134 242 255 125 253 255 82  242 255 29  199 255 0   128 255 
3   140 255 16  154 255 41  173 255 65  183 255 37  159 255 21  146 255 44  159 255 139 214 255 208 244 255 201 252 255 180 255 255 206 254 255 220 251 255 192 243 255 146 227 255 110 216 255 79  208 255 48  196 255 62  195 255 86  201 255 78  193 255 56  187 255 28  169 255 3   137 255 0   128 255 15  165 255 71  229 255 125 254 255 118 254 255 149 254 255 122 254 255 92  248 255 68  232 255 67  201 255 95  208 255 168 246 255 177 253 255 109 220 255 38  170 255 24  167 255 0   129 255 4   135 255 43  176 255 87  223 255 144 249 255 155 254 255 113 236 255 92  230 255 105 231 255 116 223 255 92  191 255 38  150 255 116 195 255 185 231 255 163 228 255 100 198 255 70  187 255 83  219 255 129 237 255 170 247 255 145 250 255 101 238 255 26  169 255 0   130 255 
5   146 255 20  161 255 45  178 255 43  175 255 18  147 255 5   133 255 11  137 255 94  194 255 172 234 255 211 245 255 203 253 255 217 249 255 201 233 255 153 212 255 129 206 255 105 200 255 83  196 255 50  181 255 41  162 255 53  165 255 55  173 255 49  179 255 36  182 255 8   151 255 0   128 255 0   130 255 44  199 255 112 251 255 150 254 255 119 251 255 70  231 255 37  188 255 5   143 255 1   129 255 14  143 255 92  206 255 171 248 255 171 248 255 135 243 255 100 238 255 57  221 255 87  224 255 134 241 255 149 252 255 153 252 255 116 239 255 63  211 255 24  167 255 42  185 255 97  224 255 127 227 255 117 206 255 126 210 255 166 225 255 184 231 255 165 229 255 141 228 255 130 238 255 168 246 255 175 250 255 134 240 255 55  187 255 13  149 255 3   137 255 
7   150 255 21  162 255 43  175 255 28  158 255 3   133 255 1   129 255 3   131 255 75  192 255 144 229 255 183 241 255 218 250 255 222 244 255 213 235 255 181 222 255 144 208 255 109 195 255 95  194 255 59  178 255 26  146 255 29  146 255 42  157 255 42  163 255 46  178 255 16  154 255 1   133 255 0   128 255 19  174 255 83  243 255 126 254 255 81  247 255 23  189 255 0   128 255 0   128 255 5   143 255 2   131 255 17  146 255 117 226 255 176 252 255 178 253 255 148 253 255 114 253 255 148 254 255 180 255 255 157 255 255 129 251 255 67  215 255 12  155 255 0   128 255 21  176 255 81  239 255 123 250 255 156 250 255 152 245 255 161 235 255 177 232 255 194 236 255 181 240 255 161 242 255 199 249 255 179 253 255 134 241 255 28  159 255 9   143 255 7   148 255 
5   146 255 19  158 255 22  163 255 4   134 255 0   128 255 2   134 255 24  166 255 77  212 255 116 225 255 154 236 255 202 252 255 223 252 255 238 253 255 229 243 255 149 206 255 108 188 255 100 189 255 88  189 255 72  172 255 77  171 255 70  171 255 54  166 255 64  182 255 30  161 255 6   138 255 1   131 255 33  180 255 108 246 255 119 254 255 74  241 255 9   154 255 0   128 255 7   148 255 9   153 255 5   136 255 38  169 255 125 234 255 175 251 255 173 250 255 178 253 255 148 253 255 175 252 255 191 246 255 177 249 255 160 251 255 114 237 255 48  191 255 33  196 255 81  239 255 127 253 255 155 254 255 149 255 255 131 254 255 154 248 255 167 239 255 177 232 255 205 242 255 198 249 255 203 252 255 180 254 255 138 244 255 57  189 255 4   134 255 3   139 255 
2   134 255 23  165 255 12  163 255 0   128 255 0   129 255 28  174 255 84  220 255 122 232 255 124 215 255 151 221 255 217 249 255 242 254 255 252 255 255 245 250 255 146 201 255 66  162 255 48  155 255 47  156 255 64  163 255 95  178 255 92  179 255 75  174 255 79  183 255 49  169 255 16  146 255 8   141 255 55  188 255 141 247 255 148 254 255 92  229 255 10  145 255 0   129 255 4   143 255 0   128 255 1   131 255 47  203 255 109 248 255 149 254 255 149 254 255 147 251 255 134 242 255 110 220 255 82  185 255 123 203 255 178 248 255 158 254 255 128 252 255 92  248 255 120 249 255 142 243 255 101 233 255 101 239 255 85  240 255 113 237 255 129 229 255 123 209 255 159 225 255 173 234 255 154 236 255 131 237 255 100 235 255 53  209 255 4   141 255 0   128 255 
0   128 255 7   148 255 10  145 255 0   128 255 13  148 255 68  202 255 121 230 255 141 227 255 134 210 255 158 216 255 218 249 255 241 254 255 248 253 255 240 249 255 190 227 255 102 184 255 19  138 255 5   130 255 23  140 255 70  164 255 73  166 255 64  163 255 52  160 255 29  148 255 20  145 255 38  169 255 97  210 255 170 248 255 149 254 255 135 242 255 38  170 255 1   129 255 0   128 255 0   128 255 14  163 255 70  228 255 122 252 255 117 254 255 108 247 255 91  227 255 59  193 255 28  158 255 28  151 255 88  189 255 195 248 255 181 255 255 149 250 255 100 233 255 97  208 255 61  192 255 33  178 255 31  179 255 28  190 255 64  214 255 95  220 255 108 212 255 133 220 255 144 216 255 97  196 255 86  200 255 98  228 255 80  237 255 20  175 255 0   128 255 
23  201 255 31  179 255 41  173 255 41  195 255 74  209 255 120 229 255 136 224 255 143 216 255 147 210 255 181 229 255 226 254 255 226 254 255 223 245 255 219 242 255 219 249 255 162 224 255 72  172 255 11  134 255 20  139 255 44  152 255 33  145 255 38  147 255 37  148 255 26  144 255 80  184 255 131 239 255 177 253 255 181 255 255 150 255 255 147 248 255 110 221 255 54  187 255 38  189 255 37  204 255 76  237 255 125 254 255 117 254 255 75  247 255 30  176 255 13  149 255 4   134 255 5   135 255 41  172 255 107 218 255 166 245 255 187 243 255 91  191 255 41  162 255 34  163 255 31  174 255 11  158 255 0   128 255 0   128 255 24  182 255 65  215 255 104 229 255 122 230 255 117 210 255 47  156 255 16  139 255 83  195 255 114 234 255 84  233 255 40  209 255 
37  248 255 74  247 255 104 242 255 98  235 255 127 236 255 128 218 255 90  183 255 77  171 255 122 196 255 214 248 255 206 255 255 202 252 255 205 243 255 217 249 255 199 249 255 179 249 255 133 222 255 32  150 255 3   129 255 1   128 255 19  138 255 16  136 255 25  143 255 90  190 255 153 253 255 150 255 255 147 252 255 148 254 255 115 255 255 121 255 255 153 254 255 146 252 255 114 253 255 101 255 255 126 255 255 118 255 255 78  250 255 20  188 255 0   128 255 5   142 255 0   128 255 10  155 255 61  218 255 108 240 255 116 226 255 60  170 255 49  162 255 24  147 255 26  155 255 27  168 255 7   149 255 0   128 255 0   130 255 12  147 255 66  200 255 131 239 255 140 227 255 81  177 255 27  144 255 15  138 255 56  173 255 113 233 255 110 250 255 78  254 255 
39  253 255 71  243 255 98  235 255 128 237 255 148 233 255 116 199 255 70  167 255 118 193 255 158 224 255 197 250 255 179 254 255 176 251 255 184 241 255 177 236 255 160 238 255 141 242 255 136 243 255 128 234 255 115 209 255 96  195 255 131 208 255 144 215 255 131 218 255 133 238 255 117 251 255 100 238 255 88  224 255 83  219 255 57  221 255 64  225 255 115 249 255 154 255 255 150 255 255 136 255 255 150 254 255 100 236 255 61  195 255 4   135 255 0   130 255 1   133 255 0   128 255 30  192 255 88  242 255 101 237 255 79  195 255 12  136 255 41  153 255 36  153 255 44  165 255 38  169 255 15  152 255 2   135 255 1   131 255 6   138 255 44  176 255 112 222 255 113 207 255 58  163 255 28  145 255 14  137 255 43  162 255 97  218 255 110 251 255 79  255 255 
35  241 255 58  221 255 78  214 255 115 226 255 128 218 255 116 199 255 140 206 255 176 236 255 172 249 255 174 250 255 141 248 255 135 243 255 114 208 255 56  167 255 28  151 255 43  172 255 93  230 255 118 254 255 149 254 255 150 252 255 182 254 255 183 254 255 154 255 255 119 254 255 70  234 255 23  165 255 8   142 255 1   129 255 0   128 255 6   146 255 63  224 255 121 255 255 153 254 255 152 255 255 108 246 255 52  185 255 7   139 255 0   128 255 0   128 255 0   128 255 3   137 255 54  211 255 105 240 255 73  208 255 20  149 255 3   130 255 32  150 255 39  155 255 35  157 255 27  157 255 13  148 255 1   132 255 0   128 255 0   130 255 19  159 255 69  203 255 63  181 255 9   134 255 3   129 255 5   131 255 35  155 255 83  206 255 102 248 255 76  252 255 
12  167 255 42  197 255 58  191 255 50  170 255 59  169 255 130 208 255 190 245 255 174 249 255 146 251 255 123 232 255 67  201 255 52  185 255 15  141 255 1   128 255 2   130 255 0   128 255 26  170 255 60  221 255 97  234 255 110 245 255 152 254 255 153 254 255 120 255 255 79  247 255 20  186 255 0   128 255 0   128 255 0   128 255 0   128 255 0   128 255 38  205 255 99  253 255 136 255 255 115 254 255 55  215 255 6   137 255 0   128 255 0   129 255 0   128 255 9   151 255 46  200 255 94  229 255 52  210 255 14  150 255 0   128 255 20  149 255 24  148 255 34  152 255 28  147 255 22  146 255 21  150 255 9   142 255 1   133 255 4   135 255 31  162 255 107 218 255 108 204 255 35  149 255 3   129 255 24  144 255 68  181 255 92  218 255 75  228 255 39  205 255 
0   128 255 53  225 255 75  228 255 61  186 255 84  193 255 180 247 255 177 253 255 140 246 255 98  234 255 46  179 255 7   140 255 4   135 255 0   128 255 6   134 255 10  144 255 3   135 255 0   128 255 3   139 255 18  156 255 45  197 255 112 246 255 154 255 255 120 255 255 68  231 255 5   144 255 0   129 255 11  146 255 7   147 255 6   146 255 0   128 255 20  176 255 89  250 255 125 255 255 73  246 255 11  163 255 0   128 255 0   128 255 5   142 255 18  172 255 61  218 255 115 251 255 73  244 255 14  172 255 0   128 255 3   137 255 10  144 255 17  146 255 28  152 255 20  145 255 24  148 255 31  161 255 15  152 255 1   133 255 2   131 255 21  151 255 128 237 255 160 241 255 100 189 255 20  140 255 28  147 255 60  179 255 63  197 255 32  179 255 0   129 255 
0   128 255 78  255 255 114 255 255 143 252 255 161 247 255 180 255 255 149 253 255 89  225 255 38  188 255 0   128 255 0   128 255 10  155 255 9   143 255 0   128 255 22  151 255 22  162 255 5   142 255 5   136 255 1   130 255 5   143 255 64  225 255 119 255 255 106 255 255 45  212 255 0   128 255 0   128 255 4   140 255 12  147 255 9   153 255 3   138 255 34  181 255 117 253 255 115 254 255 55  215 255 0   129 255 0   128 255 0   128 255 30  191 255 82  241 255 120 253 255 118 255 255 68  235 255 1   133 255 0   128 255 7   148 255 1   130 255 20  149 255 28  151 255 17  146 255 20  150 255 18  156 255 5   136 255 0   128 255 0   128 255 42  196 255 114 253 255 150 255 255 158 240 255 125 215 255 106 209 255 86  209 255 60  203 255 35  201 255 0   128 255 
38  253 255 58  223 255 112 252 255 150 255 255 165 244 255 137 244 255 112 250 255 48  205 255 10  160 255 0   128 255 0   128 255 5   143 255 13  149 255 8   141 255 15  144 255 26  156 255 3   132 255 1   132 255 0   128 255 0   128 255 41  209 255 102 255 255 116 255 255 58  220 255 0   128 255 1   132 255 3   133 255 1   130 255 0   128 255 0   128 255 52  225 255 107 255 255 113 249 255 51  184 255 6   138 255 10  155 255 10  155 255 65  224 255 123 255 255 129 255 255 91  253 255 30  199 255 0   128 255 3   139 255 10  144 255 3   133 255 20  149 255 21  150 255 8   140 255 5   136 255 3   137 255 0   128 255 7   148 255 40  193 255 109 248 255 150 255 255 181 255 255 205 254 255 207 255 255 192 255 255 173 255 255 140 254 255 112 253 255 79  255 255 
36  247 255 23  165 255 67  201 255 135 243 255 144 230 255 121 230 255 104 241 255 34  182 255 1   132 255 0   129 255 2   134 255 0   128 255 1   132 255 2   135 255 9   142 255 28  159 255 16  145 255 16  152 255 6   145 255 1   131 255 49  206 255 116 254 255 150 255 255 92  229 255 8   142 255 0   128 255 2   130 255 5   136 255 2   135 255 17  170 255 86  248 255 127 255 255 143 247 255 97  210 255 71  206 255 69  229 255 69  230 255 121 253 255 157 255 255 155 255 255 111 244 255 31  175 255 7   147 255 20  160 255 4   134 255 8   141 255 10  144 255 10  145 255 0   129 255 0   128 255 0   128 255 3   137 255 46  200 255 107 246 255 147 253 255 178 253 255 191 246 255 207 242 255 202 250 255 184 250 255 159 247 255 128 247 255 107 252 255 79  255 255 
36  245 255 24  167 255 18  156 255 72  205 255 110 220 255 115 245 255 73  233 255 17  171 255 0   128 255 0   130 255 6   138 255 3   136 255 0   128 255 0   128 255 2   134 255 14  150 255 21  150 255 15  144 255 10  144 255 5   136 255 42  174 255 138 245 255 179 254 255 130 239 255 23  153 255 2   130 255 11  137 255 19  148 255 40  191 255 78  237 255 127 255 255 160 255 255 183 255 255 176 252 255 147 252 255 123 255 255 123 255 255 122 255 255 128 254 255 152 255 255 115 252 255 40  191 255 2   135 255 15  153 255 1   133 255 0   128 255 4   141 255 3   136 255 3   138 255 0   128 255 5   144 255 59  219 255 112 249 255 137 244 255 137 225 255 134 211 255 129 200 255 78  170 255 92  182 255 149 227 255 138 235 255 98  223 255 90  236 255 79  255 255 
32  232 255 17  155 255 6   137 255 29  172 255 66  199 255 107 237 255 72  231 255 14  162 255 0   128 255 3   139 255 1   132 255 7   139 255 6   146 255 2   135 255 11  145 255 21  150 255 19  144 255 7   133 255 10  139 255 10  138 255 45  166 255 156 237 255 206 255 255 163 243 255 54  173 255 11  137 255 43  158 255 95  208 255 109 245 255 127 255 255 156 252 255 181 250 255 181 254 255 157 255 255 123 255 255 114 253 255 87  248 255 74  238 255 82  240 255 123 255 255 110 255 255 54  217 255 0   128 255 0   128 255 1   130 255 1   133 255 0   128 255 0   128 255 2   136 255 25  183 255 70  234 255 115 252 255 141 247 255 127 218 255 30  146 255 47  154 255 81  169 255 32  145 255 18  138 255 103 197 255 122 224 255 78  205 255 77  222 255 78  255 255 
23  203 255 0   129 255 0   128 255 4   140 255 24  166 255 81  214 255 90  227 255 25  168 255 0   128 255 0   128 255 0   128 255 3   138 255 12  146 255 4   134 255 9   137 255 17  142 255 20  142 255 2   129 255 14  140 255 24  148 255 91  192 255 200 251 255 227 255 255 201 252 255 156 238 255 147 232 255 153 236 255 177 251 255 151 255 255 160 255 255 188 254 255 174 250 255 151 254 255 123 255 255 82  248 255 45  201 255 19  173 255 9   152 255 19  174 255 69  230 255 121 254 255 94  247 255 36  201 255 30  176 255 25  155 255 9   142 255 9   152 255 33  196 255 61  224 255 85  242 255 116 251 255 138 245 255 103 201 255 50  159 255 14  135 255 75  167 255 127 193 255 72  167 255 6   131 255 81  182 255 105 210 255 53  180 255 70  214 255 77  253 255 
21  197 255 0   128 255 0   128 255 1   129 255 9   137 255 71  188 255 97  227 255 50  199 255 13  161 255 0   128 255 0   128 255 3   139 255 11  145 255 9   142 255 10  138 255 15  141 255 24  145 255 20  140 255 27  146 255 34  151 255 113 197 255 225 253 255 226 254 255 206 254 255 180 255 255 152 255 255 148 254 255 151 255 255 182 255 255 189 255 255 183 255 255 152 255 255 118 255 255 85  253 255 31  211 255 0   128 255 0   128 255 0   128 255 0   128 255 9   153 255 73  236 255 122 254 255 96  250 255 104 243 255 122 231 255 91  227 255 71  233 255 94  249 255 114 251 255 126 250 255 144 249 255 125 216 255 9   133 255 1   128 255 41  149 255 126 191 255 159 209 255 111 188 255 32  146 255 79  178 255 96  198 255 54  176 255 85  228 255 76  252 255 
29  222 255 9   143 255 2   131 255 6   138 255 0   128 255 59  178 255 116 221 255 92  222 255 57  210 255 17  170 255 1   133 255 6   138 255 8   141 255 4   135 255 6   137 255 2   130 255 8   134 255 31  149 255 45  155 255 32  147 255 107 188 255 218 249 255 208 253 255 187 254 255 177 253 255 110 247 255 95  233 255 80  214 255 106 217 255 169 247 255 182 255 255 152 255 255 113 249 255 58  217 255 9   154 255 0   128 255 5   143 255 2   135 255 3   137 255 4   134 255 77  211 255 149 253 255 135 254 255 149 254 255 178 253 255 147 252 255 118 251 255 129 250 255 143 247 255 142 245 255 167 246 255 131 209 255 27  143 255 79  169 255 138 197 255 150 203 255 144 203 255 139 205 255 116 198 255 125 208 255 132 222 255 116 227 255 108 249 255 77  254 255 
34  236 255 15  153 255 0   128 255 6   137 255 5   136 255 45  177 255 104 216 255 114 224 255 93  229 255 45  199 255 3   133 255 1   129 255 0   128 255 0   128 255 2   135 255 2   131 255 13  142 255 42  163 255 52  165 255 28  145 255 135 203 255 206 252 255 182 253 255 149 247 255 107 219 255 37  187 255 20  161 255 4   134 255 18  147 255 106 217 255 175 251 255 154 236 255 75  191 255 25  155 255 9   142 255 1   133 255 3   136 255 4   134 255 9   143 255 10  138 255 90  204 255 177 252 255 167 255 255 180 255 255 143 249 255 114 225 255 122 230 255 132 236 255 168 245 255 171 246 255 180 239 255 109 188 255 70  164 255 159 208 255 171 214 255 107 183 255 80  172 255 167 229 255 177 250 255 178 250 255 160 249 255 141 252 255 114 254 255 79  255 255 
38  249 255 50  208 255 11  150 255 0   128 255 1   132 255 26  170 255 77  213 255 107 218 255 94  224 255 55  208 255 15  157 255 0   128 255 0   130 255 2   134 255 13  148 255 27  157 255 39  161 255 72  179 255 66  168 255 51  156 255 156 222 255 181 252 255 152 252 255 96  224 255 35  166 255 0   128 255 0   128 255 13  162 255 50  199 255 108 238 255 135 242 255 77  182 255 12  137 255 24  153 255 21  160 255 5   142 255 0   128 255 1   133 255 2   131 255 13  142 255 102 214 255 179 254 255 180 254 255 147 252 255 90  227 255 40  172 255 43  175 255 84  199 255 163 242 255 199 250 255 201 240 255 143 203 255 126 191 255 175 216 255 171 216 255 114 191 255 121 201 255 177 249 255 180 255 255 155 255 255 152 253 255 123 251 255 111 254 255 79  255 255 
40  255 255 77  252 255 40  207 255 0   128 255 1   133 255 31  177 255 70  204 255 96  209 255 110 217 255 92  222 255 57  206 255 18  172 255 9   142 255 11  146 255 29  159 255 55  174 255 73  179 255 93  185 255 84  175 255 90  182 255 155 234 255 146 247 255 95  226 255 35  177 255 10  145 255 4   134 255 3   136 255 45  199 255 101 237 255 147 251 255 125 216 255 32  147 255 26  146 255 39  160 255 22  151 255 16  153 255 3   139 255 3   132 255 8   136 255 35  157 255 136 223 255 177 253 255 136 243 255 77  212 255 26  171 255 8   142 255 18  156 255 46  177 255 134 240 255 180 254 255 207 254 255 219 250 255 218 242 255 218 241 255 213 245 255 190 242 255 177 249 255 155 254 255 147 252 255 115 249 255 137 243 255 102 235 255 87  242 255 76  252 255 
34  240 255 77  253 255 96  247 255 40  207 255 28  172 255 57  190 255 84  198 255 111 205 255 123 212 255 115 221 255 95  223 255 63  216 255 69  203 255 55  188 255 64  182 255 51  163 255 100 189 255 108 188 255 121 201 255 164 241 255 133 237 255 70  200 255 16  152 255 3   135 255 0   128 255 3   139 255 40  191 255 103 239 255 151 254 255 176 251 255 104 192 255 11  134 255 34  151 255 31  154 255 16  145 255 16  153 255 1   131 255 4   134 255 16  145 255 113 223 255 177 252 255 141 248 255 63  196 255 15  153 255 0   128 255 0   128 255 2   135 255 15  151 255 95  231 255 152 255 255 181 255 255 207 255 255 219 250 255 213 246 255 208 254 255 181 252 255 152 252 255 112 245 255 80  216 255 56  211 255 67  201 255 37  167 255 40  190 255 39  206 255 
12  167 255 48  205 255 103 242 255 98  250 255 105 243 255 119 228 255 106 202 255 79  176 255 78  175 255 139 223 255 146 243 255 122 249 255 144 249 255 139 245 255 147 231 255 148 219 255 190 234 255 212 239 255 207 242 255 189 242 255 111 204 255 16  141 255 6   134 255 29  168 255 39  206 255 63  226 255 104 240 255 149 253 255 180 254 255 195 248 255 95  186 255 21  142 255 29  151 255 20  148 255 7   138 255 3   132 255 0   128 255 20  176 255 77  233 255 122 249 255 147 252 255 114 224 255 9   137 255 0   128 255 0   128 255 5   142 255 12  147 255 21  150 255 114 224 255 181 254 255 207 255 255 218 250 255 187 231 255 182 238 255 183 254 255 149 249 255 101 233 255 42  191 255 11  146 255 6   146 255 12  147 255 15  145 255 6   138 255 9   152 255 
0   128 255 4   140 255 63  227 255 119 255 255 151 255 255 173 249 255 153 222 255 145 209 255 151 219 255 199 250 255 182 255 255 158 255 255 180 255 255 181 255 255 208 255 255 225 254 255 241 254 255 245 251 255 222 244 255 162 218 255 57  162 255 26  146 255 31  153 255 82  210 255 94  247 255 116 252 255 149 253 255 179 254 255 202 253 255 168 231 255 40  155 255 4   131 255 16  144 255 9   141 255 1   131 255 0   128 255 4   141 255 58  217 255 118 254 255 148 253 255 145 251 255 76  203 255 1   129 255 15  144 255 11  140 255 6   137 255 6   134 255 5   132 255 129 219 255 192 253 255 202 252 255 193 235 255 143 214 255 159 236 255 154 254 255 117 250 255 60  217 255 8   150 255 0   128 255 0   128 255 1   133 255 10  144 255 0   128 255 1   133 255 
1   133 255 5   136 255 52  185 255 132 240 255 177 253 255 200 251 255 217 249 255 203 249 255 193 247 255 175 251 255 140 246 255 129 238 255 137 242 255 169 246 255 202 251 255 227 254 255 243 255 255 242 250 255 215 236 255 153 207 255 109 188 255 152 219 255 144 226 255 145 244 255 126 251 255 127 252 255 156 252 255 179 254 255 202 253 255 203 242 255 64  166 255 7   132 255 1   128 255 9   137 255 25  164 255 31  195 255 62  223 255 114 250 255 148 251 255 148 253 255 118 245 255 36  178 255 1   129 255 16  154 255 8   136 255 0   128 255 1   128 255 21  143 255 164 235 255 179 254 255 171 248 255 171 233 255 178 227 255 179 238 255 172 249 255 143 249 255 85  221 255 14  150 255 0   129 255 5   144 255 7   140 255 21  150 255 8   140 255 6   146 255 
3   139 255 5   136 255 26  156 255 114 225 255 173 250 255 198 250 255 201 250 255 171 243 255 143 229 255 108 219 255 70  204 255 66  200 255 66  199 255 97  209 255 148 231 255 197 248 255 227 254 255 230 248 255 217 237 255 194 229 255 183 230 255 190 245 255 168 246 255 138 245 255 101 239 255 99  237 255 116 245 255 157 253 255 187 254 255 211 254 255 149 228 255 115 209 255 98  209 255 115 225 255 114 243 255 96  253 255 118 254 255 150 252 255 127 230 255 121 248 255 81  241 255 14  162 255 0   128 255 4   141 255 0   128 255 5   133 255 11  137 255 79  183 255 152 244 255 146 252 255 134 241 255 147 231 255 172 234 255 198 239 255 196 249 255 178 253 255 132 240 255 45  178 255 10  144 255 16  152 255 18  155 255 23  153 255 12  146 255 4   141 255 
0   128 255 3   133 255 51  184 255 141 248 255 180 254 255 188 244 255 131 216 255 92  201 255 71  188 255 54  187 255 27  172 255 21  162 255 22  162 255 48  179 255 113 223 255 171 247 255 205 253 255 212 246 255 202 234 255 194 236 255 181 239 255 162 242 255 133 241 255 80  216 255 35  185 255 34  183 255 62  215 255 119 248 255 158 254 255 188 254 255 160 255 255 147 254 255 117 254 255 148 254 255 151 253 255 122 254 255 153 255 255 177 251 255 155 237 255 148 252 255 107 245 255 28  172 255 0   130 255 5   135 255 14  143 255 44  165 255 105 201 255 148 240 255 128 248 255 100 238 255 90  227 255 116 226 255 145 230 255 184 241 255 206 254 255 182 255 255 152 252 255 114 224 255 40  172 255 14  149 255 8   141 255 10  145 255 13  148 255 1   133 255 
3   137 255 19  159 255 81  217 255 147 252 255 171 249 255 106 201 255 55  172 255 44  172 255 41  174 255 17  156 255 1   133 255 0   128 255 3   137 255 36  183 255 86  221 255 144 249 255 180 254 255 186 242 255 168 221 255 157 225 255 154 237 255 130 238 255 90  226 255 30  177 255 1   133 255 0   128 255 15  166 255 77  237 255 124 253 255 157 254 255 127 255 255 113 252 255 71  238 255 86  222 255 97  209 255 115 221 255 165 242 255 194 248 255 199 250 255 181 255 255 146 251 255 73  208 255 26  170 255 42  174 255 91  205 255 137 225 255 158 248 255 133 254 255 88  240 255 40  194 255 33  182 255 47  179 255 84  199 255 125 216 255 166 243 255 149 249 255 145 251 255 114 243 255 76  221 255 23  172 255 0   128 255 1   132 255 1   131 255 0   128 255 
25  208 255 65  232 255 111 250 255 149 254 255 158 239 255 55  172 255 24  152 255 15  149 255 11  146 255 1   130 255 3   132 255 2   134 255 13  148 255 67  201 255 129 236 255 158 253 255 180 253 255 155 223 255 79  172 255 100 184 255 154 222 255 151 234 255 88  203 255 19  148 255 0   128 255 0   128 255 15  153 255 97  235 255 147 253 255 120 248 255 76  234 255 46  202 255 2   136 255 1   130 255 12  141 255 32  155 255 69  176 255 121 203 255 194 237 255 203 253 255 179 254 255 135 243 255 88  225 255 112 223 255 169 247 255 165 253 255 135 254 255 97  251 255 36  202 255 0   128 255 0   130 255 17  155 255 52  185 255 72  188 255 75  191 255 89  221 255 103 241 255 119 248 255 112 248 255 54  213 255 3   138 255 11  146 255 24  162 255 22  179 255 
38  250 255 77  252 255 111 250 255 147 252 255 146 249 255 69  197 255 3   132 255 7   145 255 0   128 255 0   128 255 1   129 255 10  144 255 67  200 255 131 238 255 146 247 255 144 250 255 141 246 255 127 216 255 62  166 255 19  138 255 138 205 255 172 234 255 120 213 255 28  151 255 0   128 255 27  172 255 72  207 255 134 242 255 125 253 255 82  242 255 29  199 255 0   128 255 0   128 255 4   140 255 23  164 255 45  176 255 41  162 255 60  170 255 108 194 255 196 238 255 203 253 255 181 255 255 148 252 255 172 249 255 204 254 255 185 254 255 150 248 255 106 235 255 51  201 255 13  162 255 26  169 255 60  193 255 73  190 255 68  185 255 40  170 255 12  146 255 34  183 255 71  230 255 122 251 255 112 249 255 67  233 255 122 237 255 86  228 255 64  238 255 
32  232 255 45  201 255 73  208 255 140 246 255 178 253 255 108 220 255 38  170 255 24  167 255 0   129 255 4   135 255 44  176 255 87  223 255 144 249 255 155 254 255 113 236 255 93  230 255 106 231 255 116 223 255 93  191 255 37  150 255 115 195 255 185 231 255 163 228 255 100 198 255 70  187 255 82  219 255 129 237 255 169 247 255 145 250 255 101 238 255 26  169 255 0   130 255 4   140 255 17  154 255 42  173 255 66  183 255 37  159 255 21  146 255 44  159 255 139 214 255 209 244 255 202 252 255 180 255 255 206 254 255 220 251 255 193 243 255 147 227 255 110 216 255 79  208 255 48  196 255 61  195 255 86  201 255 78  193 255 56  187 255 28  169 255 3   137 255 0   128 255 15  165 255 71  229 255 125 254 255 118 254 255 142 254 255 108 254 255 73  248 255 
4   143 255 1   129 255 14  143 255 92  206 255 170 248 255 170 248 255 136 243 255 100 238 255 57  221 255 87  224 255 134 241 255 149 252 255 152 252 255 116 239 255 64  211 255 24  167 255 41  185 255 97  224 255 127 227 255 116 206 255 125 210 255 166 225 255 185 231 255 164 229 255 141 228 255 130 238 255 168 246 255 198 250 255 159 240 255 70  187 255 20  149 255 6   137 255 11  146 255 31  161 255 60  178 255 55  175 255 18  147 255 5   133 255 11  137 255 95  194 255 172 234 255 210 245 255 203 253 255 217 249 255 201 233 255 153 212 255 129 206 255 105 200 255 83  196 255 50  181 255 41  162 255 53  165 255 56  173 255 49  179 255 36  182 255 8   151 255 0   128 255 0   130 255 44  199 255 112 251 255 164 254 255 129 251 255 79  231 255 27  188 255 
0   128 255 5   143 255 2   131 255 17  146 255 117 226 255 176 252 255 177 253 255 147 253 255 114 253 255 148 254 255 181 255 255 157 255 255 129 251 255 66  215 255 12  155 255 0   128 255 21  176 255 81  239 255 123 250 255 156 250 255 152 245 255 161 235 255 177 232 255 194 236 255 181 240 255 161 242 255 197 249 255 205 253 255 162 241 255 37  159 255 14  143 255 13  148 255 21  150 255 41  162 255 45  175 255 28  158 255 3   133 255 1   129 255 3   131 255 75  192 255 144 229 255 183 241 255 219 250 255 222 244 255 213 235 255 180 222 255 144 208 255 109 195 255 95  194 255 59  178 255 26  146 255 29  146 255 42  157 255 42  163 255 46  178 255 16  154 255 1   133 255 0   128 255 20  174 255 83  243 255 126 254 255 81  247 255 23  189 255 0   128 255 
6   148 255 9   153 255 5   136 255 38  169 255 126 234 255 176 251 255 174 250 255 178 253 255 148 253 255 175 252 255 191 246 255 177 249 255 161 251 255 114 237 255 48  191 255 33  196 255 81  239 255 127 253 255 156 254 255 149 255 255 130 254 255 154 248 255 167 239 255 176 232 255 204 242 255 198 249 255 202 252 255 180 254 255 147 244 255 62  189 255 5   134 255 7   139 255 11  146 255 28  158 255 23  163 255 4   134 255 0   128 255 2   134 255 24  166 255 77  212 255 116 225 255 154 236 255 202 252 255 223 252 255 239 253 255 229 243 255 150 206 255 108 188 255 100 189 255 88  189 255 73  172 255 77  171 255 70  171 255 54  166 255 64  182 255 30  161 255 6   138 255 1   131 255 33  180 255 108 246 255 120 254 255 74  241 255 9   154 255 0   128 255 
4   143 255 0   128 255 1   131 255 47  203 255 110 248 255 149 254 255 149 254 255 146 251 255 135 242 255 110 220 255 82  185 255 123 203 255 179 248 255 159 254 255 128 252 255 93  248 255 120 249 255 142 243 255 101 233 255 101 239 255 85  240 255 113 237 255 129 229 255 123 209 255 159 225 255 172 234 255 154 236 255 132 237 255 108 235 255 59  209 255 5   141 255 0   128 255 2   134 255 23  165 255 12  163 255 0   128 255 0   129 255 28  174 255 84  220 255 122 232 255 124 215 255 151 221 255 217 249 255 242 254 255 252 255 255 242 250 255 146 201 255 66  162 255 49  155 255 47  156 255 64  163 255 96  178 255 92  179 255 75  174 255 79  183 255 49  169 255 16  146 255 8   141 255 55  188 255 142 247 255 148 254 255 93  229 255 10  145 255 0   129 255 
0   128 255 0   128 255 14  163 255 70  228 255 123 252 255 117 254 255 108 247 255 92  227 255 59  193 255 28  158 255 28  151 255 88  189 255 196 248 255 181 255 255 149 250 255 100 233 255 98  208 255 61  192 255 34  178 255 31  179 255 28  190 255 64  214 255 94  220 255 108 212 255 133 220 255 144 216 255 97  196 255 86  200 255 98  228 255 80  237 255 20  175 255 0   128 255 0   128 255 7   148 255 10  145 255 0   128 255 13  148 255 67  202 255 121 230 255 141 227 255 134 210 255 159 216 255 219 249 255 241 254 255 239 253 255 232 249 255 189 227 255 101 184 255 19  138 255 5   130 255 23  140 255 70  164 255 75  166 255 64  163 255 52  160 255 29  148 255 20  145 255 38  169 255 97  210 255 170 248 255 149 254 255 105 242 255 26  170 255 0   129 255 
19  189 255 38  204 255 77  237 255 125 254 255 117 254 255 75  247 255 30  176 255 13  149 255 4   134 255 5   135 255 41  172 255 107 218 255 166 245 255 186 243 255 91  191 255 41  162 255 34  163 255 31  174 255 11  158 255 0   128 255 0   128 255 24  182 255 65  215 255 104 229 255 123 230 255 117 210 255 47  156 255 16  139 255 83  195 255 107 234 255 76  233 255 40  209 255 36  201 255 34  179 255 41  173 255 41  195 255 74  209 255 119 229 255 137 224 255 142 216 255 152 210 255 181 229 255 208 254 255 226 254 255 209 245 255 204 242 255 217 249 255 157 224 255 72  172 255 11  134 255 20  139 255 44  152 255 32  145 255 37  147 255 38  148 255 26  144 255 80  184 255 131 239 255 178 253 255 150 255 255 141 255 255 125 248 255 71  221 255 27  187 255 
38  253 255 78  255 255 115 255 255 118 255 255 78  250 255 20  188 255 0   128 255 5   142 255 0   128 255 10  155 255 61  218 255 108 240 255 117 226 255 60  170 255 50  162 255 24  147 255 26  155 255 27  168 255 7   149 255 0   128 255 0   130 255 12  147 255 66  200 255 132 239 255 141 227 255 81  177 255 27  144 255 18  138 255 67  173 255 133 233 255 123 250 255 102 254 255 94  248 255 113 247 255 133 242 255 98  235 255 128 236 255 127 218 255 98  183 255 76  171 255 116 196 255 194 248 255 183 255 255 201 252 255 186 243 255 197 249 255 197 249 255 172 249 255 134 222 255 32  150 255 3   129 255 1   128 255 19  138 255 15  136 255 25  143 255 90  190 255 152 253 255 150 255 255 147 252 255 148 254 255 116 255 255 121 255 255 113 254 255 76  252 255 
40  255 255 79  255 255 115 254 255 100 236 255 61  195 255 4   135 255 0   130 255 1   133 255 0   128 255 29  192 255 88  242 255 101 237 255 79  195 255 12  136 255 37  153 255 36  153 255 44  165 255 38  169 255 15  152 255 2   135 255 1   131 255 6   138 255 44  176 255 111 222 255 112 207 255 51  163 255 25  145 255 14  137 255 51  162 255 136 218 255 156 251 255 137 255 255 125 253 255 140 243 255 160 235 255 128 237 255 161 233 255 113 199 255 63  167 255 103 193 255 146 224 255 172 250 255 151 254 255 176 251 255 161 241 255 153 236 255 157 238 255 136 242 255 136 243 255 127 234 255 115 209 255 97  195 255 126 208 255 139 215 255 134 218 255 133 238 255 117 251 255 99  238 255 87  224 255 82  219 255 57  221 255 65  225 255 101 249 255 79  255 255 
39  254 255 79  255 255 106 246 255 51  185 255 7   139 255 0   128 255 0   128 255 0   128 255 3   137 255 54  211 255 104 240 255 73  208 255 20  149 255 3   130 255 27  150 255 34  155 255 35  157 255 27  157 255 13  148 255 1   132 255 0   128 255 0   130 255 19  159 255 69  203 255 63  181 255 8   134 255 2   129 255 4   131 255 35  155 255 100 206 255 142 248 255 113 252 255 102 241 255 98  221 255 108 214 255 124 226 255 117 218 255 99  199 255 110 206 255 147 236 255 154 249 255 144 250 255 112 248 255 135 243 255 95  208 255 46  167 255 28  151 255 41  172 255 93  230 255 118 254 255 149 254 255 150 252 255 173 254 255 175 254 255 159 255 255 120 254 255 69  234 255 23  165 255 9   142 255 1   129 255 0   128 255 6   146 255 76  224 255 79  255 255 
40  255 255 78  254 255 54  215 255 6   137 255 0   128 255 0   129 255 0   128 255 8   151 255 46  200 255 97  229 255 52  210 255 14  150 255 0   128 255 20  149 255 19  148 255 23  152 255 18  147 255 17  146 255 21  150 255 9   142 255 1   133 255 5   135 255 33  162 255 87  218 255 69  204 255 20  149 255 1   129 255 15  144 255 54  181 255 92  218 255 91  228 255 48  205 255 24  167 255 53  197 255 64  191 255 42  170 255 43  169 255 93  208 255 136 245 255 135 249 255 126 251 255 95  232 255 48  201 255 52  185 255 12  141 255 0   128 255 2   130 255 0   128 255 26  170 255 61  221 255 98  234 255 110 245 255 140 254 255 147 254 255 131 255 255 79  247 255 20  186 255 0   128 255 0   128 255 0   128 255 0   128 255 0   128 255 38  205 255 77  253 255 
40  255 255 83  246 255 11  163 255 0   128 255 0   128 255 5   142 255 18  172 255 74  218 255 109 251 255 84  244 255 14  172 255 0   128 255 3   137 255 10  144 255 12  146 255 16  152 255 11  145 255 14  148 255 22  161 255 15  152 255 1   133 255 2   131 255 16  151 255 94  237 255 86  241 255 39  189 255 8   140 255 13  147 255 37  179 255 51  197 255 32  179 255 0   129 255 0   128 255 53  225 255 75  228 255 44  186 255 50  193 255 106 247 255 111 253 255 99  246 255 78  234 255 31  179 255 4   140 255 5   135 255 0   128 255 4   134 255 10  144 255 2   135 255 0   128 255 3   139 255 18  156 255 46  197 255 99  246 255 116 255 255 109 255 255 68  231 255 5   144 255 0   129 255 12  146 255 7   147 255 6   146 255 0   128 255 20  176 255 74  250 255 
77  254 255 46  215 255 0   129 255 0   128 255 0   128 255 29  191 255 67  241 255 76  253 255 78  255 255 61  235 255 1   133 255 0   128 255 7   148 255 0   130 255 8   149 255 8   151 255 6   146 255 8   150 255 11  156 255 3   136 255 0   128 255 0   128 255 33  196 255 76  253 255 79  255 255 65  240 255 46  215 255 40  209 255 41  209 255 37  203 255 36  201 255 0   128 255 0   128 255 78  255 255 79  255 255 76  252 255 71  247 255 78  255 255 77  253 255 53  225 255 28  188 255 0   128 255 0   128 255 10  155 255 5   143 255 0   128 255 8   151 255 13  162 255 5   142 255 2   136 255 0   130 255 5   143 255 53  225 255 79  255 255 78  255 255 44  212 255 0   128 255 0   128 255 4   140 255 7   147 255 9   153 255 3   138 255 23  181 255 76  253 255 
