P3
16 16
255
124 138 53  124 138 53  124 138 53  124 138 53  124 138 53  119 158 91  124 138 53  124 138 53  124 138 53  124 138 53  124 138 53  124 138 53  124 138 53  104 123 48  104 123 48  104 123 48  
124 138 53  97  138 65  124 138 53  104 123 48  124 138 53  124 138 53  124 138 53  124 138 53  124 138 53  97  138 65  124 138 53  124 138 53  124 138 53  124 138 53  124 138 53  104 123 48  
124 138 53  124 138 53  124 138 53  143 86  59  124 138 53  97  138 65  124 138 53  124 138 53  102 57  49  124 138 53  143 86  59  124 138 53  124 138 53  124 138 53  143 86  59  124 138 53  
124 138 53  143 86  59  143 86  59  143 86  59  143 86  59  143 86  59  124 138 53  104 123 48  102 57  49  102 57  49  143 86  59  143 86  59  124 138 53  143 86  59  143 86  59  132 126 135 
102 57  49  143 86  59  143 86  59  143 86  59  143 86  59  143 86  59  143 86  59  143 86  59  143 86  59  102 57  49  143 86  59  143 86  59  89  86  82  143 86  59  143 86  59  143 86  59  
143 86  59  143 86  59  143 86  59  89  86  82  143 86  59  143 86  59  143 86  59  143 86  59  143 86  59  143 86  59  143 86  59  143 86  59  143 86  59  143 86  59  102 57  49  102 57  49  
132 126 135 143 86  59  143 86  59  143 86  59  102 57  49  143 86  59  143 86  59  143 86  59  143 86  59  143 86  59  143 86  59  143 86  59  143 86  59  143 86  59  102 57  49  102 57  49  
143 86  59  143 86  59  143 86  59  102 57  49  102 57  49  102 57  49  143 86  59  132 126 135 143 86  59  143 86  59  143 86  59  143 86  59  102 57  49  143 86  59  143 86  59  102 57  49  
143 86  59  102 57  49  102 57  49  102 57  49  102 57  49  143 86  59  143 86  59  143 86  59  143 86  59  143 86  59  143 86  59  143 86  59  102 57  49  143 86  59  143 86  59  143 86  59  
143 86  59  143 86  59  143 86  59  102 57  49  102 57  49  143 86  59  143 86  59  143 86  59  143 86  59  143 86  59  143 86  59  143 86  59  143 86  59  143 86  59  132 126 135 143 86  59  
143 86  59  89  86  82  143 86  59  143 86  59  143 86  59  143 86  59  143 86  59  143 86  59  102 57  49  143 86  59  143 86  59  143 86  59  143 86  59  143 86  59  143 86  59  143 86  59  
143 86  59  143 86  59  143 86  59  143 86  59  143 86  59  143 86  59  143 86  59  102 57  49  102 57  49  143 86  59  143 86  59  132 126 135 143 86  59  89  86  82  143 86  59  143 86  59  
143 86  59  143 86  59  143 86  59  143 86  59  143 86  59  143 86  59  143 86  59  102 57  49  143 86  59  143 86  59  143 86  59  143 86  59  143 86  59  143 86  59  143 86  59  143 86  59  
102 57  49  143 86  59  143 86  59  143 86  59  89  86  82  143 86  59  102 57  49  102 57  49  143 86  59  143 86  59  143 86  59  143 86  59  143 86  59  143 86  59  143 86  59  102 57  49  
102 57  49  132 126 135 143 86  59  143 86  59  143 86  59  143 86  59  143 86  59  143 86  59  143 86  59  89  86  82  143 86  59  143 86  59  143 86  59  143 86  59  102 57  49  89  86  82  
102 57  49  102 57  49  143 86  59  143 86  59  143 86  59  143 86  59  143 86  59  143 86  59  143 86  59  143 86  59  143 86  59  143 86  59  143 86  59  143 86  59  102 57  49  102 57  49  
